<svg width="55" height="60" viewBox="0 0 55 60" fill="none" xmlns="http://www.w3.org/2000/svg">
<path d="M26.6831 51.5787L1.42282 21.767L18.0625 1.57767L43.0885 32.2914L26.6831 51.5787Z" fill="#00B4D8" stroke="#0090AD" stroke-width="2"/>
<path opacity="0.1" d="M26.6831 51.5787L1.42282 21.767L18.0625 1.57767L43.0885 32.2914L26.6831 51.5787Z" fill="black" stroke="#0090AD" stroke-width="2"/>
<path d="M4.36476 21.4485L2.59039 21.2267C2.72493 21.0671 2.86578 20.9127 3.01265 20.7638L19.2579 4.29446C19.3953 4.27793 19.573 4.259 19.781 4.24225C20.3054 4.20002 21.0057 4.17298 21.7306 4.22769C22.4641 4.28305 23.1679 4.41837 23.7291 4.6678C23.9912 4.7843 24.2076 4.91848 24.3809 5.07162L4.36476 21.4485Z" fill="#F2F2F2" stroke="#0090AD" stroke-width="2"/>
<path d="M1.74149 22.4923L3.80543 22.2926L4.09486 22.2646L4.32414 22.0858L27.4009 4.08593L52.8205 42.5589L28.73 58.8114C27.8643 59.1252 26.9685 59.0052 26.2201 58.7558C25.8391 58.6288 25.5195 58.4755 25.2967 58.3545C25.2305 58.3185 25.1735 58.2858 25.1268 58.2581L1.74149 22.4923Z" fill="#00B4D8" stroke="#0090AD" stroke-width="2"/>
<mask id="path-5-inside-1_79_334" fill="white">
<path d="M24.6547 8.45812L9.33838 19.4641L9.56468 19.779L24.881 8.77306L24.6547 8.45812Z"/>
</mask>
<path d="M24.6547 8.45812L9.33838 19.4641L9.56468 19.779L24.881 8.77306L24.6547 8.45812Z" fill="#3F3D56"/>
<path d="M9.33838 19.4641L8.17129 17.84L6.54713 19.007L7.71422 20.6312L9.33838 19.4641ZM24.6547 8.45812L26.2788 7.29103L25.1117 5.66687L23.4876 6.83396L24.6547 8.45812ZM24.881 8.77306L26.0481 10.3972L27.6722 9.23013L26.5051 7.60596L24.881 8.77306ZM9.56468 19.779L7.94052 20.9461L9.10761 22.5703L10.7318 21.4032L9.56468 19.779ZM10.5055 21.0883L25.8218 10.0823L23.4876 6.83396L8.17129 17.84L10.5055 21.0883ZM23.0305 9.62521L23.2568 9.94015L26.5051 7.60596L26.2788 7.29103L23.0305 9.62521ZM23.7139 7.14889L8.39759 18.1549L10.7318 21.4032L26.0481 10.3972L23.7139 7.14889ZM11.1888 18.612L10.9625 18.297L7.71422 20.6312L7.94052 20.9461L11.1888 18.612Z" fill="#0090AD" mask="url(#path-5-inside-1_79_334)"/>
<mask id="path-7-inside-2_79_334" fill="white">
<path d="M9.13549 23.5834L8.81201 23.7974L28.913 54.1882L29.2365 53.9742L9.13549 23.5834Z"/>
</mask>
<path d="M9.13549 23.5834L8.81201 23.7974L28.913 54.1882L29.2365 53.9742L9.13549 23.5834Z" fill="#3F3D56"/>
<path d="M8.81201 23.7974L7.70868 22.1292L6.04055 23.2326L7.14388 24.9007L8.81201 23.7974ZM9.13549 23.5834L10.8036 22.4801L9.70029 20.8119L8.03216 21.9153L9.13549 23.5834ZM29.2365 53.9742L30.3398 55.6424L32.0079 54.539L30.9046 52.8709L29.2365 53.9742ZM28.913 54.1882L27.2449 55.2915L28.3482 56.9596L30.0163 55.8563L28.913 54.1882ZM9.91534 25.4655L10.2388 25.2515L8.03216 21.9153L7.70868 22.1292L9.91534 25.4655ZM7.46736 24.6867L27.5684 55.0775L30.9046 52.8709L10.8036 22.4801L7.46736 24.6867ZM28.1332 52.3061L27.8097 52.52L30.0163 55.8563L30.3398 55.6424L28.1332 52.3061ZM30.5811 53.0848L10.4801 22.694L7.14388 24.9007L27.2449 55.2915L30.5811 53.0848Z" fill="#0090AD" mask="url(#path-7-inside-2_79_334)"/>
<mask id="path-9-inside-3_79_334" fill="white">
<path d="M47.623 42.9149L31.3545 54.8845L31.5844 55.197L47.8529 43.2273L47.623 42.9149Z"/>
</mask>
<path d="M47.623 42.9149L31.3545 54.8845L31.5844 55.197L47.8529 43.2273L47.623 42.9149Z" fill="#3F3D56"/>
<path d="M31.3545 54.8845L30.1692 53.2736L28.5583 54.4588L29.7435 56.0698L31.3545 54.8845ZM47.623 42.9149L49.2339 41.7296L48.0487 40.1186L46.4377 41.3039L47.623 42.9149ZM47.8529 43.2273L49.0381 44.8383L50.6491 43.653L49.4638 42.0421L47.8529 43.2273ZM31.5844 55.197L29.9734 56.3823L31.1587 57.9932L32.7697 56.8079L31.5844 55.197ZM32.5398 56.4955L48.8082 44.5258L46.4377 41.3039L30.1692 53.2736L32.5398 56.4955ZM46.012 44.1001L46.2419 44.4126L49.4638 42.0421L49.2339 41.7296L46.012 44.1001ZM46.6676 41.6164L30.3991 53.586L32.7697 56.8079L49.0381 44.8383L46.6676 41.6164ZM33.1953 54.0117L32.9654 53.6993L29.7435 56.0698L29.9734 56.3823L33.1953 54.0117Z" fill="#0090AD" mask="url(#path-9-inside-3_79_334)"/>
<mask id="path-11-inside-4_79_334" fill="white">
<path d="M27.5589 8.98262L27.2407 9.2041L48.0595 39.1162L48.3778 38.8947L27.5589 8.98262Z"/>
</mask>
<path d="M27.5589 8.98262L27.2407 9.2041L48.0595 39.1162L48.3778 38.8947L27.5589 8.98262Z" fill="#3F3D56"/>
<path d="M27.2407 9.2041L26.0982 7.56256L24.4567 8.70507L25.5992 10.3466L27.2407 9.2041ZM27.5589 8.98262L29.2005 7.84011L28.058 6.19857L26.4164 7.34108L27.5589 8.98262ZM48.3778 38.8947L49.5203 40.5362L51.1618 39.3937L50.0193 37.7522L48.3778 38.8947ZM48.0595 39.1162L46.418 40.2587L47.5605 41.9002L49.2021 40.7577L48.0595 39.1162ZM28.3832 10.8456L28.7015 10.6242L26.4164 7.34108L26.0982 7.56256L28.3832 10.8456ZM25.9174 10.1251L46.7362 40.0372L50.0193 37.7522L29.2005 7.84011L25.9174 10.1251ZM47.2352 37.2532L46.917 37.4746L49.2021 40.7577L49.5203 40.5362L47.2352 37.2532ZM49.7011 37.9737L28.8823 8.06159L25.5992 10.3466L46.418 40.2587L49.7011 37.9737Z" fill="#0090AD" mask="url(#path-11-inside-4_79_334)"/>
<mask id="path-13-inside-5_79_334" fill="white">
<path d="M21.1279 3.11294L2.19238 20.4915L2.35409 20.6677L21.2896 3.28914L21.1279 3.11294Z"/>
</mask>
<path d="M21.1279 3.11294L2.19238 20.4915L2.35409 20.6677L21.2896 3.28914L21.1279 3.11294Z" fill="#3F3D56"/>
<path d="M2.19238 20.4915L0.840049 19.018L-0.633448 20.3703L0.718886 21.8438L2.19238 20.4915ZM21.1279 3.11294L22.6014 1.76061L21.2491 0.287111L19.7756 1.63945L21.1279 3.11294ZM21.2896 3.28914L22.642 4.76264L24.1155 3.41031L22.7631 1.93681L21.2896 3.28914ZM2.35409 20.6677L0.880598 22.02L2.23293 23.4935L3.70643 22.1412L2.35409 20.6677ZM3.54472 21.965L22.4803 4.58644L19.7756 1.63945L0.840049 19.018L3.54472 21.965ZM19.6544 4.46528L19.8161 4.64148L22.7631 1.93681L22.6014 1.76061L19.6544 4.46528ZM19.9373 1.81565L1.00176 19.1942L3.70643 22.1412L22.642 4.76264L19.9373 1.81565ZM3.82759 19.3153L3.66588 19.1391L0.718886 21.8438L0.880598 22.02L3.82759 19.3153Z" fill="#0090AD" mask="url(#path-13-inside-5_79_334)"/>
<mask id="path-15-inside-6_79_334" fill="white">
<path d="M22.7051 3.26197L2.91504 20.7329L3.07348 20.9124L22.8636 3.44144L22.7051 3.26197Z"/>
</mask>
<path d="M22.7051 3.26197L2.91504 20.7329L3.07348 20.9124L22.8636 3.44144L22.7051 3.26197Z" fill="#3F3D56"/>
<path d="M2.91504 20.7329L1.59141 19.2336L0.0920746 20.5572L1.41571 22.0565L2.91504 20.7329ZM22.7051 3.26197L24.2045 1.93834L22.8808 0.439008L21.3815 1.76264L22.7051 3.26197ZM22.8636 3.44144L24.1872 4.94078L25.6865 3.61715L24.3629 2.11781L22.8636 3.44144ZM3.07348 20.9124L1.57415 22.236L2.89778 23.7353L4.39711 22.4117L3.07348 20.9124ZM4.23867 22.2322L24.0288 4.76131L21.3815 1.76264L1.59141 19.2336L4.23867 22.2322ZM21.2058 4.5856L21.3642 4.76508L24.3629 2.11781L24.2045 1.93834L21.2058 4.5856ZM21.5399 1.94211L1.74985 19.413L4.39711 22.4117L24.1872 4.94078L21.5399 1.94211ZM4.57281 19.5888L4.41437 19.4093L1.41571 22.0565L1.57415 22.236L4.57281 19.5888Z" fill="#0090AD" mask="url(#path-15-inside-6_79_334)"/>
<mask id="path-17-inside-7_79_334" fill="white">
<path d="M23.9433 3.61009L3.39941 20.7344L3.55271 20.9183L24.0966 3.794L23.9433 3.61009Z"/>
</mask>
<path d="M23.9433 3.61009L3.39941 20.7344L3.55271 20.9183L24.0966 3.794L23.9433 3.61009Z" fill="#3F3D56"/>
<path d="M3.39941 20.7344L2.11885 19.1981L0.582571 20.4787L1.86313 22.0149L3.39941 20.7344ZM23.9433 3.61009L25.4796 2.32953L24.1991 0.793244L22.6628 2.0738L23.9433 3.61009ZM24.0966 3.794L25.3772 5.33028L26.9135 4.04972L25.6329 2.51344L24.0966 3.794ZM3.55271 20.9183L2.01643 22.1988L3.29699 23.7351L4.83327 22.4546L3.55271 20.9183ZM4.67997 22.2707L25.2239 5.14637L22.6628 2.0738L2.11885 19.1981L4.67997 22.2707ZM22.4071 4.89065L22.5604 5.07456L25.6329 2.51344L25.4796 2.32953L22.4071 4.89065ZM22.8161 2.25772L2.27215 19.382L4.83327 22.4546L25.3772 5.33028L22.8161 2.25772ZM5.08899 19.6377L4.9357 19.4538L1.86313 22.0149L2.01643 22.1988L5.08899 19.6377Z" fill="#0090AD" mask="url(#path-17-inside-7_79_334)"/>
<path d="M31.4458 18.2361C34.7005 22.458 33.9166 28.519 29.6948 31.7737C25.4729 35.0285 19.4119 34.2446 16.1572 30.0227C12.9024 25.8009 13.6863 19.7399 17.9082 16.4851C22.13 13.2304 28.191 14.0143 31.4458 18.2361Z" fill="#3F3D56" stroke="#0090AD" stroke-width="2"/>
<path opacity="0.1" d="M30.2649 19.1467C33.0168 22.7162 32.3539 27.8407 28.7844 30.5926C25.2149 33.3445 20.0903 32.6817 17.3384 29.1122C14.5865 25.5426 15.2493 20.4181 18.8189 17.6662C22.3884 14.9143 27.513 15.5771 30.2649 19.1467Z" fill="black" stroke="#0090AD" stroke-width="2"/>
<mask id="path-21-inside-8_79_334" fill="white">
<path d="M26.7542 28.6788L25.9401 27.6229C25.3982 28.024 24.7009 28.2614 24.1773 28.2484L23.8581 27.3776C24.4621 27.3694 25.0477 27.169 25.53 26.8054C26.1834 26.3017 26.2947 25.5324 25.8353 24.9365C25.392 24.3615 24.759 24.2827 23.8361 24.4941C22.575 24.7996 21.6244 24.7657 20.9231 23.8561C20.2541 22.9883 20.2893 21.911 21.0151 21.1014L20.2011 20.0454L20.7717 19.6055L21.5535 20.6197C21.9835 20.2975 22.4964 20.1044 23.0321 20.0632L23.3339 20.9307C22.8124 20.9602 22.3123 21.148 21.9003 21.4692C21.1916 22.0155 21.2955 22.7022 21.6179 23.1204C22.037 23.6641 22.5871 23.6734 23.678 23.4325C24.9645 23.1408 25.8622 23.3155 26.5796 24.246C27.2163 25.072 27.3066 26.236 26.4956 27.1444L27.334 28.2318L26.7542 28.6788Z"/>
</mask>
<path d="M26.7542 28.6788L25.9401 27.6229C25.3982 28.024 24.7009 28.2614 24.1773 28.2484L23.8581 27.3776C24.4621 27.3694 25.0477 27.169 25.53 26.8054C26.1834 26.3017 26.2947 25.5324 25.8353 24.9365C25.392 24.3615 24.759 24.2827 23.8361 24.4941C22.575 24.7996 21.6244 24.7657 20.9231 23.8561C20.2541 22.9883 20.2893 21.911 21.0151 21.1014L20.2011 20.0454L20.7717 19.6055L21.5535 20.6197C21.9835 20.2975 22.4964 20.1044 23.0321 20.0632L23.3339 20.9307C22.8124 20.9602 22.3123 21.148 21.9003 21.4692C21.1916 22.0155 21.2955 22.7022 21.6179 23.1204C22.037 23.6641 22.5871 23.6734 23.678 23.4325C24.9645 23.1408 25.8622 23.3155 26.5796 24.246C27.2163 25.072 27.3066 26.236 26.4956 27.1444L27.334 28.2318L26.7542 28.6788Z" fill="#00B4D8"/>
<path d="M26.7542 28.6788L25.1702 29.9L26.3913 31.4839L27.9753 30.2628L26.7542 28.6788ZM25.9401 27.6229L27.524 26.4017L26.3265 24.8484L24.7501 26.0154L25.9401 27.6229ZM24.1773 28.2484L22.2995 28.9367L22.7676 30.2139L24.1275 30.2478L24.1773 28.2484ZM23.8581 27.3776L23.8308 25.3778L21.0091 25.4163L21.9803 28.0659L23.8581 27.3776ZM25.53 26.8054L26.7337 28.4026L26.7425 28.396L26.7511 28.3894L25.53 26.8054ZM23.8361 24.4941L23.3896 22.5446L23.3774 22.5474L23.3652 22.5503L23.8361 24.4941ZM21.0151 21.1014L22.5043 22.4365L23.6148 21.1978L22.5991 19.8803L21.0151 21.1014ZM20.2011 20.0454L18.9799 18.4615L17.396 19.6826L18.6171 21.2665L20.2011 20.0454ZM20.7717 19.6055L22.3556 18.3844L21.1345 16.8005L19.5505 18.0216L20.7717 19.6055ZM21.5535 20.6197L19.9696 21.8408L21.1741 23.4033L22.7529 22.2202L21.5535 20.6197ZM23.0321 20.0632L24.921 19.4059L24.4146 17.9509L22.8786 18.0691L23.0321 20.0632ZM23.3339 20.9307L23.4469 22.9275L26.0944 22.7777L25.2228 20.2733L23.3339 20.9307ZM21.9003 21.4692L23.1214 23.0531L23.1298 23.0466L21.9003 21.4692ZM23.678 23.4325L24.1093 25.3855L24.1203 25.383L23.678 23.4325ZM26.4956 27.1444L25.0037 25.8125L23.8982 27.0508L24.9117 28.3655L26.4956 27.1444ZM27.334 28.2318L28.5551 29.8158L30.139 28.5947L28.9179 27.0107L27.334 28.2318ZM28.3381 27.4577L27.524 26.4017L24.3561 28.844L25.1702 29.9L28.3381 27.4577ZM24.7501 26.0154C24.6501 26.0894 24.5204 26.1579 24.3898 26.2037C24.2488 26.2532 24.1888 26.248 24.2271 26.249L24.1275 30.2478C25.1804 30.274 26.3041 29.8418 27.1301 29.2303L24.7501 26.0154ZM26.0551 27.5601L25.736 26.6893L21.9803 28.0659L22.2995 28.9367L26.0551 27.5601ZM23.8854 29.3774C24.9143 29.3634 25.912 29.0219 26.7337 28.4026L24.3262 25.2083C24.1833 25.316 24.0098 25.3754 23.8308 25.3778L23.8854 29.3774ZM26.7511 28.3894C27.4284 27.8673 27.9336 27.1159 28.0755 26.2175C28.2188 25.3102 27.9628 24.4205 27.4192 23.7154L24.2514 26.1576C24.1672 26.0485 24.0853 25.8413 24.1245 25.5936C24.1622 25.3547 24.2851 25.2399 24.3089 25.2215L26.7511 28.3894ZM27.4192 23.7154C26.9075 23.0516 26.217 22.6195 25.404 22.4585C24.6744 22.314 23.9665 22.4125 23.3896 22.5446L24.2826 26.4436C24.4427 26.407 24.5479 26.3929 24.6114 26.3886C24.674 26.3843 24.6721 26.3912 24.6271 26.3823C24.5752 26.372 24.4939 26.3461 24.4068 26.2917C24.3205 26.2379 24.2703 26.1822 24.2514 26.1576L27.4192 23.7154ZM23.3652 22.5503C23.109 22.6124 22.9141 22.6458 22.764 22.6597C22.6151 22.6734 22.539 22.665 22.5124 22.6603C22.4939 22.6571 22.5107 22.6582 22.537 22.6743C22.5621 22.6896 22.5499 22.6905 22.5071 22.635L19.3392 25.0772C19.9885 25.9194 20.8403 26.4296 21.8269 26.6012C22.7161 26.7558 23.5887 26.6119 24.307 26.4379L23.3652 22.5503ZM22.5071 22.635C22.4677 22.5839 22.4533 22.549 22.4484 22.5346C22.4438 22.5207 22.4452 22.518 22.445 22.5233C22.4448 22.5286 22.4435 22.5282 22.4474 22.5188C22.4514 22.509 22.4654 22.4799 22.5043 22.4365L19.526 19.7663C18.1476 21.3038 18.0898 23.4565 19.3392 25.0772L22.5071 22.635ZM22.5991 19.8803L21.785 18.8243L18.6171 21.2665L19.4312 22.3225L22.5991 19.8803ZM21.4222 21.6294L21.9928 21.1895L19.5505 18.0216L18.9799 18.4615L21.4222 21.6294ZM19.1877 20.8266L19.9696 21.8408L23.1375 19.3986L22.3556 18.3844L19.1877 20.8266ZM22.7529 22.2202C22.8787 22.1259 23.0288 22.0694 23.1856 22.0573L22.8786 18.0691C21.9639 18.1395 21.0882 18.4691 20.3541 19.0192L22.7529 22.2202ZM21.1432 20.7205L21.4451 21.588L25.2228 20.2733L24.921 19.4059L21.1432 20.7205ZM23.221 18.9339C22.2933 18.9863 21.4036 19.3205 20.6707 19.8918L23.1298 23.0466C23.2209 22.9756 23.3315 22.934 23.4469 22.9275L23.221 18.9339ZM20.6791 19.8852C19.9386 20.4561 19.4494 21.2587 19.3782 22.1906C19.3116 23.0632 19.6294 23.8167 20.034 24.3415L23.2019 21.8993C23.284 22.0059 23.3886 22.2069 23.3666 22.4951C23.3552 22.6452 23.3101 22.7836 23.246 22.8952C23.1838 23.0035 23.1245 23.0507 23.1214 23.0531L20.6791 19.8852ZM20.034 24.3415C20.5614 25.0257 21.2809 25.4485 22.1516 25.5557C22.8495 25.6416 23.5569 25.5074 24.1093 25.3855L23.2468 21.4795C23.004 21.5332 22.8396 21.5618 22.7247 21.5751C22.6085 21.5886 22.594 21.5799 22.6405 21.5857C22.7016 21.5932 22.824 21.62 22.9624 21.6999C23.099 21.7787 23.1759 21.8657 23.2019 21.8993L20.034 24.3415ZM24.1203 25.383C24.6066 25.2727 24.7973 25.3058 24.8388 25.3165C24.8509 25.3197 24.8539 25.3213 24.8626 25.3273C24.8751 25.336 24.9215 25.371 24.9956 25.4671L28.1635 23.0249C27.5756 22.2623 26.8118 21.6966 25.8457 21.4453C24.9373 21.2091 24.036 21.3006 23.2358 21.482L24.1203 25.383ZM24.9956 25.4671C25.068 25.561 25.0805 25.6367 25.0805 25.6674C25.0805 25.6816 25.0785 25.6941 25.0727 25.7093C25.067 25.724 25.0509 25.7596 25.0037 25.8125L27.9876 28.4763C29.5243 26.7549 29.3067 24.5077 28.1635 23.0249L24.9956 25.4671ZM24.9117 28.3655L25.75 29.453L28.9179 27.0107L28.0796 25.9233L24.9117 28.3655ZM26.1128 26.6479L25.533 27.0949L27.9753 30.2628L28.5551 29.8158L26.1128 26.6479Z" fill="#0090AD" mask="url(#path-21-inside-8_79_334)"/>
</svg>
