<svg width="55" height="60" viewBox="0 0 55 60" fill="none" xmlns="http://www.w3.org/2000/svg">
<path d="M18.3669 0L0.419556 21.7759L26.9816 53.1239L44.6895 32.3051L18.3669 0Z" fill="#00B4D8"/>
<path opacity="0.1" d="M18.3669 0L0.419556 21.7759L26.9816 53.1239L44.6895 32.3051L18.3669 0Z" fill="black"/>
<path d="M1.1377 22.0153C1.53468 21.3008 2.02696 20.6435 2.60101 20.0615L19.085 3.35014C19.085 3.35014 24.8281 2.39295 26.0246 5.26451L4.96645 22.4939L1.1377 22.0153Z" fill="#F2F2F2"/>
<path d="M0.300049 21.6563L24.7084 58.9867C24.7084 58.9867 27.1013 60.6618 29.4943 59.7046L54.5009 42.8341L27.9389 2.63219L4.00916 21.2974L0.300049 21.6563Z" fill="#00B4D8"/>
<path d="M24.9548 8.45802L9.63855 19.464L9.86485 19.7789L25.1811 8.77295L24.9548 8.45802Z" fill="#3F3D56"/>
<path d="M9.43554 23.5833L9.11206 23.7973L29.2131 54.1881L29.5365 53.9742L9.43554 23.5833Z" fill="#3F3D56"/>
<path d="M47.923 42.9148L31.6545 54.8845L31.8844 55.1969L48.1529 43.2273L47.923 42.9148Z" fill="#3F3D56"/>
<path d="M27.8587 8.98253L27.5405 9.20401L48.3593 39.1161L48.6776 38.8946L27.8587 8.98253Z" fill="#3F3D56"/>
<path d="M21.428 3.11287L2.49243 20.4914L2.65414 20.6676L21.5897 3.28907L21.428 3.11287Z" fill="#3F3D56"/>
<path d="M23.0054 3.26188L3.21533 20.7328L3.37377 20.9123L23.1639 3.44135L23.0054 3.26188Z" fill="#3F3D56"/>
<path d="M24.2434 3.61007L3.69946 20.7344L3.85276 20.9183L24.3967 3.79398L24.2434 3.61007Z" fill="#3F3D56"/>
<path d="M30.6054 32.5658C35.2646 28.9738 36.1298 22.2849 32.5378 17.6256C28.9458 12.9664 22.2569 12.1012 17.5976 15.6932C12.9384 19.2852 12.0733 25.9741 15.6652 30.6334C19.2572 35.2926 25.9461 36.1578 30.6054 32.5658Z" fill="#3F3D56"/>
<path opacity="0.1" d="M29.6948 31.3847C33.7017 28.2956 34.4457 22.5431 31.3566 18.5362C28.2675 14.5292 22.5151 13.7852 18.5081 16.8743C14.5012 19.9634 13.7571 25.7159 16.8462 29.7228C19.9354 33.7297 25.6878 34.4738 29.6948 31.3847Z" fill="black"/>
<path d="M27.0543 28.6787L26.2402 27.6228C25.6984 28.0239 25.0011 28.2613 24.4775 28.2483L24.1583 27.3775C24.7622 27.3693 25.3478 27.1689 25.8302 26.8053C26.4836 26.3016 26.5949 25.5323 26.1355 24.9364C25.6921 24.3614 25.0592 24.2826 24.1363 24.494C22.8751 24.7995 21.9245 24.7656 21.2233 23.856C20.5543 22.9882 20.5895 21.9109 21.3153 21.1013L20.5012 20.0453L21.0718 19.6054L21.8537 20.6196C22.2836 20.2974 22.7965 20.1043 23.3322 20.0631L23.6341 20.9306C23.1126 20.9601 22.6124 21.1479 22.2004 21.4691C21.4918 22.0154 21.5956 22.7021 21.9181 23.1203C22.3372 23.664 22.8873 23.6733 23.9782 23.4324C25.2647 23.1407 26.1624 23.3154 26.8798 24.2459C27.5165 25.0719 27.6068 26.2358 26.7958 27.1443L27.6341 28.2317L27.0543 28.6787Z" fill="#00B4D8"/>
</svg>
