<svg width="647" height="753" viewBox="0 0 647 753" fill="none" xmlns="http://www.w3.org/2000/svg">
<path d="M261.856 357.273C245.074 366.761 230.515 385.116 224.376 401.518C215.314 425.683 215.323 453.573 220.798 472.228C221.122 473.335 221.464 474.486 221.829 475.675C222.33 477.309 222.874 479.014 223.469 480.771C225.079 485.525 227.07 490.662 229.646 495.821C237.434 511.418 250.567 527.226 274.681 533.331C284.315 535.769 294.042 536.345 303.621 534.475C312.027 532.835 320.318 529.31 328.332 523.51C335.177 518.555 341.819 511.939 348.156 503.416C369.019 475.25 388.168 405.013 352.553 367.258C331.699 345.155 306.824 341.435 283.367 348.13C279.237 349.309 275.151 350.81 271.14 352.591C267.995 353.987 264.896 355.555 261.856 357.273Z" fill="#DDE9FC"/>
<path d="M319.748 332.678L319.903 332.113C318.773 331.803 317.621 331.511 316.476 331.245L316.345 331.815C317.481 332.08 318.626 332.37 319.748 332.678ZM309.449 330.498C310.6 330.671 311.764 330.87 312.91 331.088L313.02 330.513C311.867 330.293 310.694 330.093 309.536 329.919L309.449 330.498ZM326.438 334.805L326.638 334.255C325.535 333.856 324.409 333.473 323.292 333.118L323.114 333.674C324.224 334.027 325.343 334.408 326.438 334.805ZM302.471 329.734C303.633 329.814 304.81 329.92 305.968 330.047L306.031 329.465C304.866 329.338 303.682 329.231 302.512 329.151L302.471 329.734ZM332.936 337.464L333.178 336.932C332.113 336.445 331.022 335.972 329.935 335.527L329.713 336.069C330.793 336.511 331.877 336.981 332.936 337.464ZM295.454 329.537C296.617 329.523 297.798 329.533 298.965 329.565L298.981 328.98C297.807 328.947 296.617 328.937 295.446 328.952L295.454 329.537ZM339.196 340.638L339.481 340.127C338.458 339.556 337.409 338.995 336.362 338.465L336.098 338.987C337.137 339.515 338.181 340.07 339.196 340.638ZM288.444 329.907C289.604 329.799 290.781 329.713 291.945 329.651L291.914 329.068C290.743 329.13 289.557 329.216 288.39 329.326L288.444 329.907ZM345.179 344.31L345.505 343.824C344.531 343.171 343.532 342.529 342.531 341.915L342.225 342.413C343.219 343.023 344.212 343.661 345.179 344.31ZM281.469 330.849C282.619 330.645 283.789 330.464 284.946 330.308L284.867 329.727C283.703 329.885 282.525 330.068 281.367 330.273L281.469 330.849ZM350.832 348.443L351.196 347.985C350.281 347.257 349.336 346.538 348.391 345.847L348.047 346.319C348.986 347.005 349.923 347.72 350.832 348.443ZM274.597 332.353C275.726 332.057 276.877 331.781 278.017 331.532L277.892 330.96C276.744 331.211 275.586 331.489 274.45 331.787L274.597 332.353ZM356.135 353.021L356.535 352.595C355.681 351.796 354.798 351.002 353.911 350.236L353.528 350.679C354.409 351.439 355.287 352.227 356.135 353.021ZM267.874 334.404C268.975 334.018 270.099 333.651 271.214 333.311L271.044 332.751C269.921 333.094 268.789 333.464 267.68 333.853L267.874 334.404ZM361.056 358.015L361.489 357.621C360.7 356.753 359.883 355.89 359.062 355.057L358.646 355.468C359.461 356.295 360.272 357.153 361.056 358.015ZM261.34 336.991C262.407 336.518 263.498 336.061 264.58 335.633L264.365 335.088C263.274 335.52 262.177 335.98 261.102 336.455L261.34 336.991ZM365.564 363.39L366.027 363.032C365.309 362.104 364.565 361.177 363.812 360.281L363.365 360.657C364.112 361.548 364.851 362.468 365.564 363.39ZM255.036 340.09C256.062 339.533 257.113 338.991 258.157 338.477L257.899 337.952C256.847 338.469 255.79 339.016 254.758 339.577L255.036 340.09ZM369.63 369.111L370.12 368.791C369.48 367.809 368.811 366.828 368.131 365.87L367.654 366.21C368.329 367.16 368.993 368.135 369.63 369.111ZM249.005 343.683C249.982 343.047 250.985 342.422 251.985 341.827L251.685 341.325C250.679 341.924 249.67 342.553 248.686 343.193L249.005 343.683ZM373.227 375.141L373.74 374.861C373.181 373.832 372.592 372.798 371.991 371.789L371.488 372.089C372.085 373.091 372.67 374.117 373.227 375.141ZM243.281 347.746C244.203 347.034 245.153 346.332 246.103 345.658L245.764 345.181C244.807 345.86 243.852 346.566 242.924 347.283L243.281 347.746ZM376.33 381.442L376.865 381.205C376.389 380.131 375.884 379.054 375.366 378.001L374.841 378.259C375.356 379.305 375.857 380.376 376.33 381.442ZM237.905 352.251C238.767 351.469 239.656 350.692 240.548 349.945L240.172 349.496C239.274 350.249 238.379 351.03 237.511 351.818L237.905 352.251ZM378.919 387.974L379.472 387.78C379.083 386.672 378.667 385.557 378.234 384.466L377.69 384.682C378.12 385.766 378.533 386.873 378.919 387.974ZM232.909 357.17C233.705 356.32 234.528 355.475 235.356 354.66L234.946 354.244C234.113 355.064 233.283 355.914 232.481 356.77L232.909 357.17ZM380.976 394.697L381.541 394.548C381.244 393.412 380.919 392.267 380.575 391.143L380.015 391.315C380.357 392.431 380.68 393.569 380.976 394.697ZM228.327 362.471C229.052 361.563 229.803 360.654 230.563 359.775L230.122 359.393C229.356 360.279 228.598 361.192 227.87 362.107L228.327 362.471ZM382.482 401.567L383.058 401.465C382.853 400.308 382.622 399.14 382.37 397.991L381.798 398.117C382.048 399.257 382.279 400.418 382.482 401.567ZM224.191 368.121C224.841 367.154 225.517 366.189 226.201 365.255L225.729 364.909C225.04 365.85 224.36 366.82 223.705 367.794L224.191 368.121ZM383.428 408.542L384.01 408.487C383.899 407.317 383.764 406.133 383.606 404.966L383.026 405.045C383.184 406.204 383.319 407.381 383.428 408.542ZM220.515 374.102C221.084 373.086 221.681 372.067 222.292 371.074L221.794 370.768C221.179 371.767 220.578 372.794 220.006 373.816L220.515 374.102ZM383.802 415.552L384.388 415.544C384.373 414.372 384.333 413.184 384.27 412.011L383.686 412.043C383.749 413.208 383.787 414.388 383.802 415.552ZM217.337 380.362C217.823 379.301 218.338 378.236 218.864 377.199L218.342 376.935C217.812 377.979 217.295 379.049 216.806 380.118L217.337 380.362ZM383.608 422.569L384.193 422.608C384.272 421.437 384.329 420.25 384.361 419.078L383.777 419.062C383.745 420.225 383.688 421.406 383.608 422.569ZM214.676 386.857C215.073 385.764 215.498 384.662 215.941 383.583L215.399 383.361C214.954 384.448 214.525 385.557 214.126 386.658L214.676 386.857ZM382.849 429.548L383.428 429.635C383.601 428.472 383.754 427.293 383.88 426.129L383.299 426.066C383.173 427.222 383.022 428.393 382.849 429.548ZM212.545 393.546C212.854 392.424 213.188 391.292 213.543 390.18L212.986 390.002C212.629 391.121 212.291 392.262 211.98 393.39L212.545 393.546ZM381.535 436.444L382.105 436.576L382.127 436.479C382.384 435.367 382.622 434.236 382.836 433.118L382.261 433.009C382.05 434.119 381.812 435.242 381.557 436.349L381.535 436.444ZM210.34 400.463L210.915 400.573C211.132 399.426 211.375 398.27 211.637 397.137L211.68 396.948L211.11 396.817L211.067 397.004C210.803 398.146 210.559 399.309 210.34 400.463ZM380.237 443.392C380.592 442.275 380.929 441.133 381.239 440.002L380.674 439.847C380.367 440.971 380.032 442.104 379.679 443.214L380.237 443.392ZM209.303 407.454L209.885 407.516C210.01 406.356 210.16 405.185 210.331 404.035L209.752 403.948C209.58 405.106 209.428 406.286 209.303 407.454ZM377.831 450.036C378.274 448.953 378.701 447.842 379.101 446.737L378.551 446.538C378.154 447.636 377.729 448.738 377.29 449.814L377.831 450.036ZM208.83 414.505L209.415 414.52C209.446 413.357 209.501 412.178 209.579 411.014L208.995 410.975C208.916 412.147 208.862 413.334 208.83 414.505ZM374.897 456.465C375.427 455.418 375.942 454.346 376.429 453.28L375.896 453.037C375.413 454.096 374.901 455.161 374.375 456.201L374.897 456.465ZM208.928 421.571L209.514 421.54C209.45 420.379 209.408 419.199 209.392 418.031L208.808 418.039C208.825 419.214 208.864 420.403 208.928 421.571ZM371.451 462.636C372.064 461.636 372.665 460.609 373.236 459.585L372.725 459.3C372.157 460.317 371.561 461.337 370.952 462.33L371.451 462.636ZM209.601 428.616L210.181 428.538C210.023 427.377 209.886 426.201 209.775 425.04L209.193 425.096C209.304 426.264 209.442 427.448 209.601 428.616ZM367.521 468.499C368.213 467.552 368.893 466.581 369.543 465.611L369.057 465.285C368.411 466.248 367.736 467.213 367.05 468.154L367.521 468.499ZM210.844 435.59L211.416 435.464C211.166 434.325 210.933 433.164 210.729 432.014L210.152 432.117C210.358 433.274 210.591 434.443 210.844 435.59ZM363.136 474.02C363.9 473.134 364.657 472.219 365.385 471.303L364.927 470.939C364.204 471.85 363.452 472.758 362.693 473.638L363.136 474.02ZM212.647 442.436L213.207 442.265C212.864 441.147 212.539 440.009 212.243 438.883L211.677 439.031C211.975 440.164 212.302 441.311 212.647 442.436ZM358.317 479.175C359.15 478.352 359.979 477.501 360.779 476.646L360.351 476.246C359.557 477.096 358.733 477.941 357.905 478.758L358.317 479.175ZM214.996 449.111L215.539 448.895C215.108 447.808 214.694 446.701 214.307 445.604L213.755 445.797C214.144 446.903 214.561 448.017 214.996 449.111ZM353.096 483.928C353.994 483.174 354.888 482.392 355.754 481.603L355.36 481.17C354.5 481.954 353.613 482.73 352.72 483.479L353.096 483.928ZM217.871 455.572L218.396 455.313C217.879 454.266 217.376 453.195 216.903 452.132L216.368 452.371C216.844 453.441 217.351 454.517 217.871 455.572ZM347.509 488.249C348.467 487.568 349.422 486.859 350.347 486.144L349.988 485.681C349.07 486.392 348.121 487.096 347.17 487.772L347.509 488.249ZM221.253 461.78L221.756 461.48C221.159 460.481 220.572 459.455 220.014 458.43L219.5 458.71C220.062 459.741 220.653 460.775 221.253 461.78ZM341.592 492.112C342.596 491.512 343.605 490.881 344.59 490.239L344.27 489.75C343.292 490.388 342.291 491.013 341.292 491.609L341.592 492.112ZM225.119 467.695L225.595 467.355C224.919 466.407 224.254 465.43 223.617 464.456L223.127 464.777C223.769 465.757 224.439 466.74 225.119 467.695ZM335.383 495.49C336.434 494.971 337.491 494.424 338.522 493.863L338.241 493.349C337.218 493.907 336.169 494.451 335.123 494.966L335.383 495.49ZM229.444 473.279L229.893 472.903C229.146 472.014 228.403 471.096 227.688 470.172L227.226 470.531C227.946 471.46 228.692 472.385 229.444 473.279ZM328.919 498.363C330.012 497.929 331.11 497.467 332.18 496.992L331.942 496.457C330.88 496.929 329.789 497.388 328.703 497.819L328.919 498.363ZM234.2 478.497L234.616 478.085C233.801 477.259 232.987 476.404 232.202 475.542L231.77 475.936C232.56 476.804 233.378 477.665 234.2 478.497ZM322.244 500.707C323.37 500.361 324.501 499.99 325.606 499.602L325.412 499.049C324.314 499.435 323.191 499.804 322.072 500.147L322.244 500.707ZM239.356 483.314L239.738 482.87C238.856 482.11 237.978 481.323 237.129 480.531L236.73 480.957C237.585 481.755 238.468 482.549 239.356 483.314ZM315.396 502.506C316.546 502.253 317.704 501.973 318.839 501.675L318.689 501.11C317.562 501.405 316.413 501.683 315.271 501.934L315.396 502.506ZM244.881 487.696L245.225 487.224C244.286 486.538 243.348 485.824 242.439 485.103L242.075 485.562C242.991 486.288 243.935 487.006 244.881 487.696ZM308.422 503.745C309.586 503.586 310.764 503.401 311.923 503.196L311.821 502.619C310.669 502.824 309.499 503.008 308.343 503.166L308.422 503.745ZM250.746 491.622L251.052 491.123C250.058 490.514 249.064 489.878 248.095 489.229L247.769 489.716C248.745 490.368 249.746 491.01 250.746 491.622ZM301.377 504.414C302.549 504.35 303.736 504.262 304.902 504.152L304.847 503.569C303.689 503.679 302.51 503.765 301.345 503.829L301.377 504.414ZM256.918 495.064L257.182 494.542C256.14 494.015 255.098 493.462 254.082 492.895L253.797 493.406C254.819 493.976 255.869 494.534 256.918 495.064ZM294.31 504.509C295.485 504.54 296.673 504.549 297.844 504.533L297.837 503.947C296.674 503.963 295.493 503.956 294.326 503.924L294.31 504.509ZM263.349 497.995L263.57 497.453C262.494 497.014 261.409 496.547 260.347 496.063L260.104 496.595C261.174 497.082 262.265 497.553 263.349 497.995C263.349 497.995 262.265 497.553 263.349 497.995ZM287.259 504.032C288.427 504.158 289.612 504.263 290.78 504.342L290.819 503.758C289.659 503.679 288.483 503.576 287.322 503.45L287.259 504.032ZM269.994 500.398L270.171 499.84C269.06 499.489 267.942 499.11 266.847 498.713L266.648 499.264C267.75 499.662 268.876 500.044 269.994 500.398ZM280.269 502.99C281.419 503.209 282.592 503.408 283.754 503.581L283.84 503.002C282.686 502.831 281.522 502.633 280.379 502.416L280.269 502.99ZM276.812 502.262L276.944 501.692C275.811 501.43 274.664 501.141 273.538 500.833L273.384 501.398C274.517 501.708 275.67 501.999 276.812 502.262Z" fill="#9DA0B6"/>
<path d="M126.147 52.1888C107.347 62.8183 91.0372 83.3798 84.1603 101.755C74.0086 128.825 74.0179 160.071 80.1514 180.969C80.5146 182.209 80.8984 183.498 81.3069 184.83C81.8683 186.661 82.4772 188.57 83.1436 190.538C84.9476 195.865 87.1783 201.619 90.0643 207.399C98.7884 224.872 113.5 242.581 140.514 249.419C151.307 252.151 162.205 252.796 172.935 250.702C182.352 248.864 191.64 244.915 200.617 238.418C208.286 232.866 215.727 225.455 222.826 215.907C246.198 184.353 267.65 105.67 227.752 63.375C204.389 38.6131 176.523 34.4457 150.245 41.9467C145.619 43.2673 141.042 44.9491 136.547 46.9443C133.025 48.5082 129.553 50.264 126.147 52.1888Z" fill="#DDE9FC"/>
<path d="M191.001 24.6362L191.175 24.0035C189.91 23.6564 188.619 23.3292 187.337 23.0309L187.189 23.6698C188.462 23.9659 189.745 24.2913 191.001 24.6362ZM179.464 22.1937C180.753 22.3874 182.058 22.6102 183.341 22.855L183.464 22.2105C182.173 21.9638 180.859 21.74 179.562 21.5456L179.464 22.1937ZM198.496 27.0191L198.72 26.4028C197.485 25.9553 196.223 25.5262 194.972 25.1287L194.773 25.752C196.016 26.1477 197.27 26.5738 198.496 27.0191ZM171.647 21.3385C172.949 21.4277 174.267 21.5464 175.564 21.6882L175.635 21.0365C174.33 20.894 173.003 20.7747 171.692 20.6847L171.647 21.3385ZM205.775 29.9972L206.047 29.4016C204.854 28.8564 203.631 28.3264 202.414 27.828L202.165 28.435C203.375 28.9303 204.589 29.4561 205.775 29.9972ZM163.786 21.1172C165.089 21.1015 166.412 21.1124 167.719 21.149L167.737 20.4937C166.422 20.4564 165.089 20.4457 163.778 20.4618L163.786 21.1172ZM212.789 33.5539L213.108 32.9814C211.962 32.3409 210.787 31.7131 209.614 31.1187L209.317 31.7037C210.482 32.2948 211.651 32.9176 212.789 33.5539ZM155.933 21.5324C157.232 21.411 158.551 21.3148 159.855 21.2455L159.82 20.5914C158.508 20.6612 157.18 20.7578 155.872 20.8809L155.933 21.5324ZM219.491 37.6664L219.856 37.1229C218.765 36.3913 217.646 35.6713 216.524 34.9838L216.182 35.5423C217.295 36.2255 218.408 36.9402 219.491 37.6664ZM148.119 22.587C149.407 22.3592 150.718 22.1561 152.014 21.9813L151.926 21.3308C150.621 21.5072 149.303 21.7122 148.005 21.9416L148.119 22.587ZM225.823 42.297L226.231 41.7841C225.207 40.9688 224.148 40.1627 223.09 39.3884L222.704 39.9173C223.756 40.6866 224.805 41.4867 225.823 42.297ZM140.421 24.2716C141.685 23.9406 142.974 23.6311 144.252 23.3518L144.112 22.7115C142.826 22.9924 141.528 23.3046 140.256 23.6375L140.421 24.2716ZM231.765 47.4259L232.212 46.9478C231.256 46.053 230.267 45.164 229.273 44.3057L228.844 44.8016C229.831 45.6534 230.815 46.5362 231.765 47.4259ZM132.889 26.5698C134.123 26.1377 135.382 25.726 136.631 25.3451L136.44 24.7184C135.183 25.1024 133.915 25.5168 132.672 25.9519L132.889 26.5698ZM237.277 53.0202L237.763 52.5789C236.878 51.6066 235.963 50.6395 235.044 49.7068L234.577 50.167C235.491 51.0935 236.399 52.0541 237.277 53.0202ZM125.569 29.4677C126.765 28.9376 127.987 28.4258 129.199 27.946L128.958 27.3358C127.736 27.8196 126.507 28.3347 125.303 28.8678L125.569 29.4677ZM242.328 59.0414L242.846 58.6408C242.042 57.6004 241.208 56.5628 240.365 55.5585L239.864 55.9802C240.701 56.9782 241.529 58.0084 242.328 59.0414ZM118.508 32.9394C119.657 32.3155 120.834 31.7078 122.003 31.1326L121.714 30.5444C120.536 31.1238 119.352 31.7359 118.196 32.3643L118.508 32.9394ZM246.882 65.4501L247.431 65.092C246.714 63.9922 245.965 62.8925 245.204 61.8203L244.669 62.2001C245.425 63.2648 246.169 64.3575 246.882 65.4501ZM111.751 36.965C112.846 36.2517 113.97 35.5524 115.09 34.8851L114.753 34.3225C113.626 34.9943 112.496 35.6984 111.394 36.4161L111.751 36.965ZM250.911 72.2055L251.487 71.8925C250.86 70.7391 250.201 69.5806 249.527 68.4506L248.963 68.787C249.633 69.9087 250.288 71.059 250.911 72.2055ZM105.339 41.5161C106.372 40.7188 107.436 39.9324 108.5 39.1776L108.12 38.6429C107.048 39.4031 105.979 40.1945 104.938 40.9974L105.339 41.5161ZM254.389 79.2645L254.987 78.9984C254.454 77.7957 253.888 76.5893 253.308 75.41L252.72 75.6992C253.297 76.8705 253.858 78.0698 254.389 79.2645ZM99.316 46.5635C100.282 45.6871 101.278 44.8166 102.277 43.9798L101.855 43.4771C100.85 44.3198 99.8468 45.1948 98.8748 46.0782L99.316 46.5635ZM257.288 86.5823L257.907 86.3649C257.472 85.1238 257.006 83.8742 256.521 82.6522L255.912 82.8939C256.394 84.1079 256.856 85.3492 257.288 86.5823ZM93.7188 52.0731C94.6114 51.1213 95.5332 50.175 96.4608 49.2619L96.0018 48.7957C95.0679 49.7147 94.1387 50.6666 93.2396 51.6254L93.7188 52.0731ZM259.593 94.1132L260.226 93.9467C259.893 92.6742 259.528 91.3908 259.144 90.132L258.517 90.3244C258.9 91.5755 259.261 92.8497 259.593 94.1132ZM88.5867 58.0125C89.3981 56.9943 90.2398 55.9771 91.0913 54.9914L90.5966 54.5633C89.7385 55.5561 88.8894 56.5789 88.0738 57.6047L88.5867 58.0125ZM261.28 101.81L261.926 101.696C261.696 100.4 261.436 99.0903 261.154 97.804L260.514 97.9444C260.794 99.2218 261.052 100.522 261.28 101.81ZM83.9532 64.3417C84.6809 63.2578 85.4383 62.1771 86.205 61.1303L85.6764 60.7433C84.9043 61.7974 84.1418 62.8843 83.4088 63.9755L83.9532 64.3417ZM262.34 109.623L262.991 109.561C262.867 108.252 262.716 106.925 262.539 105.617L261.889 105.706C262.066 107.004 262.217 108.323 262.34 109.623ZM79.8351 71.0414C80.4726 69.9038 81.1415 68.7623 81.8256 67.6501L81.2674 67.3063C80.5791 68.4262 79.9058 69.5763 79.2641 70.7216L79.8351 71.0414ZM262.759 117.476L263.415 117.468C263.398 116.155 263.354 114.823 263.283 113.51L262.629 113.546C262.699 114.85 262.742 116.172 262.759 117.476ZM76.2749 78.0543C76.8191 76.8658 77.3961 75.6727 77.9852 74.5116L77.4002 74.2154C76.8066 75.3852 76.2271 76.5839 75.6796 77.7814L76.2749 78.0543ZM262.542 125.338L263.196 125.381C263.285 124.07 263.349 122.74 263.385 121.426L262.731 121.409C262.695 122.712 262.631 124.035 262.542 125.338ZM73.294 85.3303C73.7388 84.1067 74.2143 82.8718 74.7107 81.6625L74.1038 81.4137C73.6052 82.6323 73.1243 83.8745 72.6774 85.1075L73.294 85.3303ZM261.692 133.156L262.34 133.253C262.534 131.95 262.705 130.629 262.847 129.326L262.195 129.255C262.054 130.55 261.885 131.862 261.692 133.156ZM70.9064 92.8239C71.2525 91.5677 71.6272 90.2986 72.0246 89.053L71.4 88.8539C71.0008 90.1076 70.6216 91.3855 70.2737 92.6498L70.9064 92.8239ZM260.219 140.881L260.858 141.029L260.883 140.921C261.17 139.674 261.437 138.407 261.676 137.155L261.033 137.033C260.796 138.276 260.53 139.535 260.244 140.774L260.219 140.881ZM68.4366 100.573L69.08 100.696C69.3239 99.4115 69.596 98.1162 69.889 96.8465L69.9377 96.6355L69.2988 96.488L69.2503 96.6979C68.9552 97.9768 68.6813 99.2802 68.4366 100.573ZM258.765 148.665C259.162 147.413 259.541 146.134 259.888 144.867L259.255 144.694C258.911 145.953 258.535 147.222 258.14 148.466L258.765 148.665ZM67.2742 108.405L67.9262 108.474C68.0662 107.174 68.2346 105.862 68.4257 104.574L67.7776 104.477C67.5844 105.775 67.415 107.096 67.2742 108.405ZM256.07 156.108C256.566 154.894 257.044 153.65 257.492 152.412L256.877 152.189C256.432 153.419 255.955 154.654 255.463 155.859L256.07 156.108ZM66.7447 116.304L67.4003 116.321C67.4346 115.018 67.4966 113.696 67.5837 112.393L66.9294 112.349C66.8413 113.662 66.78 114.992 66.7447 116.304ZM252.783 163.31C253.377 162.136 253.953 160.936 254.499 159.741L253.902 159.469C253.361 160.656 252.788 161.849 252.198 163.013L252.783 163.31ZM66.8549 124.22L67.5103 124.184C67.4391 122.884 67.3925 121.562 67.3745 120.253L66.7203 120.262C66.7387 121.579 66.7831 122.911 66.8549 124.22ZM248.922 170.223C249.609 169.103 250.282 167.952 250.922 166.805L250.35 166.485C249.713 167.624 249.045 168.767 248.363 169.88L248.922 170.223ZM67.608 132.112L68.2585 132.024C68.081 130.724 67.9271 129.406 67.8033 128.106L67.1515 128.168C67.2758 129.477 67.4301 130.803 67.608 132.112ZM244.52 176.791C245.295 175.73 246.057 174.642 246.785 173.556L246.24 173.191C245.517 174.27 244.761 175.351 243.992 176.404L244.52 176.791ZM69.0011 139.925L69.642 139.783C69.3613 138.507 69.1009 137.206 68.8717 135.918L68.226 136.033C68.4569 137.33 68.7177 138.639 69.0011 139.925ZM239.607 182.976C240.463 181.983 241.311 180.959 242.127 179.932L241.614 179.524C240.803 180.545 239.962 181.562 239.111 182.548L239.607 182.976ZM71.0209 147.594L71.6479 147.402C71.264 146.149 70.8999 144.874 70.5681 143.613L69.9338 143.779C70.2674 145.048 70.634 146.334 71.0209 147.594ZM234.209 188.751C235.142 187.829 236.071 186.876 236.967 185.917L236.488 185.47C235.598 186.422 234.675 187.368 233.748 188.284L234.209 188.751ZM73.6518 155.071L74.2608 154.829C73.7771 153.612 73.3135 152.372 72.8804 151.142L72.2614 151.358C72.6973 152.597 73.1651 153.846 73.6518 155.071ZM228.36 194.075C229.366 193.231 230.367 192.355 231.338 191.471L230.897 190.986C229.933 191.864 228.939 192.733 227.939 193.572L228.36 194.075ZM76.8727 162.309L77.4609 162.02C76.8816 160.847 76.3183 159.647 75.7883 158.456L75.1893 158.723C75.7223 159.922 76.2904 161.128 76.8727 162.309ZM222.102 198.917C223.174 198.153 224.244 197.359 225.28 196.558L224.878 196.039C223.849 196.836 222.787 197.624 221.722 198.382L222.102 198.917ZM80.662 169.264L81.2246 168.927C80.5559 167.808 79.8991 166.659 79.2737 165.511L78.6981 165.825C79.3279 166.98 79.9889 168.138 80.662 169.264ZM215.473 203.244C216.598 202.572 217.728 201.864 218.831 201.145L218.472 200.597C217.377 201.312 216.255 202.013 215.136 202.68L215.473 203.244ZM84.9927 175.89L85.5262 175.51C84.7687 174.447 84.0234 173.353 83.3093 172.261L82.7611 172.621C83.4796 173.72 84.2308 174.82 84.9927 175.89ZM208.516 207.028C209.695 206.447 210.878 205.834 212.033 205.206L211.719 204.63C210.572 205.254 209.397 205.864 208.226 206.441L208.516 207.028ZM89.8374 182.146L90.3401 181.724C89.5036 180.729 88.6711 179.7 87.8706 178.666L87.3529 179.068C88.1593 180.109 88.995 181.144 89.8374 182.146ZM201.275 210.246C202.5 209.761 203.73 209.243 204.928 208.71L204.662 208.111C203.472 208.64 202.25 209.155 201.034 209.637L201.275 210.246ZM95.165 187.992L95.6318 187.53C94.7181 186.605 93.8072 185.646 92.9271 184.681L92.443 185.122C93.3287 186.095 94.2443 187.06 95.165 187.992ZM193.797 212.872C195.059 212.485 196.326 212.069 197.564 211.634L197.346 211.015C196.117 211.447 194.859 211.861 193.605 212.245L193.797 212.872ZM100.942 193.388L101.369 192.891C100.381 192.039 99.3978 191.157 98.4473 190.27L97.9999 190.748C98.9575 191.642 99.9467 192.531 100.942 193.388ZM186.127 214.888C187.414 214.605 188.712 214.291 189.983 213.957L189.816 213.323C188.553 213.655 187.265 213.966 185.986 214.247L186.127 214.888ZM107.131 198.297L107.517 197.768C106.464 197 105.414 196.199 104.395 195.391L103.987 195.905C105.013 196.719 106.071 197.523 107.131 198.297ZM178.314 216.276C179.618 216.098 180.937 215.891 182.236 215.66L182.121 215.015C180.831 215.243 179.52 215.45 178.225 215.627L178.314 216.276ZM113.701 202.695L114.044 202.136C112.931 201.454 111.817 200.741 110.732 200.014L110.367 200.559C111.459 201.29 112.581 202.009 113.701 202.695ZM170.421 217.025C171.735 216.953 173.064 216.855 174.37 216.731L174.308 216.078C173.011 216.201 171.69 216.298 170.386 216.37L170.421 217.025ZM120.615 206.55L120.911 205.966C119.745 205.376 118.577 204.756 117.439 204.121L117.119 204.693C118.265 205.332 119.441 205.957 120.615 206.55ZM162.505 217.132C163.82 217.167 165.152 217.176 166.464 217.159L166.455 216.502C165.153 216.52 163.83 216.512 162.523 216.476L162.505 217.132ZM127.82 209.835L128.068 209.227C126.862 208.736 125.647 208.212 124.457 207.67L124.185 208.265C125.383 208.812 126.606 209.339 127.82 209.835C127.82 209.835 126.606 209.339 127.82 209.835ZM154.605 216.597C155.914 216.738 157.241 216.856 158.549 216.944L158.594 216.29C157.294 216.202 155.976 216.087 154.676 215.946L154.605 216.597ZM135.264 212.526L135.462 211.901C134.218 211.508 132.966 211.083 131.738 210.639L131.515 211.255C132.751 211.702 134.011 212.129 135.264 212.526ZM146.775 215.43C148.063 215.675 149.377 215.898 150.678 216.092L150.776 215.443C149.483 215.251 148.178 215.03 146.898 214.787L146.775 215.43ZM142.902 214.614L143.05 213.976C141.78 213.683 140.496 213.358 139.235 213.013L139.062 213.646C140.331 213.993 141.623 214.319 142.902 214.614Z" fill="#9DA0B6"/>
<path d="M100.338 53.791C85.0069 70.5123 75.3871 96.3477 74.4816 116.937C73.1269 147.276 83.2782 178.487 96.1891 197.373C96.9547 198.495 97.7566 199.658 98.597 200.856C99.752 202.502 100.98 204.213 102.285 205.962C105.816 210.698 109.912 215.722 114.672 220.56C129.059 235.183 149.504 248.099 178.711 246.162C190.38 245.388 201.476 242.495 211.516 236.92C220.327 232.027 228.325 225.068 235.184 215.662C241.043 207.627 246.07 197.808 250.063 185.965C263.17 146.856 259.06 61.2875 205.473 31.9855C174.096 14.8315 144.904 19.7136 121.087 35.737C116.894 38.5579 112.867 41.7238 109.025 45.1757C106.014 47.8815 103.115 50.7625 100.338 53.791Z" fill="#DDE9FC"/>
<path d="M486.385 417.061C486.385 417.061 487.997 422.426 478.873 427.255C469.75 432.084 467.067 450.33 477.799 455.696C488.531 461.062 491.751 468.04 486.385 472.868C481.019 477.697 471.362 490.578 484.239 493.798C497.117 497.018 498.729 503.455 494.971 506.138C491.214 508.821 503.557 501.309 503.557 501.309C503.557 501.309 505.703 514.19 516.972 510.97C528.241 507.75 559.902 446.576 543.804 437.99C527.707 429.404 486.385 417.061 486.385 417.061Z" fill="#2F2E41"/>
<path d="M505.837 468.874C505.837 468.874 511.403 488.359 501.661 489.749C495.615 490.69 489.888 493.075 484.962 496.705L503.054 520.363H536.451L557.326 499.488C557.326 499.488 529.492 478.617 535.058 466.091C540.624 453.566 505.837 468.874 505.837 468.874Z" fill="#FFB9B9"/>
<g opacity="0.1">
<path d="M505.837 468.874C505.837 468.874 511.403 488.359 501.661 489.749C495.615 490.69 489.888 493.075 484.962 496.705L503.054 520.363H536.451L557.326 499.488C557.326 499.488 529.492 478.617 535.058 466.091C540.624 453.566 505.837 468.874 505.837 468.874Z" fill="black"/>
</g>
<path d="M514.183 711.013L546.19 722.146L568.455 723.536L567.062 704.054L521.139 690.472L514.183 711.013Z" fill="#FFB9B9"/>
<path d="M555.238 706.837C555.238 706.837 555.238 726.319 558.021 726.319C560.804 726.319 598.377 722.146 609.51 726.319C620.642 730.495 637.341 715.186 628.992 706.837C620.642 698.488 607.024 685.962 598.526 688.745C590.028 691.528 555.238 698.488 555.238 698.488V706.837Z" fill="#2F2E41"/>
<path d="M452.955 688.748C452.955 688.748 436.256 722.146 447.389 724.929C458.521 727.712 471.047 723.539 472.437 722.146C473.827 720.756 493.311 715.189 496.094 717.972C498.878 720.756 498.878 706.84 498.878 706.84L452.955 688.748Z" fill="#2F2E41"/>
<path d="M466.867 642.826C466.867 642.826 440.429 679.006 459.911 688.748C479.393 698.491 572.628 698.491 579.587 688.748C586.547 679.006 589.33 648.392 579.587 645.609C569.845 642.826 466.867 642.826 466.867 642.826Z" fill="#2F2E41"/>
<g opacity="0.2">
<path d="M466.867 642.826C466.867 642.826 440.429 679.006 459.911 688.748C479.393 698.491 572.628 698.491 579.587 688.748C586.547 679.006 589.33 648.392 579.587 645.609C569.845 642.826 466.867 642.826 466.867 642.826Z" fill="black"/>
</g>
<path d="M516.966 414.605C534.631 414.605 548.973 428.948 548.973 446.613C548.973 464.277 534.631 478.62 516.966 478.62C499.301 478.62 484.959 464.277 484.959 446.613C484.959 428.948 499.301 414.605 516.966 414.605Z" fill="#FFB9B9"/>
<path d="M466.87 496.708L494.701 491.142C494.701 491.142 501.66 513.41 523.925 509.234C546.19 505.06 551.756 491.142 551.756 491.142C551.756 491.142 568.455 498.101 569.848 498.101C571.238 498.101 589.33 505.06 589.33 509.234C589.33 513.41 568.455 555.156 568.455 555.156L571.238 630.3L468.263 627.517L475.219 553.763L466.87 496.708Z" fill="#2375F0"/>
<path d="M451.561 532.891C451.561 532.891 443.212 606.645 448.778 612.211C454.345 617.778 476.612 633.086 476.612 633.086V616.388L465.48 595.513L476.612 546.807L451.561 532.891Z" fill="#FFB9B9"/>
<path d="M595.594 530.803C595.594 530.803 590.723 606.645 590.723 609.428C590.723 612.212 578.201 621.951 574.024 621.951C569.848 621.951 567.065 614.995 567.065 614.995L576.807 603.862L569.848 546.807L595.594 530.803Z" fill="#FFB9B9"/>
<path d="M582.37 637.26C582.37 637.26 644.989 602.469 646.382 637.26C647.772 672.05 614.378 685.963 614.378 685.963C614.378 685.963 528.098 711.836 524.62 702.379C521.142 692.922 514.183 677.616 519.749 676.223C525.315 674.833 532.275 672.047 535.058 674.83C537.841 677.613 572.628 653.958 572.628 653.958L582.37 637.26Z" fill="#2F2E41"/>
<g opacity="0.2">
<path d="M611.595 633.083C611.595 633.083 599.069 638.65 594.896 642.826C590.72 646.999 572.631 653.958 572.631 653.958" stroke="black" stroke-width="2"/>
</g>
<path d="M475.217 499.492L466.867 496.708C466.867 496.708 436.253 528.716 445.996 537.065C455.738 545.414 461.301 548.197 464.084 550.981C466.867 553.764 480.783 555.157 480.783 555.157L475.217 499.492Z" fill="#2375F0"/>
<path d="M576.808 506.451L589.333 509.234C589.333 509.234 599.072 530.109 601.856 532.892C604.639 535.675 597.679 534.282 593.506 539.848C589.333 545.414 585.157 555.157 576.808 555.157C568.458 555.157 557.326 541.241 557.326 541.241L576.808 506.451Z" fill="#2375F0"/>
<path d="M469.656 649.785C469.656 649.785 416.777 612.215 398.686 640.046C380.594 667.877 476.613 705.45 490.528 711.016C504.444 716.583 516.969 722.149 516.969 722.149C516.969 722.149 529.495 691.535 529.495 685.968C529.495 680.402 519.752 680.402 516.969 680.402C514.186 680.402 501.664 677.616 498.88 673.443C496.097 669.27 469.656 649.785 469.656 649.785Z" fill="#2F2E41"/>
<g opacity="0.2">
<path d="M440.429 640.043C440.429 640.043 454.345 651.175 466.87 653.958C479.396 656.741 483.569 663.701 483.569 663.701" stroke="black" stroke-width="2"/>
</g>
<path d="M460.05 587.719L461.164 646.641C461.24 650.693 464.57 653.922 468.621 653.876L578.267 652.644C582.143 652.602 585.324 649.564 585.548 645.694L588.877 588.005C588.993 585.977 588.271 583.992 586.877 582.517C585.484 581.042 583.545 580.205 581.515 580.205H467.426C465.444 580.205 463.55 581 462.163 582.414C460.776 583.828 460.014 585.74 460.05 587.719Z" fill="#575A89"/>
<path d="M518.678 406.405C518.678 406.405 520.463 412.35 510.356 417.701C500.249 423.052 497.278 443.262 509.166 449.207C521.054 455.153 524.624 462.877 518.678 468.228C512.732 473.579 502.031 487.846 516.299 491.412C530.566 494.978 532.351 502.114 528.19 505.085C524.029 508.056 537.702 499.734 537.702 499.734C537.702 499.734 540.078 514.002 552.561 510.436C565.044 506.87 577.503 442.033 563.587 425.334C550.649 409.807 518.678 406.405 518.678 406.405Z" fill="#2F2E41"/>
<path d="M514.881 400.289C514.884 391.579 540.939 397.837 552.111 409.998C559.847 418.42 571.596 431.089 561.75 440.018C551.905 448.947 578.628 460.656 585.794 464.203C592.959 467.751 607.112 478.605 594.334 485.886C581.557 493.167 581.766 500.52 586.574 502.259C591.381 503.999 575.972 499.671 575.972 499.671C575.972 499.671 577.529 514.054 564.546 513.984C551.562 513.914 514.313 442.564 523.212 422.73C531.485 404.289 514.881 400.289 514.881 400.289Z" fill="#2F2E41"/>
<path d="M520.526 398.377C485.681 396.28 482.185 422.508 482.185 422.508C482.425 437.687 506.529 430.29 513.224 432.554C521.3 426.745 536.867 415.749 548.002 407.904C539.92 402.213 530.399 398.911 520.526 398.377Z" fill="#2F2E41"/>
<path d="M458.736 462.704C458.069 412.302 406.364 345.285 406.364 345.285C406.364 345.285 393.435 320.107 346.225 294.152C345.712 293.869 344.738 293.335 343.758 292.804" stroke="#3F3D56"/>
<path d="M346.402 285.523L346.793 287.129L338.881 289.047L341.373 296.801L339.801 297.305L336.766 287.863L346.402 285.523Z" fill="#3F3D56"/>
<path d="M346.402 285.523L346.793 287.129L338.881 289.047L341.373 296.801L339.801 297.305L336.766 287.863L346.402 285.523Z" stroke="#3E3D54"/>
<path d="M127.922 555.161C157.522 609.212 247.943 653.928 247.943 653.928C247.943 653.928 275.387 674.199 337.724 676.993C338.401 677.024 339.687 677.08 340.977 677.129" stroke="#3F3D56"/>
<path d="M342.499 686.401L341.184 684.877L348.034 678.579L341.079 671.54L342.37 670.156L350.839 678.727L342.499 686.401Z" fill="#3F3D56"/>
<path d="M342.499 686.401L341.184 684.877L348.034 678.579L341.079 671.54L342.37 670.156L350.839 678.727L342.499 686.401Z" stroke="#3E3D54"/>
<path d="M197.934 252.817C197.934 252.817 133.319 276.42 101.394 321.19" stroke="#3F3D56"/>
<path d="M98.983 312.84L100.788 312.479L101.841 320.653L110.644 318.289L110.988 319.919L100.269 322.796L98.983 312.84Z" fill="#3F3D56"/>
<path d="M98.983 312.84L100.788 312.479L101.841 320.653L110.644 318.289L110.988 319.919L100.269 322.796L98.983 312.84Z" stroke="#3E3D54"/>
<path d="M263.752 219.736C271.29 219.736 277.41 223.136 277.41 227.324C277.41 231.512 271.29 234.911 263.752 234.911C256.215 234.911 250.095 231.512 250.095 227.324C250.095 223.136 256.215 219.736 263.752 219.736Z" fill="white"/>
<path d="M316.319 250.933C284.666 238.978 253.011 238.978 221.359 250.933V212.125C252.322 202.78 285.355 202.78 316.319 212.125V250.933Z" fill="#DDE9FC"/>
<path d="M303.107 242.906C280.263 234.277 257.418 234.277 234.574 242.906V214.896C256.92 208.152 280.76 208.152 303.107 214.896V242.906Z" fill="#90B9F7"/>
<path d="M266.787 216.701C274.325 216.701 280.445 219.421 280.445 222.771C280.445 226.121 274.325 228.841 266.787 228.841C259.25 228.841 253.13 226.121 253.13 222.771C253.13 219.421 259.25 216.701 266.787 216.701Z" fill="#2375F0"/>
<path d="M314.476 281.171C290.366 277.286 267.986 281.854 247.327 294.877L241.724 267.432C262.271 256.357 285.628 251.586 308.873 253.725L314.476 281.171Z" fill="#A3C5F8"/>
<path d="M274.191 261.346C281.781 259.797 288.61 261.802 289.43 265.82C290.25 269.839 284.753 274.359 277.163 275.908C269.572 277.458 262.743 275.453 261.923 271.434C261.103 267.416 266.6 262.895 274.191 261.346Z" fill="#2375F0"/>
<path d="M307.772 338.557C285.58 328.363 262.79 326.781 239.402 333.801L241.348 305.858C264.11 300.683 287.893 302.334 309.718 310.614L307.772 338.557Z" fill="#A3C5F8"/>
<path d="M259.74 315.117C260.025 311.026 266.531 308.141 274.259 308.679C281.988 309.216 288.031 312.975 287.747 317.066C287.462 321.158 280.956 324.043 273.228 323.505C265.499 322.967 259.456 319.209 259.74 315.117Z" fill="#2375F0"/>
<path d="M151.006 502.922C126.707 500.5 104.641 506.412 84.8079 520.659L77.5584 493.604C97.3983 481.306 120.426 475.136 143.757 475.866L151.006 502.922Z" fill="#90B9F7"/>
<path d="M109.142 487.011C116.422 485.06 123.038 486.103 123.905 489.339C124.772 492.575 119.564 496.786 112.284 498.737C105.003 500.688 98.3876 499.644 97.5205 496.409C96.6534 493.173 101.861 488.961 109.142 487.011Z" fill="#2375F0"/>
<path d="M131.73 470.205C107.907 464.84 85.2844 468.019 63.863 479.743L59.9648 452.005C81.1555 442.217 104.764 438.899 127.831 442.467L131.73 470.205Z" fill="#90B9F7"/>
<path d="M92.1162 449.31C99.5804 448.261 106.019 450.103 106.486 453.42C106.952 456.738 101.27 460.283 93.8058 461.332C86.3415 462.381 79.9026 460.539 79.4363 457.222C78.9701 453.905 84.6519 450.359 92.1162 449.31Z" fill="#2375F0"/>
<path d="M151.831 430.087C128.007 424.721 105.385 427.901 83.9639 439.625L80.0657 411.887C101.256 402.099 124.864 398.781 147.932 402.349L151.831 430.087Z" fill="#90B9F7"/>
<path d="M112.217 409.192C119.681 408.143 126.12 409.985 126.586 413.302C127.053 416.62 121.371 420.165 113.907 421.214C106.442 422.263 100.003 420.421 99.5372 417.104C99.071 413.786 104.753 410.241 112.217 409.192Z" fill="#2375F0"/>
<path d="M77.4824 444.653C53.4866 440.123 30.9892 444.089 9.99005 456.554L5.12615 428.969C25.9624 418.447 49.4402 414.308 72.6185 417.069L77.4824 444.653Z" fill="#90B9F7"/>
<path d="M37.164 425.154C44.5871 423.845 51.0864 425.461 51.6681 428.76C52.2499 432.059 46.6952 435.8 39.2721 437.109C31.8491 438.418 25.3498 436.802 24.768 433.503C24.1863 430.204 29.741 426.463 37.164 425.154Z" fill="#2375F0"/>
<path d="M117.699 395.897C93.3992 393.475 71.3331 399.388 51.5002 413.635L44.2507 386.579C64.0906 374.281 87.1182 368.111 110.449 368.841L117.699 395.897Z" fill="#90B9F7"/>
<path d="M75.8338 379.986C83.1145 378.035 89.7299 379.079 90.597 382.315C91.464 385.55 86.2566 389.762 78.9758 391.713C71.6951 393.663 65.0797 392.62 64.2126 389.384C63.3456 386.148 68.553 381.937 75.8338 379.986Z" fill="#2375F0"/>
<path d="M69.0625 381.049C46.218 372.421 23.3734 372.421 0.528931 381.049L0.528931 353.039C22.8757 346.295 46.7157 346.295 69.0625 353.039V381.049Z" fill="#90B9F7"/>
<path d="M32.7426 354.845C40.2802 354.845 46.4002 357.565 46.4002 360.915C46.4002 364.265 40.2802 366.985 32.7426 366.985C25.205 366.985 19.0851 364.265 19.0851 360.915C19.0851 357.565 25.205 354.845 32.7426 354.845Z" fill="#2375F0"/>
<path d="M500.11 726.982V728.654H361.616V726.982H500.11Z" fill="#9DA0B6"/>
<path d="M601.811 750.482V752.154H500.657V750.482H601.811Z" fill="#9DA0B6"/>
</svg>
