<svg width="526" height="511" viewBox="0 0 526 511" fill="none" xmlns="http://www.w3.org/2000/svg">
<path d="M436.129 366.936C419.202 320.866 377.7 295.735 334.56 277.789C311.978 268.397 288.968 259.438 268.255 246.248C261.905 242.204 255.801 237.762 250.142 232.793C235.304 219.758 221.402 202.365 214.073 183.889C209.784 173.078 204.023 163.623 195.685 155.368C179.526 139.369 157.129 129.953 134.452 129.042C96.3664 127.508 60.8179 149.799 38.2335 179.209C10.6044 215.193 1.31209 261.948 0.118965 306.393C-1.09361 351.528 6.78204 398.325 32.1002 436.536C56.5922 473.499 93.0106 493.982 136.097 501.935C187.474 511.419 241.27 512.25 293.209 507.738C333.102 504.275 378.963 499.724 410.964 473.028C441.626 447.445 449.596 403.59 436.129 366.936Z" fill="black"/>
<path d="M345.378 497.226C298.941 506.593 250.103 508.197 202.907 505.675C158.577 503.303 108.856 499.639 71.5633 472.996C36.6418 448.047 16.1374 407.821 8.12815 366.411C-0.306383 322.805 1.72752 274.319 15.2869 231.947C29.2594 188.292 60.8567 147.896 106.776 135.758C126.865 130.449 148.75 132.344 167.752 140.684C186.539 148.931 203.291 164.189 210.377 183.782C214.158 194.234 220.051 203.779 226.682 212.646C233.229 221.399 240.32 229.923 248.635 237.058C263.754 250.022 281.741 259.171 299.816 267.258C318.602 275.661 337.886 282.934 356.442 291.857C371.012 298.865 385.308 306.942 397.455 317.717C428.535 345.275 447.166 387.472 435.412 428.838C423.593 470.435 384.812 489.272 345.378 497.226Z" fill="white"/>
<path d="M397.456 317.717C385.306 306.942 371.015 298.865 356.444 291.857C337.889 282.936 318.604 275.661 299.818 267.258C281.744 259.171 263.755 250.022 248.635 237.058C240.317 229.923 233.229 221.399 226.682 212.646C220.051 203.779 214.161 194.234 210.38 183.782C209.668 181.812 208.832 179.899 207.93 178.016C200.091 172.488 191.647 168.097 182.578 166.021C170.027 160.445 155.931 163.144 144.859 171.397C129.883 182.553 123.621 200.996 119.933 218.573C111.59 258.357 112.968 299.936 134.364 335.492C153.977 368.088 186.925 391.008 224.303 398.121C246.21 402.288 267.842 400.152 289.425 395.231C303.786 391.958 318.007 387.915 332.424 385.203C332.541 385.251 332.63 385.319 332.771 385.346C370.05 392.315 384.883 436.665 359.387 464.724C335.918 490.553 297.041 491.452 264.7 492.295C227.156 493.272 190.145 489.855 153.352 484.417C153.085 483.934 152.623 483.557 151.921 483.523C149.229 483.394 146.546 483.212 143.87 482.988C131.285 481.01 118.725 478.814 106.174 476.5C86.0753 471.229 66.7812 463.15 48.8137 452.467C55.5837 460.061 63.1434 466.982 71.5634 472.996C108.857 499.639 158.579 503.303 202.91 505.675C250.105 508.197 298.941 506.596 345.378 497.226C384.812 489.272 423.593 470.435 435.415 428.838C447.169 387.472 428.535 345.275 397.456 317.717Z" fill="#D5DEDD"/>
<path d="M399.468 247.532C400.747 246.156 401.775 244.598 402.328 242.822C403.543 238.894 402.232 234.679 398.907 232.498C399.782 230.861 400.354 229.103 400.458 227.274C400.642 224.114 398.953 221.28 396.331 220.116C406.08 215.363 417.035 207.971 412.684 200.198C410.161 195.692 404.478 196.662 400.588 198.385C391.526 202.393 382.866 207.87 374.135 212.562C373.738 212.774 373.528 213.071 373.4 213.39C370.21 212.671 366.77 212.885 363.564 214.008C356.347 216.539 351.923 222.925 349.645 229.93C326.809 238.979 301.644 244.756 277.496 237.327C253.087 229.819 233.599 207.469 237.642 180.86C237.698 180.487 237.644 180.158 237.522 179.872C237.78 178.723 236.878 177.271 235.373 177.648C212.638 183.353 190.538 196.269 182.454 219.51C174.48 242.442 186.605 264.417 203.563 279.591C240.677 312.79 296.462 312.644 334.373 281.369L353.262 268.728C357.677 265.772 360.153 264.285 365.455 264.672C369.241 264.95 372.571 265.264 376.4 264.777C376.44 264.771 376.472 264.758 376.508 264.749C378.368 265.576 380.446 265.988 382.471 265.984C391.548 265.966 405.719 257.934 399.468 247.532Z" fill="black"/>
<path d="M389.24 241.581C391.955 240.183 394.781 238.044 396.923 235.441C403.801 239.417 395.048 247.237 390.782 249.363C387.988 250.756 384.778 251.841 381.617 251.154C377.875 250.341 375.341 247.039 376.588 243.618C380.697 244.82 385.653 243.427 389.24 241.581Z" fill="white"/>
<path d="M395.052 231.89C393.64 234.125 391.281 236.235 389.054 237.614C387.084 238.833 384.888 239.766 382.608 240.203C381.754 240.297 380.903 240.391 380.053 240.485C376.81 240.768 375.158 238.974 375.058 235.152C377.36 236.239 379.896 236.24 382.418 234.04C385.076 231.722 385.582 228.225 384.888 224.906C384.899 224.903 384.911 224.908 384.923 224.902C386.356 224.398 388.63 223.544 391.279 222.42C391.532 222.927 392.035 223.268 392.803 223.158C400.052 222.136 396.154 230.147 395.052 231.89Z" fill="white"/>
<path d="M389.34 208.42C393.064 206.418 398.366 203.208 402.215 201.615C405.89 200.094 411.254 202.064 407.352 208.042C407.006 208.572 406.398 208.877 405.919 209.296C404.496 211.094 400.669 213.259 398.576 214.569C393.968 217.456 389.085 219.672 383.961 221.484C383.885 221.509 383.843 221.56 383.777 221.594C383.297 220.569 382.718 219.615 382.07 218.79C380.743 217.106 379.134 215.806 377.359 214.856C381.352 212.712 385.348 210.564 389.34 208.42Z" fill="white"/>
<path d="M184.735 224.27C190.729 200.919 212.114 187.684 234.017 181.679C231.686 201.352 241.176 219.506 256.558 230.86C241.62 247.584 226.682 264.309 211.743 281.035C211.605 281.192 211.536 281.355 211.459 281.521C211.132 281.269 210.794 281.031 210.472 280.773C193.54 267.398 178.944 246.841 184.735 224.27Z" fill="white"/>
<path d="M368.695 261.443C366.547 261.247 363.246 259.596 361.222 259.824C352.627 260.79 341.409 272.641 334.564 277.365C314.87 290.955 295.081 300.91 270.721 301.184C250.563 301.416 230.616 295.234 214.216 283.568C214.243 283.54 214.27 283.532 214.299 283.503C229.369 266.626 244.44 249.757 259.513 232.883C262.268 234.679 265.17 236.285 268.216 237.636C295.203 249.586 325.04 243.595 351.385 233.046C352.059 232.775 352.392 232.238 352.504 231.663C352.743 231.462 352.955 231.214 353.072 230.848C355.534 223.222 361.519 216.287 370.16 216.48C374.188 216.569 378.115 218.754 380.171 222.249C381.629 224.724 383.99 233.96 375.495 231.527C373.395 230.924 371.52 226.985 370.577 225.237C369.488 223.219 366.435 225.038 367.52 227.045C368.503 228.865 369.954 230.996 371.694 232.71C369.886 235.751 370.516 239.572 373.402 241.943C372.195 244.662 372.484 247.77 374.102 250.247C371.065 252.283 369.667 255.97 371.243 259.661C371.541 260.361 371.936 260.976 372.374 261.554C371.179 261.589 369.986 261.562 368.695 261.443Z" fill="white"/>
<path d="M387.855 261.647C385.393 262.32 382.588 262.742 380.047 262.235C376.564 261.539 370.148 255.485 376.649 252.808C376.652 252.808 376.654 252.803 376.657 252.803C380.811 255.696 386.27 255.161 390.759 253.27C392.721 252.445 394.798 251.34 396.678 249.973C399.147 255.603 393.049 260.224 387.855 261.647Z" fill="white"/>
<path d="M281.901 338.103C278.75 328.115 273.399 319.025 268.842 309.652C261.827 295.218 258.561 280.402 257.254 264.459C255.123 238.473 256.965 210.965 245.383 186.818C241.179 178.051 234.89 170.265 227.083 164.447C215.538 155.845 201.415 150.81 187.277 148.57C182.932 147.885 178.476 148.111 174.199 149.097C165.458 151.109 157.497 156.207 151.704 163.016C138.07 179.042 134.233 201.962 131.756 222.184C126.046 268.869 133.299 321.834 157.33 362.923C167.959 381.099 183.389 392.391 204.411 395.407C224.223 398.25 248.664 398.619 266.208 387.594C283.799 376.538 287.942 357.244 281.901 338.103Z" fill="black"/>
<path d="M277.943 370.193C267.853 390.513 242.343 393.419 222.279 393.118C201.488 392.804 181.601 388.722 167.786 371.95C155.126 356.573 148.023 336.076 142.657 317.173C136.949 297.05 133.89 276.201 133.557 255.291C133.202 233.02 135.38 209.794 142.239 188.507C147.685 171.599 162.737 149.466 183.037 151.238C189.313 151.785 195.413 153.639 201.303 155.799C206.79 157.809 212.578 159.677 217.776 162.358C250.224 179.091 251.315 219.742 252.904 251.444C253.84 270.077 255.55 288.603 263.159 305.866C271.746 325.347 288.861 348.202 277.943 370.193Z" fill="white"/>
<path d="M496.677 429.925C472.642 420.506 445.899 424.202 424.644 438.522C423.633 439.203 423.682 440.403 424.233 441.171C418.377 449.409 412.217 459.722 416.885 469.942C420.659 478.207 429.482 479.655 437.691 479.441C452.081 479.067 466.664 476.902 480.84 474.494C492.662 472.486 508.353 471.344 518.892 465.15C539.632 452.961 506.858 433.915 496.677 429.925Z" fill="black"/>
<path d="M519.541 460.336C518.119 462.706 512.997 463.877 510.785 464.533C492.41 469.974 472.615 472.707 453.615 474.627C445.756 475.419 436.104 477.402 428.328 475.169C410.703 470.102 421.643 450.786 428.129 441.805C428.501 441.29 428.523 440.787 428.35 440.359C443.576 430.695 461.481 426.275 479.472 428.999C488.658 430.389 497.527 433.463 505.571 438.131C509.218 440.247 513.833 442.724 516.52 445.99C518.566 448.473 521.249 457.496 519.541 460.336Z" fill="white"/>
<path d="M417.228 288.752C364.655 262.466 305.65 285.099 255.521 305.689C253.742 306.42 254.151 309.023 255.621 309.232C251.922 323.86 261.302 337.736 274.606 343.781C294.836 352.972 317.331 345.774 338.515 347.742C387.689 352.316 413.646 400.408 428.386 441.961C427.329 442.899 427.679 445.1 429.492 445.081C447.45 444.908 464.426 440.08 479.774 430.756C479.81 430.737 479.825 430.703 479.859 430.678C480.022 430.579 480.158 430.45 480.277 430.292C480.306 430.253 480.34 430.219 480.364 430.178C480.439 430.054 480.491 429.92 480.532 429.767C480.561 429.658 480.58 429.553 480.59 429.439C480.595 429.376 480.624 429.33 480.622 429.259C479.701 376.922 469.125 314.702 417.228 288.752Z" fill="black"/>
<path d="M431.956 441.429C419.498 406.091 401.462 369.428 366.227 352.109C348.245 343.269 330.402 343.718 310.86 344.739C299.99 345.305 288.593 345.473 278.273 341.492C265.122 336.421 254.933 323.306 259.375 308.84C259.482 308.493 259.46 308.192 259.387 307.915C307.083 288.375 362.633 267.285 412.825 290.564C465.254 314.881 476.01 376.324 477.047 428.238C463.133 436.491 448.069 440.872 431.956 441.429Z" fill="#3376B2"/>
<path d="M461.272 449.941C437.236 440.522 410.494 444.218 389.242 458.538C388.228 459.219 388.277 460.419 388.828 461.187C382.972 469.425 376.812 479.733 381.48 489.956C385.254 498.22 394.077 499.671 402.286 499.457C416.676 499.08 431.259 496.918 445.435 494.51C457.257 492.5 472.948 491.355 483.487 485.161C504.227 472.975 471.453 453.931 461.272 449.941Z" fill="black"/>
<path d="M484.136 480.352C482.714 482.719 477.592 483.895 475.38 484.549C457.007 489.99 437.21 492.726 418.21 494.643C410.351 495.438 400.699 497.418 392.923 495.187C375.298 490.121 386.238 470.805 392.724 461.821C393.096 461.308 393.12 460.803 392.945 460.378C408.171 450.714 426.076 446.293 444.067 449.017C453.253 450.407 462.122 453.481 470.166 458.149C473.813 460.266 478.428 462.74 481.115 466.008C483.161 468.491 485.844 477.512 484.136 480.352Z" fill="white"/>
<path d="M452.796 445.317C453.591 438.629 450.419 430.323 449.652 423.988C448.444 414.006 447.158 404.031 445.384 394.133C441.885 374.606 436.352 355.29 426.321 338.047C418.059 323.846 406.573 311.069 392.401 302.564C353.373 278.305 308.461 289.036 268.133 305.822C266.636 303.805 262.522 295.879 259.674 295.838C259.166 295.83 258.68 296.022 258.211 296.224C240.263 303.808 223.217 313.258 204.987 320.364C194.565 324.426 184.016 328.152 173.356 331.537C168.027 333.228 162.669 334.834 157.289 336.355C154.659 337.101 151.724 337.548 149.197 338.574C145.712 339.986 147.476 344.498 148.307 347.106C154.924 367.933 167.874 385.419 187.778 395.135C211.708 406.811 239.488 406.56 264.962 400.767C279.654 397.426 293.842 392.255 307.803 386.644C321.627 381.087 339.023 372.83 353.071 382.112C365.634 390.416 370.725 409.984 374.706 423.493C377.413 432.666 379.442 442.036 380.827 451.501C381.558 456.485 382.11 461.493 382.494 466.516C382.863 471.298 382.064 474.892 387.993 475.293C395.334 475.791 402.932 473.68 409.95 471.782C417.865 469.643 425.5 466.484 432.632 462.441C436.289 460.366 439.817 458.057 443.185 455.537C445.941 453.477 451.209 451.316 452.293 447.759C452.534 446.976 452.694 446.16 452.796 445.317Z" fill="black"/>
<path d="M365.855 391.502C351.083 366.244 326.071 375.61 303.859 384.421C274.113 396.219 241.468 405.829 209.341 398.792C180.68 392.513 155.532 371.782 151.325 341.65C188.723 331.627 224.816 317.564 259.135 299.619L264.784 307.234C254.335 311.693 244.214 316.505 234.616 321.163C232.56 322.162 234.358 325.226 236.407 324.227C282.64 301.786 341.487 275.098 390.607 305.631C437.54 334.81 444.123 395.524 448.483 445.368C448.512 445.71 448.633 445.982 448.794 446.223C431.643 462.154 409.739 471.041 386.36 471.597C384.95 444.729 379.565 414.942 365.855 391.502Z" fill="#3376B2"/>
<path d="M163.807 165.816C151.343 168.029 130.084 182.392 134.392 229.826C138.699 277.26 167.977 322.768 192.648 332.6C217.319 342.432 237.425 333.839 255.176 319.035C272.927 304.231 295.31 263.59 295.31 263.59C295.31 263.59 291.136 273.319 301.397 266.519C311.658 259.718 294.411 250.806 297.822 252.874C304.984 257.216 306.542 265.831 311.213 265.228C315.912 264.599 316.11 259.144 315.684 256.151C315.258 253.157 304.515 242.133 304.515 242.133C304.515 242.133 313.962 254.168 318.258 256.846C322.554 259.523 326.219 258.56 326.269 252.519C326.65 245.741 311.664 236.136 311.664 236.136C311.664 236.136 322.052 245.967 329.329 244.954C336.475 243.992 333.229 239.77 332.195 237.787C331.161 235.804 320.755 226.73 314.731 225.332C308.706 223.934 285.793 222.75 264.653 244.113C243.514 265.475 237.04 267.086 230.041 267.205C223.042 267.324 211.01 265.528 203.916 230.644C191.777 170.954 176.271 163.604 163.807 165.816Z" fill="white"/>
<path d="M163.807 165.816C151.343 168.029 130.084 182.392 134.392 229.826C138.699 277.26 167.977 322.768 192.648 332.6C217.319 342.432 237.425 333.839 255.176 319.035C272.927 304.231 295.31 263.59 295.31 263.59C295.31 263.59 291.136 273.319 301.397 266.519C311.658 259.718 294.411 250.806 297.822 252.874C304.984 257.216 306.542 265.831 311.213 265.228C315.912 264.599 316.11 259.144 315.684 256.151C315.258 253.157 304.515 242.133 304.515 242.133C304.515 242.133 313.962 254.168 318.258 256.846C322.554 259.523 326.219 258.56 326.269 252.519C326.65 245.741 311.664 236.136 311.664 236.136C311.664 236.136 322.052 245.967 329.329 244.954C336.475 243.992 333.229 239.77 332.195 237.787C331.161 235.804 320.755 226.73 314.731 225.332C308.706 223.934 285.793 222.75 264.653 244.113C243.514 265.475 237.04 267.086 230.041 267.205C223.042 267.324 211.01 265.528 203.916 230.644C191.777 170.954 176.271 163.604 163.807 165.816Z" stroke="black" stroke-width="4"/>
<path d="M179.369 169.302C176.003 167.305 158.879 155.399 140.875 184.709C120.859 217.296 148.007 280.602 148.007 280.602C148.007 280.602 209.614 251.277 208.734 249.315C207.175 245.841 194.524 178.296 179.369 169.302Z" stroke="black" stroke-width="3"/>
<path d="M408.075 289.348C409.935 289.303 411.852 289.12 413.209 288.219C414.803 287.16 415.63 283.962 415.856 282.178C416.17 279.705 416.025 275.823 412.976 275.622C407.137 275.236 400.849 276.063 394.98 276.293C382.345 276.785 369.721 277.434 357.094 278.041C352.299 278.269 347.502 278.493 342.705 278.699L309.045 280.154C303.376 280.397 297.71 280.642 292.042 280.887C289.266 281.006 286.49 281.127 283.714 281.246C281.922 281.325 277.993 280.766 276.498 281.935C274.144 283.768 274.189 286.637 275.266 289.181C276.229 291.464 277.693 293.995 280.003 295.234C282.987 296.835 286.596 295.457 289.756 295.295L302.737 294.633C311.393 294.191 320.048 293.749 328.702 293.307C346.013 292.423 363.322 291.539 380.631 290.655C385.478 290.409 390.323 290.16 395.17 289.914C398.391 289.75 401.611 289.6 404.829 289.407C405.793 289.349 406.922 289.375 408.075 289.348Z" fill="black"/>
<path d="M341.097 289.118C330.4 289.664 319.701 290.178 309.004 290.717C303.596 290.99 298.19 291.27 292.786 291.563C290.141 291.707 287.496 291.848 284.853 291.996C282.704 292.12 280.579 291.761 279.419 289.77C278.893 288.864 278.259 287.354 278.237 286.308C278.183 283.759 288.45 284.595 290.206 284.516C295.983 284.268 301.761 284.02 307.539 283.774C319.094 283.273 330.652 282.774 342.205 282.273C354.044 281.765 365.883 281.278 377.723 280.776C383.642 280.523 389.563 280.268 395.481 280.005C398.504 279.871 401.527 279.735 404.55 279.595C406.248 279.517 412.719 277.732 412.469 280.741C412.347 282.202 412.321 284.374 410.974 285.308C409.324 286.452 406.806 286.041 404.927 285.999C402.268 285.939 399.599 286.157 396.94 286.28C390.652 286.578 384.362 286.889 378.073 287.21C365.747 287.835 353.423 288.49 341.097 289.118Z" fill="white"/>
<path d="M439.626 175.866C439.009 175.626 438.327 175.591 437.664 175.569C413.818 174.801 390.011 173.133 366.212 171.467C363.081 171.25 357.634 169.726 354.937 172.076C352.872 173.874 353.366 177.269 353.123 179.727C352.72 183.757 352.389 187.795 352.02 191.828C351.284 199.889 350.546 207.952 349.808 216.015C348.356 231.916 346.908 247.82 345.502 263.727C344.854 271.051 343.683 279.556 351.233 283.637C359.495 288.099 372.893 285.077 381.656 284.767C392.963 284.368 406.23 285.864 417.176 282.607C425.625 280.094 429.429 273.385 430.956 264.986C433.687 249.961 435.53 234.785 437.125 219.593C437.913 212.105 438.638 204.606 439.382 197.112C439.752 193.366 440.129 189.623 440.518 185.876C440.78 183.361 443.01 177.436 439.795 175.939C439.74 175.911 439.683 175.888 439.626 175.866Z" fill="black"/>
<path d="M421.046 276.526C412.882 282.768 397.827 280.645 388.05 280.992C378.112 281.341 366.539 283.424 356.714 281.617C343.426 279.172 349.977 253.405 350.86 243.663C351.867 232.536 353.022 221.393 354.097 210.288C354.96 201.361 354.948 192.288 355.309 183.328C355.448 179.859 355.921 175.902 359.529 174.388C361.795 173.437 364.367 173.901 366.789 174.318C377.371 176.139 388.116 176.437 398.809 177.119C407.255 177.657 415.726 177.595 424.173 178.142C428.227 178.404 434.572 176.246 437.373 180.608C440.017 184.72 437.14 191.084 436.491 195.407C433.965 212.16 431.946 228.938 429.864 245.76C428.713 255.468 429.407 270.135 421.046 276.526Z" fill="white"/>
<path d="M437.385 180.609C434.584 176.247 428.236 178.406 424.182 178.142C415.733 177.597 407.264 177.658 398.818 177.119C388.126 176.439 377.383 176.14 366.798 174.318C365.838 174.154 364.85 173.984 363.869 173.894C359.093 204.366 356.38 235.207 356.244 266.074C356.21 273.933 357.634 279.087 362.479 282.23C370.884 282.665 380.002 281.275 388.059 280.991C397.836 280.646 412.892 282.77 421.056 276.528C429.416 270.136 428.719 255.467 429.873 245.76C431.955 228.938 433.974 212.162 436.498 195.406C437.149 191.083 440.027 184.721 437.385 180.609Z" fill="#D5DEDD"/>
<path d="M281.035 132.017C277.11 125.62 265.728 123.709 259.802 127.51C253.835 131.339 251.247 139.218 254.695 145.571C258.269 152.155 266.415 154.582 273.16 151.608C279.186 148.95 283.911 140.942 282.063 134.357C281.828 133.52 281.48 132.74 281.035 132.017Z" fill="black"/>
<path d="M274.247 146.843C269.478 150.534 262.52 150.138 258.728 145.248C255.232 140.74 256.507 134.443 260.932 131.045C263.428 129.126 266.627 128.532 269.691 129.116C278.738 130.844 282.193 140.694 274.247 146.843Z" fill="white"/>
<path d="M296.088 80.9222C295.381 60.008 281.507 43.0496 261.465 37.3962C241.775 31.8399 221.325 39.1807 207.309 53.5325C188.012 73.2905 184.444 102.234 190.74 128.182C188.181 138.635 178.367 146.979 181.188 158.477C183.29 167.042 190.662 172.625 197.91 176.779C204.082 180.313 214.261 186.655 220.618 179.944C223.072 177.352 223.553 173.369 224.344 170.075C225.544 165.091 226.713 160.095 227.889 155.106C242.971 162.253 261.067 155.485 272.285 143.209C286.734 127.395 296.816 102.412 296.088 80.9222Z" fill="black"/>
<path d="M284.223 117.183C277.522 132.276 265.114 149.683 248.32 154.206C244.957 155.113 241.44 155.386 237.985 154.891C235.649 154.553 233.452 153.681 231.276 152.804C228.845 151.822 226.671 150.17 225.282 153.309C222.561 159.458 223.36 166.563 220.098 172.675C213.586 184.876 199.609 174.865 192.534 169.002C184.628 162.449 182.413 153.826 186.942 144.633C189.317 139.813 191.894 135.208 193.962 130.235C194.191 129.683 194.422 129.116 194.461 128.519C194.603 126.326 193.265 123.346 192.879 121.124C192.407 118.395 192.044 115.648 191.805 112.889C191.323 107.397 191.32 101.859 191.867 96.3732C192.948 85.5329 196.243 74.8689 202.142 65.6632C204.741 61.6073 207.825 57.8655 211.307 54.5325C228.848 37.7491 255.893 33.3628 276.008 48.4214C298.355 65.1521 294.231 94.6368 284.223 117.183Z" fill="white"/>
<path d="M276.008 48.4215C255.894 33.3605 228.848 37.7468 211.304 54.5323C207.825 57.8632 204.744 61.6052 202.142 65.6633C196.245 74.8693 192.95 85.5333 191.869 96.3736C191.746 97.5949 191.662 98.8184 191.595 100.044C196.064 102.463 200.891 104.332 205.686 105.873C205.682 107.04 206.74 108.215 208.091 107.561C225.519 99.1563 240.553 87.2993 252.805 72.3711C265.392 80.7056 277.806 89.6088 290.688 97.5094C294.497 79.4488 292.236 60.5719 276.008 48.4215Z" fill="#D5DEDD"/>
<path d="M229.648 152.088C226.43 150.121 223.212 148.156 219.994 146.192C217.334 144.565 212.384 140.072 208.879 141.02C202.827 142.657 205.571 154.285 207.045 158.151C209.292 164.035 214.147 169.998 220.279 172.276C223.303 166.253 222.621 159.326 225.284 153.31C226.352 150.892 227.889 151.316 229.648 152.088Z" fill="#D5DEDD"/>
<path d="M307.02 73.3846L314.358 65.9615C317.257 63.0295 322.834 59.2241 323.079 54.6491C323.44 47.902 314.821 47.774 308.566 48.6708C312.666 44.6474 318.263 38.6876 313.713 34.7675C311.2 32.6008 306.953 32.9117 303.897 32.916C300.863 32.9229 297.864 33.2206 294.893 33.7127C299.058 28.4829 304.576 20.6259 298.772 17.7294C295.355 16.027 289.891 18.2229 286.598 19.0966C282.693 20.1327 278.889 21.4503 275.159 22.973C278.539 17.6542 281.795 10.6627 273.854 10.3316C268.715 10.1167 262.367 12.7992 257.554 14.4581C251.661 16.4865 246.027 19.0851 240.569 22.0604C240.539 18.8201 240.509 15.5773 240.48 12.3373C240.468 11.0015 238.882 9.52627 237.628 10.7214C221.856 25.7438 202.795 38.8151 192.57 58.6391C183.439 76.3377 184.366 97.1025 194.296 114.23C194.89 115.256 196.07 115.357 196.894 114.946C197.107 114.928 197.332 114.868 197.568 114.745C219.749 103.082 237.122 84.9293 247.768 62.295C264.85 68.5128 280.207 77.8092 293.634 90.0833C293.746 90.1876 293.864 90.2682 293.978 90.3336C294.415 90.8622 295.115 91.144 295.931 90.7595C301.033 88.3624 306.136 85.9653 311.239 83.5683C313.738 82.394 319.316 81.1105 320.118 77.9135C321.453 72.5836 312.752 72.8594 307.02 73.3846Z" fill="black"/>
<path d="M311.363 79.588C306.083 82.0687 300.804 84.5493 295.525 87.0299C281.659 74.418 265.796 64.915 248.134 58.6334C247.827 58.5246 247.542 58.5141 247.277 58.5527C246.5 58.3422 245.602 58.5575 245.176 59.4943C235.083 81.7386 218.227 99.7226 196.681 111.196C187.125 93.4579 187.612 72.7199 198.44 55.5014C208.306 39.8101 223.49 28.5665 236.993 16.1544L237.068 24.4607C236.519 25.8378 237.705 27.707 239.277 26.8032C245.563 23.1853 252.095 20.075 258.962 17.7208C262.272 16.5873 266.559 14.6115 270.12 14.564C270.906 14.3986 271.693 14.2332 272.482 14.0681C273.902 16.5414 273.872 18.6775 272.391 20.4762C271.674 22.2808 269.928 24.304 268.899 25.9037C267.786 27.6302 269.971 29.5315 271.318 28.4703C271.395 28.4454 271.467 28.4543 271.548 28.4152C277.733 25.5194 284.134 23.1961 290.807 21.7067C291.62 21.525 293.754 20.6927 294.532 20.9572C298.927 22.454 295.989 25.3789 294.879 26.9685C292.921 29.7713 290.964 32.5742 289.004 35.3767C288.939 35.4618 288.871 35.5415 288.822 35.636C288.817 35.6402 288.814 35.6472 288.811 35.6517C287.566 37.4354 290.053 39.4349 291.426 38.0024C296.755 36.7667 302.222 36.1354 307.697 36.5873C309.52 36.7353 309.633 36.4505 310.437 38.4172C311.347 40.6541 310.469 40.8278 309.04 42.4591C306.999 44.7841 304.927 47.0783 302.871 49.3892C302.459 49.8527 302.374 50.3466 302.489 50.7867C302.031 51.9864 302.708 53.5679 304.25 53.1525C307.446 52.289 312.205 50.9979 315.487 52.0595C322.667 54.3831 315.415 59.8851 313.117 62.2079L298.064 77.4337C296.457 79.0578 299.302 81.1895 300.89 79.585C301.642 78.8229 302.396 78.0635 303.148 77.3014C303.173 77.302 303.191 77.3116 303.218 77.3124C306.308 77.2119 309.397 77.0943 312.487 77.0086C318.953 76.8305 314.109 78.2971 311.363 79.588Z" fill="black"/>
<path d="M204.296 104.289C200.456 97.8417 188.989 95.9808 183.062 99.7848C177.096 103.611 174.508 111.49 177.956 117.843C181.528 124.429 188.529 127.761 195.275 124.787C201.303 122.129 205.289 113.47 205.324 106.629C205.326 106.215 204.946 105.383 204.296 104.289Z" fill="black"/>
<path d="M204.317 121.929C199.55 125.618 185.781 122.41 181.989 117.52C178.493 113.015 179.769 106.713 184.194 103.315C186.691 101.396 190.021 100.318 192.95 101.391C204.423 105.588 212.262 115.78 204.317 121.929Z" fill="white"/>
<path d="M265.245 116.799C264.074 119.934 261.448 127.661 257.397 127.751C255.122 127.8 255.655 131.315 257.916 131.264C263.692 131.136 266.861 122.614 268.528 118.152C269.327 116.013 266.044 114.655 265.245 116.799Z" fill="black"/>
<path d="M252.136 131.563C251.253 129.94 249.019 128.395 248.171 127.725C245.9 125.923 242.965 122.885 239.993 124.655C235.693 127.214 238.927 129.729 243.042 133.206C245.686 135.438 247.193 136.967 250.09 135.359C252.121 134.233 252.559 132.223 252.136 131.563Z" fill="black"/>
<path d="M240.949 401.492C219.93 361.04 179.845 332.633 134.683 326.32C133.876 326.208 133.247 326.587 132.863 327.122C131.986 326.823 130.858 327.085 130.455 328.208C120.101 356.879 135.164 386.338 159.955 401.737C173.602 410.211 189.497 414.398 205.416 415.659C217.262 416.599 235.761 418.249 239.997 403.985C240.872 403.599 241.523 402.593 240.949 401.492Z" fill="black"/>
<path d="M242.706 435.22C230.984 432.662 151.205 419.311 141.441 412.276C120.57 397.235 125.553 309.968 133.684 329.729C133.706 329.732 133.716 329.741 133.738 329.746C177.519 335.865 219.15 365.049 239.997 403.988C239.863 404.165 254.3 437.752 242.706 435.22Z" fill="white"/>
<path d="M329.399 363.793C287.054 346.909 238.15 351.604 199.838 376.339C199.156 376.779 198.927 377.479 198.986 378.135C198.125 378.482 197.445 379.418 197.87 380.528C208.771 408.998 239.423 421.454 268.25 416.903C284.118 414.402 298.885 407.188 311.759 397.74C321.339 390.708 336.424 379.87 330.31 366.305C330.718 365.44 330.551 364.25 329.399 363.793Z" fill="black"/>
<path d="M352.773 388.175C342.227 393.898 273.11 435.93 261.123 436.984C235.494 439.239 182.243 369.924 201.311 379.566C201.328 379.556 201.343 379.558 201.36 379.546C238.5 355.567 289.085 350.452 330.31 366.305C330.322 366.524 363.203 382.518 352.773 388.175Z" fill="white"/>
<path d="M254.421 108.721C255.893 109.804 255.911 112.285 254.46 114.258C253.008 116.231 250.634 116.953 249.162 115.87C247.689 114.786 247.672 112.305 249.123 110.332C250.574 108.359 252.948 107.637 254.421 108.721Z" fill="black"/>
<path d="M254.421 108.721C255.893 109.804 255.911 112.285 254.46 114.258C253.008 116.231 250.634 116.953 249.162 115.87C247.689 114.786 247.672 112.305 249.123 110.332C250.574 108.359 252.948 107.637 254.421 108.721Z" stroke="black" stroke-width="3"/>
<path d="M277.001 118.671C278.473 119.755 278.491 122.236 277.04 124.209C275.588 126.181 273.214 126.904 271.742 125.82C270.269 124.737 270.252 122.256 271.703 120.283C273.154 118.31 275.528 117.588 277.001 118.671Z" fill="black"/>
<path d="M277.001 118.671C278.473 119.755 278.491 122.236 277.04 124.209C275.588 126.181 273.214 126.904 271.742 125.82C270.269 124.737 270.252 122.256 271.703 120.283C273.154 118.31 275.528 117.588 277.001 118.671Z" stroke="black" stroke-width="3"/>
<path d="M248.287 101.349C249.406 102.494 250.925 107.282 255.3 109.839C258.774 111.842 262.165 109.35 264.12 109.842" fill="white"/>
<path d="M273.488 111.496C273.488 111.496 274.06 116.824 276.524 118.019C279.408 119.446 281.716 116.284 282.584 116.391" fill="white"/>
</svg>
