<svg width="702" height="750" viewBox="0 0 702 750" fill="none" xmlns="http://www.w3.org/2000/svg">
<g opacity="0.75">
<path d="M627.368 352.623C567.497 108.996 406.537 39.689 259.348 156.634C122.777 265.142 46.4275 196.113 24.623 354.828C2.95964 512.515 159.925 656.179 313.699 688.294C466.252 720.139 672.074 534.59 627.368 352.623Z" fill="#007DFF"/>
</g>
<g opacity="0.75">
<path d="M600.417 421.324C583.801 171.115 446.481 13.1826 274.848 86.6717C114.498 155.329 115.263 148.135 66.3343 300.717C17.7233 452.31 182.599 662.826 328.51 721.143C473.148 778.951 612.809 608.212 600.417 421.324Z" fill="#00F5FF"/>
</g>
<g opacity="0.5">
<path d="M110.597 419.614C191.531 657.211 364.993 773.666 511.737 658.234C648.836 550.392 650.085 557.588 657.797 397.411C665.458 238.271 451.679 77.7917 295.524 59.3371C140.729 41.0433 50.1485 242.119 110.597 419.614Z" fill="#0086B3"/>
</g>
<g clip-path="url(#clip0_339_651)">
<g opacity="0.5">
<path opacity="0.5" d="M241.197 217.59C250.901 205.16 262.688 194.368 276.075 185.802C302.645 168.815 334.545 161.267 365.911 164.543C366.734 164.627 367.324 165.367 367.24 166.189C367.156 167.012 366.418 167.616 365.596 167.532C334.908 164.329 303.693 171.714 277.69 188.331C251.702 204.947 231.889 230.178 221.912 259.371C211.935 288.563 212.16 320.645 222.549 349.702C232.938 378.758 253.109 403.704 279.333 419.953C280.035 420.386 280.249 421.315 279.815 422.016C279.388 422.71 278.461 422.938 277.752 422.498C250.95 405.9 230.34 380.396 219.731 350.711C209.114 321.02 208.875 288.241 219.072 258.409C224.126 243.616 231.652 229.816 241.197 217.59ZM399.281 173.379C399.674 172.875 400.369 172.668 400.996 172.904C402.97 173.659 404.958 174.475 406.873 175.273C424.142 182.728 439.475 193.379 452.481 206.946C453.059 207.537 453.041 208.487 452.442 209.059C451.842 209.632 450.893 209.613 450.32 209.014C437.593 195.741 422.588 185.321 405.704 178.038C403.826 177.258 401.86 176.446 399.931 175.714C399.161 175.417 398.77 174.554 399.059 173.777C399.12 173.634 399.188 173.497 399.281 173.379ZM463.072 222.662C463.164 222.544 463.266 222.446 463.384 222.36C464.066 221.877 465.005 222.039 465.48 222.714C481.404 245.169 490.278 271.584 491.171 299.088C492.059 326.601 484.896 353.537 470.461 376.966C456.029 400.409 435.196 418.919 410.227 430.507C385.264 442.088 357.673 446.035 330.457 441.927C329.643 441.799 329.072 441.036 329.2 440.222C329.326 439.394 330.091 438.837 330.911 438.957C357.54 442.987 384.536 439.122 408.966 427.784C433.396 416.447 453.785 398.327 467.903 375.4C482.034 352.457 489.042 326.11 488.171 299.194C487.306 272.27 478.609 246.425 463.036 224.447C462.64 223.898 462.678 223.166 463.072 222.662Z" fill="#A6EFF4"/>
</g>
<path d="M348.776 553.215C391.057 553.215 425.332 549.379 425.332 544.648C425.332 539.917 391.057 536.083 348.776 536.083C306.495 536.083 272.219 539.917 272.219 544.648C272.219 549.379 306.495 553.215 348.776 553.215Z" fill="#FBFBFB"/>
<path d="M392.789 438.944C390.776 435.463 388.921 431.806 387.277 428.076L387.015 427.479H317.085L316.808 428.029C314.002 433.591 311.439 439.399 309.19 445.291L309.185 445.304C304.393 458.424 309.883 473.726 315.312 480.4L315.43 480.545C320.263 486.491 326.804 494.537 342.504 494.537C343.231 494.537 343.978 494.519 344.745 494.484C349.743 494.252 354.345 494.184 358.796 494.119C375.249 493.877 387.137 493.702 393.401 485.07C400.721 474.982 402.49 454.964 392.789 438.944Z" fill="#242C42"/>
<path d="M360.814 446.829H345.656V454.637H360.814V446.829Z" fill="white"/>
<path d="M360.814 455.636H345.656C345.104 455.636 344.656 455.189 344.656 454.636V446.83C344.656 446.277 345.104 445.83 345.656 445.83H360.814C361.367 445.83 361.814 446.277 361.814 446.83V454.636C361.814 455.189 361.367 455.636 360.814 455.636ZM346.656 453.636H359.814V447.83H346.656V453.636Z" fill="#242C42"/>
<path d="M346.324 493.977V473.598C346.574 473.598 346.825 473.508 347.019 473.32C347.416 472.936 347.427 472.303 347.044 471.906C332.703 457.045 306.473 449.338 293.235 447.127C280.764 445.044 257.575 432.351 257.343 432.223L257.134 432.108L256.895 432.1C256.657 432.09 250.967 431.951 246.906 436.139C243.998 439.139 242.709 443.532 243.076 449.195C244.056 464.33 275.179 480.903 293.774 490.804C296.131 492.059 298.256 493.191 300.042 494.174C307.095 498.15 315.099 500.407 323.189 500.701C323.799 500.723 324.407 500.734 325.017 500.734C332.502 500.734 339.98 499.067 346.751 495.875C347.251 495.64 347.465 495.044 347.229 494.544C347.059 494.183 346.698 493.978 346.324 493.977Z" fill="#242C42"/>
<path d="M454.779 438.256C449.679 433.518 441.456 434.599 441.107 434.646L440.925 434.671L440.765 434.759C440.567 434.866 420.887 445.577 408.409 447.66C395.172 449.871 368.943 457.579 354.602 472.441C354.219 472.838 354.23 473.471 354.627 473.855C354.821 474.042 355.072 474.132 355.322 474.132V494.561C354.947 494.561 354.587 494.768 354.417 495.129C354.182 495.628 354.396 496.225 354.896 496.459C361.666 499.647 369.139 501.313 376.621 501.313C377.232 501.313 377.845 501.3 378.456 501.278C386.546 500.984 394.55 498.73 401.595 494.763C403.415 493.759 405.575 492.607 407.971 491.331C426.53 481.44 457.591 464.887 458.57 449.779C458.894 444.77 457.618 440.894 454.779 438.256Z" fill="#242C42"/>
<path d="M417.335 493.886L417.211 493.779C414.54 491.831 411.967 492.227 409.476 492.609C408.484 492.761 407.458 492.92 406.438 492.92C402.776 492.92 388.51 491.547 382.549 490.957C378.757 490.575 372.703 490.45 365.051 490.6L363.977 490.622L364.075 491.692C364.429 495.55 363.644 499.393 361.804 502.803L361.094 504.118L363.872 504.407C367.677 504.782 370.751 505.053 373.285 505.278C378.114 505.706 381.028 505.964 383.228 506.426C385.596 506.926 388.08 508.023 390.709 509.186C394.636 510.922 398.688 512.716 402.86 512.716C403.078 512.716 403.295 512.711 403.513 512.701C410.612 512.374 415.044 510.463 417.463 506.689C419.833 502.993 420.804 497.409 417.335 493.886Z" fill="#242C42"/>
<path d="M366.067 491.476L365.983 490.568H364.457C362.724 490.198 338.517 484.871 318.532 472.666C310.419 467.712 301.948 461.296 293.755 455.093C280.495 445.053 267.969 435.568 257.267 432.197C251.227 428.701 244.655 428.697 239.217 432.192C233.42 435.917 230.127 442.769 230.825 449.649C232.148 462.678 242.574 469.371 261.352 477.163C278.874 484.433 312.908 496.485 331.239 500.207C340.672 502.071 352.949 503.343 362.591 504.242L363.25 504.303L363.564 503.72C365.591 499.96 366.457 495.727 366.067 491.476Z" fill="#242C42"/>
<path d="M456.735 436.117C451.187 432.478 444.569 432.307 438.557 435.632C426.905 439.449 414.606 448.853 401.585 458.806C393.62 464.895 385.386 471.19 377.289 476.117C357.289 488.289 333.086 493.662 331.344 494.038H329.837L329.753 494.945C329.357 499.194 330.218 503.428 332.239 507.189L332.553 507.773L333.213 507.71C343.527 506.738 355.321 505.486 364.586 503.573C383.143 499.792 417.253 487.579 434.464 480.516C453.253 472.805 463.683 466.149 464.994 453.083C465.655 446.5 462.413 439.84 456.735 436.117Z" fill="#242C42"/>
<path d="M330.749 495.071C330.749 495.071 306.393 496.022 298.664 495.488C290.935 494.955 285.075 491.218 282.955 493.086C280.835 494.955 283.489 497.874 283.489 497.874C283.489 497.874 282.688 502.394 284.825 504.796C286.961 507.199 289.833 509.317 298.931 511.986C308.029 514.655 317.294 510.885 322.302 509.551L333.07 506.715C333.07 506.715 330.599 502.895 330.749 495.071Z" fill="white"/>
<path d="M333.912 506.176C333.889 506.139 331.608 502.456 331.749 495.091L331.769 494.03L330.71 494.072C330.467 494.081 306.321 495.016 298.733 494.49C295.341 494.257 292.252 493.366 289.77 492.651C286.343 491.665 283.865 490.948 282.294 492.336C279.827 494.511 281.134 499.657 281.35 500.435C281.432 500.847 281.955 503.074 284.078 505.46C286.522 508.21 289.689 510.316 298.649 512.945C301.029 513.643 303.414 513.919 305.729 513.919C311.191 513.919 316.273 512.387 320.012 511.259C320.95 510.977 321.803 510.718 322.557 510.517L334.645 507.33L333.912 506.176Z" fill="#242C42"/>
<path d="M340.363 491.461C339.972 491.461 339.601 491.23 339.44 490.847C339.227 490.337 339.467 489.752 339.976 489.539C340.499 489.319 392.5 467.466 413.585 454.671C414.059 454.385 414.673 454.534 414.958 455.007C415.245 455.479 415.095 456.094 414.622 456.38C393.41 469.252 341.273 491.163 340.749 491.383C340.623 491.437 340.492 491.461 340.363 491.461Z" fill="white"/>
<path d="M353.704 489.215C353.621 489.215 353.536 489.205 353.452 489.183C329.055 482.857 286.844 453.887 285.059 452.657C284.604 452.344 284.49 451.721 284.803 451.266C285.117 450.812 285.739 450.698 286.194 451.01C286.629 451.309 329.9 481.011 353.954 487.248C354.489 487.387 354.811 487.932 354.672 488.466C354.555 488.916 354.149 489.215 353.704 489.215Z" fill="white"/>
<path d="M329.582 332.239C329.582 332.239 311.547 332.642 305.04 336.02C298.535 339.399 296.651 360.517 296.651 360.517L276.171 400.981C276.171 400.981 225.822 363.422 221.548 359.697C217.275 355.97 216.165 353.131 211.834 350.186C207.503 347.243 205.933 347.21 200.344 347.029C194.755 346.849 193.927 347.623 194.277 349.22C194.627 350.817 196.615 351.298 198.201 351.349C199.948 351.545 201.68 351.869 203.38 352.317L187.19 358.187C183.151 359.642 184.158 353.283 180.571 353.167C176.984 353.051 177.071 362.25 182.919 366.829C188.768 371.407 192.827 370.336 197.596 370.089C202.364 369.842 213.645 368.62 213.645 368.62C213.645 368.62 243.503 396.739 254.361 407.069C265.218 417.4 280.077 427.459 285.794 423.656C291.513 419.851 313.88 381.434 313.88 381.434L328.605 345.977C328.605 345.977 332.635 338.563 329.582 332.239Z" fill="white"/>
<path d="M329.582 332.239C329.582 332.239 311.547 332.642 305.04 336.02C298.535 339.399 296.651 360.517 296.651 360.517L276.171 400.981C276.171 400.981 225.822 363.422 221.548 359.697C217.275 355.97 216.165 353.131 211.834 350.186C207.503 347.243 205.933 347.21 200.344 347.029C194.755 346.849 193.927 347.623 194.277 349.22C194.627 350.817 196.615 351.298 198.201 351.349C199.948 351.545 201.68 351.869 203.38 352.317L187.19 358.187C183.151 359.642 184.158 353.283 180.571 353.167C176.984 353.051 177.071 362.25 182.919 366.829C188.768 371.407 192.827 370.336 197.596 370.089C202.364 369.842 213.645 368.62 213.645 368.62C213.645 368.62 243.503 396.739 254.361 407.069C265.218 417.4 280.077 427.459 285.794 423.656C291.513 419.851 313.88 381.434 313.88 381.434L328.605 345.977C328.605 345.977 332.635 338.563 329.582 332.239Z" fill="white"/>
<path d="M282.388 425.472C274.241 425.209 261.117 414.877 253.672 407.793C243.559 398.171 216.615 372.791 213.294 369.664C211.125 369.895 201.842 370.87 197.648 371.086C197.028 371.119 196.422 371.165 195.821 371.211C191.823 371.515 187.689 371.831 182.304 367.616C177.479 363.838 176.447 357.587 177.558 354.527C178.119 352.983 179.229 352.122 180.603 352.166C182.869 352.239 183.786 354.131 184.456 355.512C185.325 357.303 185.65 357.677 186.851 357.245L199.75 352.569C199.198 352.48 198.643 352.405 198.089 352.343C198.085 352.343 198.081 352.343 198.077 352.343C195.455 352.258 193.686 351.196 193.301 349.433C193.228 349.098 193.004 348.079 193.695 347.249C194.543 346.23 196.354 345.899 200.377 346.029L200.478 346.032C205.964 346.21 207.851 346.27 212.396 349.359C214.959 351.102 216.443 352.809 218.013 354.617C219.19 355.973 220.408 357.374 222.206 358.942C226.078 362.319 268.848 394.267 275.815 399.467L295.695 360.19C296.072 358.237 299.774 339.904 306.408 336.459C313.006 333.034 328.807 331.316 329.476 331.244L330.176 331.17L330.483 331.804C333.624 338.309 329.897 345.673 329.509 346.405L314.745 381.938C313.826 383.515 292.193 420.599 286.348 424.488C285.246 425.222 283.903 425.52 282.388 425.472ZM213.994 367.576L214.33 367.892C214.63 368.173 244.315 396.131 255.051 406.345C266.013 416.775 280.319 426.094 285.24 422.822C289.764 419.813 306.765 391.663 312.982 380.989L327.726 345.499C327.762 345.432 331.201 338.954 328.964 333.317C325.763 333.698 312.824 335.381 307.329 338.235C302.346 340.822 298.64 355.329 297.634 360.701L297.543 360.968L276.526 402.493L275.572 401.782C273.516 400.247 225.144 364.158 220.892 360.45C218.989 358.791 217.726 357.336 216.503 355.929C214.956 354.147 213.62 352.609 211.272 351.013C207.207 348.25 205.881 348.226 200.414 348.031L200.313 348.028C196.213 347.895 195.394 348.333 195.233 348.527C195.209 348.556 195.186 348.692 195.255 349.006C195.457 349.932 196.925 350.308 198.233 350.35C200.1 350.556 201.892 350.89 203.636 351.35L206.732 352.165L187.531 359.126C184.516 360.214 183.396 357.909 182.657 356.385C181.999 355.03 181.545 354.198 180.539 354.165C180.065 354.15 179.694 354.501 179.437 355.209C178.538 357.687 179.662 363.007 183.536 366.041C188.31 369.778 191.719 369.519 195.668 369.217C196.285 369.171 196.908 369.123 197.544 369.089C202.23 368.847 213.424 367.639 213.537 367.626L213.994 367.576Z" fill="#242C42"/>
<path d="M184.042 367.749C184.042 367.749 176.471 361.196 180.858 355.162C181.941 353.662 184.169 356.053 184.701 360.294C185.233 364.533 187.282 366.235 188.357 366.57" fill="white"/>
<path d="M184.042 367.749C184.042 367.749 176.471 361.196 180.858 355.162C181.941 353.662 184.169 356.053 184.701 360.294C185.233 364.533 187.282 366.235 188.357 366.57" fill="#242C42"/>
<path d="M184.01 368.749C183.789 368.741 183.569 368.661 183.389 368.505C180.529 366.031 176.151 359.935 180.049 354.574C180.556 353.871 181.338 353.573 182.131 353.776C183.811 354.206 185.276 356.835 185.694 360.169C186.177 364.031 187.994 365.409 188.653 365.615C189.181 365.779 189.476 366.34 189.311 366.867C189.147 367.394 188.587 367.689 188.06 367.525C186.398 367.008 184.263 364.835 183.71 360.418C183.321 357.319 182.047 355.776 181.629 355.712C177.876 360.964 184.419 366.75 184.699 366.994C185.116 367.356 185.159 367.988 184.798 368.405C184.593 368.641 184.301 368.758 184.01 368.749Z" fill="#242C42"/>
<path d="M189.894 366.552C188.042 366.492 188.303 361.494 184.893 358.997C182.186 356.958 182.412 360.803 182.962 363.942C183.176 365.229 183.773 366.422 184.675 367.365C185.577 368.308 186.743 368.958 188.02 369.229C189.205 369.567 190.447 369.658 191.669 369.497" fill="white"/>
<path d="M189.894 366.552C188.042 366.492 188.303 361.494 184.893 358.997C182.186 356.958 182.412 360.803 182.962 363.942C183.176 365.229 183.773 366.422 184.675 367.365C185.577 368.308 186.743 368.958 188.02 369.229C189.205 369.567 190.447 369.658 191.669 369.497" fill="#242C42"/>
<path d="M190.165 370.57C189.351 370.544 188.543 370.417 187.746 370.19C186.334 369.893 184.999 369.15 183.952 368.056C182.906 366.962 182.224 365.596 181.977 364.106C181.324 360.377 181.551 358.391 182.717 357.678C183.482 357.211 184.417 357.386 185.495 358.198C187.559 359.709 188.419 362.009 189.046 363.688C189.304 364.379 189.694 365.424 189.946 365.558C190.498 365.576 190.921 366.035 190.903 366.587C190.885 367.139 190.413 367.57 189.862 367.552C188.335 367.503 187.771 365.99 187.172 364.388C186.603 362.865 185.894 360.97 184.302 359.803C184.04 359.607 183.862 359.513 183.754 359.468C183.64 359.792 183.436 360.853 183.947 363.77C184.13 364.872 184.631 365.873 185.398 366.674C186.164 367.476 187.143 368.02 188.227 368.25C189.356 368.568 190.448 368.649 191.539 368.505C192.086 368.432 192.589 368.819 192.662 369.367C192.734 369.915 192.347 370.416 191.8 370.488C191.254 370.56 190.708 370.588 190.165 370.57Z" fill="#242C42"/>
<path d="M213.583 359.155C213.583 359.155 211.023 357.22 205.879 358.757C200.735 360.293 194.49 367.485 193.125 366.824C191.854 366.04 190.908 364.824 190.463 363.4C189.728 361.841 188.281 359.574 187.189 361.324C184.76 365.152 190.891 369.789 190.891 369.789C190.891 369.789 191.735 370.551 196.609 370.124C201.484 369.697 212.495 368.516 212.495 368.516" fill="white"/>
<path d="M213.583 359.155C213.583 359.155 211.023 357.22 205.879 358.757C200.735 360.293 194.49 367.485 193.125 366.824C191.854 366.04 190.908 364.824 190.463 363.4C189.728 361.841 188.281 359.574 187.189 361.324C184.76 365.152 190.891 369.789 190.891 369.789C190.891 369.789 191.735 370.551 196.609 370.124C201.484 369.697 212.495 368.516 212.495 368.516" fill="white"/>
<path d="M193.317 371.245C191.307 371.18 190.524 370.806 190.221 370.531C190.008 370.374 183.457 365.342 186.345 360.789C186.974 359.781 187.757 359.659 188.187 359.694C189.303 359.76 190.374 360.863 191.368 362.974L191.417 363.102C191.764 364.213 192.474 365.173 193.43 365.83C194.046 365.589 195.547 364.377 196.771 363.389C199.358 361.3 202.579 358.699 205.592 357.799C211.157 356.136 214.065 358.267 214.186 358.358C214.626 358.692 214.713 359.319 214.381 359.759C214.051 360.196 213.428 360.286 212.988 359.96C212.879 359.882 210.671 358.368 206.165 359.714C203.529 360.502 200.478 362.966 198.027 364.946C195.263 367.178 193.873 368.3 192.689 367.724L192.6 367.675C191.144 366.778 190.056 365.393 189.531 363.768C188.922 362.494 188.377 361.891 188.127 361.729C188.103 361.757 188.072 361.798 188.038 361.854C186.222 364.714 191.083 368.666 191.471 368.973C191.629 369.045 192.731 369.459 196.522 369.128C201.33 368.707 212.279 367.534 212.388 367.522C212.929 367.461 213.43 367.859 213.489 368.409C213.549 368.958 213.152 369.451 212.602 369.51C212.492 369.523 201.524 370.697 196.696 371.12C195.297 371.242 194.191 371.273 193.317 371.245ZM191.48 368.98C191.488 368.987 191.494 368.991 191.495 368.992C191.495 368.99 191.488 368.985 191.48 368.98Z" fill="#242C42"/>
<path d="M270.674 423.802L275.679 398.094L291.149 370.221L303.586 335.573L312.628 340.036L313.598 387.635L287.197 426.499C286.729 427.19 285.88 427.516 285.069 427.318L270.674 423.802Z" fill="#0561B6"/>
<path d="M285.44 428.373C285.237 428.366 285.034 428.339 284.831 428.29L270.436 424.773C269.918 424.647 269.59 424.134 269.691 423.61L274.697 397.903C274.717 397.8 274.754 397.701 274.805 397.609L290.235 369.806L302.644 335.235C302.739 334.967 302.945 334.751 303.21 334.645C303.474 334.537 303.771 334.548 304.027 334.675L313.07 339.139C313.405 339.304 313.619 339.642 313.627 340.016L314.597 387.613C314.601 387.82 314.54 388.023 314.424 388.195L288.024 427.061C287.442 427.92 286.454 428.405 285.44 428.373ZM271.837 423.056L285.306 426.347C285.706 426.447 286.137 426.281 286.37 425.937L312.591 387.335L311.64 340.664L304.147 336.965L292.09 370.558C292.071 370.609 292.049 370.658 292.023 370.705L276.63 398.44L271.837 423.056Z" fill="#242C42"/>
<path d="M276.395 399.232L271.731 425.315C271.59 426.103 270.626 426.414 270.051 425.857L261.274 417.361C261.024 417.119 260.919 416.766 260.993 416.427L266.385 391.928C266.547 391.19 267.439 390.892 268.013 391.384L276.062 398.298C276.331 398.528 276.457 398.884 276.395 399.232Z" fill="white"/>
<path d="M270.681 427.138C270.192 427.122 269.718 426.929 269.355 426.576L260.578 418.08C260.076 417.593 259.866 416.897 260.015 416.214L265.409 391.714C265.561 391.02 266.054 390.471 266.729 390.246C267.4 390.02 268.125 390.163 268.664 390.627L276.713 397.539C277.248 398 277.503 398.715 277.38 399.407L277.38 399.408L272.715 425.492C272.585 426.22 272.066 426.815 271.362 427.042C271.138 427.115 270.908 427.145 270.681 427.138ZM267.361 392.144L261.968 416.643L270.746 425.139L275.41 399.057L267.361 392.144ZM275.41 399.056L275.41 399.055L275.41 399.056Z" fill="#242C42"/>
<path d="M375.713 330.316C375.713 330.316 394.728 331.055 401.237 334.5C407.745 337.945 409.627 358.998 409.627 358.998L430.106 399.46C430.106 399.46 480.456 361.903 484.729 358.176C489.001 354.451 490.112 351.61 494.443 348.667C498.774 345.723 500.343 345.689 505.933 345.509C511.522 345.329 512.349 346.103 512 347.699C511.65 349.296 509.662 349.778 508.06 349.83C506.318 350.027 504.592 350.351 502.897 350.797L519.071 356.668C523.126 358.123 522.119 351.763 525.706 351.647C529.293 351.532 529.206 360.73 523.358 365.308C517.509 369.886 513.45 368.816 508.664 368.57C503.88 368.324 492.632 367.101 492.632 367.101C492.632 367.101 462.774 395.219 451.916 405.55C441.059 415.881 426.201 425.94 420.483 422.135C414.765 418.331 392.397 379.915 392.397 379.915L377.673 344.456C377.673 344.456 372.678 336.64 375.713 330.316Z" fill="white"/>
<path d="M375.713 330.316C375.713 330.316 394.728 331.055 401.237 334.5C407.745 337.945 409.627 358.998 409.627 358.998L430.106 399.46C430.106 399.46 480.456 361.903 484.729 358.176C489.001 354.451 490.112 351.61 494.443 348.667C498.774 345.723 500.343 345.689 505.933 345.509C511.522 345.329 512.349 346.103 512 347.699C511.65 349.296 509.662 349.778 508.06 349.83C506.318 350.027 504.592 350.351 502.897 350.797L519.071 356.668C523.126 358.123 522.119 351.763 525.706 351.647C529.293 351.532 529.206 360.73 523.358 365.308C517.509 369.886 513.45 368.816 508.664 368.57C503.88 368.324 492.632 367.101 492.632 367.101C492.632 367.101 462.774 395.219 451.916 405.55C441.059 415.881 426.201 425.94 420.483 422.135C414.765 418.331 392.397 379.915 392.397 379.915L377.673 344.456C377.673 344.456 372.678 336.64 375.713 330.316Z" fill="white"/>
<path d="M423.889 423.953C422.373 424.002 421.031 423.703 419.928 422.969C414.084 419.08 392.451 381.995 391.532 380.418L391.472 380.299L376.782 344.917C376.221 344.011 371.704 336.361 374.812 329.885L375.041 329.409L375.562 329.329C376.131 329.243 389.53 327.263 396.252 330.822C402.917 334.35 409.998 356.821 410.557 358.622L430.461 397.947C437.428 392.747 480.199 360.8 484.071 357.423C485.869 355.855 487.086 354.453 488.264 353.098C489.834 351.29 491.317 349.582 493.88 347.841C498.4 344.767 500.265 344.691 505.713 344.515C509.898 344.402 511.728 344.704 512.582 345.73C513.272 346.561 513.05 347.579 512.976 347.915C512.59 349.679 510.81 350.741 508.092 350.829C507.574 350.889 507.049 350.963 506.519 351.049L519.412 355.729C520.621 356.165 520.947 355.787 521.822 353.988C522.493 352.61 523.411 350.721 525.674 350.648C527.048 350.604 528.159 351.464 528.72 353.009C529.831 356.069 528.799 362.319 523.974 366.096C518.592 370.31 514.454 369.995 510.452 369.693C509.848 369.647 509.237 369.602 508.613 369.569C504.406 369.354 495.149 368.377 492.983 368.145C489.662 371.274 462.719 396.652 452.606 406.274C445.161 413.358 432.037 423.69 423.889 423.953ZM393.295 379.47C399.512 390.144 416.513 418.293 421.036 421.303C425.95 424.575 440.265 415.256 451.226 404.826C461.963 394.611 491.648 366.655 491.947 366.374L492.283 366.058L492.74 366.107C492.853 366.119 504.015 367.33 508.715 367.572C509.355 367.605 509.983 367.652 510.603 367.699C514.555 367.997 517.969 368.257 522.741 364.521C526.615 361.489 527.738 356.17 526.839 353.692C526.583 352.984 526.212 352.632 525.739 352.647C524.733 352.679 524.278 353.51 523.62 354.863C522.877 356.389 521.762 358.696 518.733 357.609L499.547 350.646L502.642 349.831C504.38 349.373 506.164 349.038 507.947 348.837C509.343 348.789 510.82 348.413 511.022 347.487C511.091 347.171 511.068 347.038 511.044 347.009C510.883 346.814 510.063 346.376 505.964 346.508C505.932 346.509 505.9 346.51 505.869 346.511C500.359 346.689 499.047 346.747 495.005 349.494C492.657 351.09 491.321 352.629 489.774 354.41C488.551 355.816 487.289 357.271 485.386 358.93C481.133 362.64 432.76 398.728 430.704 400.262L429.751 400.972L408.671 359.292C406.665 352.769 400.354 335.256 395.317 332.59C389.883 329.713 378.948 330.905 376.4 331.233C374.113 336.891 378.471 343.847 378.518 343.919L378.598 344.073L393.295 379.47Z" fill="#242C42"/>
<path d="M524.079 363.833C524.079 363.833 527.112 354.305 525.417 353.576C523.724 352.846 522.105 354.467 521.575 358.706C521.043 362.947 518.994 364.648 517.918 364.983" fill="white"/>
<path d="M526.299 361.726C526.299 361.726 527.145 354.304 525.417 353.576C523.69 352.847 522.106 354.467 521.575 358.706C521.043 362.947 518.994 364.648 517.918 364.983" fill="#242C42"/>
<path d="M517.949 365.984C517.512 365.998 517.102 365.72 516.964 365.281C516.8 364.755 517.094 364.193 517.621 364.029C518.281 363.823 520.099 362.443 520.583 358.582C520.959 355.58 521.891 353.572 523.281 352.776C524.059 352.331 524.957 352.289 525.813 352.658C526.438 352.927 528.34 353.745 525.031 364.137C524.862 364.662 524.303 364.957 523.775 364.787C523.248 364.619 522.957 364.058 523.125 363.531C524.419 359.467 525.193 355.411 524.877 354.443C524.597 354.363 524.41 354.435 524.275 354.512C523.98 354.681 522.984 355.491 522.566 358.831C522.013 363.248 519.877 365.421 518.216 365.938C518.128 365.965 518.038 365.981 517.949 365.984Z" fill="#242C42"/>
<path d="M521.597 365.599C521.597 365.599 525.417 353.576 520.648 356.884C517.135 359.318 518.234 364.906 516.382 364.966" fill="white"/>
<path d="M522.569 365.701C522.569 365.701 525.417 353.576 520.614 356.885C517.101 359.319 518.2 364.907 516.348 364.967" fill="#242C42"/>
<path d="M521.63 366.599C521.52 366.602 521.407 366.587 521.296 366.551C520.769 366.384 520.477 365.824 520.645 365.297C521.738 361.851 522.325 358.168 521.933 357.325C521.82 357.357 521.592 357.446 521.218 357.705C519.573 358.845 519.108 360.945 518.734 362.631C518.376 364.245 518.005 365.914 516.414 365.966C515.862 365.983 515.4 365.55 515.383 364.998C515.366 364.477 515.752 364.035 516.26 363.974C516.445 363.712 516.639 362.843 516.782 362.198C517.207 360.277 517.79 357.648 520.079 356.062C521.303 355.211 522.317 355.077 523.098 355.654C525.007 357.063 523.575 362.679 522.55 365.902C522.419 366.316 522.042 366.585 521.63 366.599Z" fill="#242C42"/>
<path d="M492.659 357.57C492.659 357.57 495.219 355.635 500.363 357.171C505.506 358.707 511.752 365.9 513.117 365.238C514.388 364.455 515.334 363.239 515.779 361.814C516.497 360.256 517.869 359.293 518.846 361.098C519.822 362.902 517.228 368.41 517.228 368.41C517.228 368.41 515.598 369.648 511.479 368.829C506.828 367.869 502.113 367.245 497.372 366.964" fill="white"/>
<path d="M493.071 358.287C493.071 358.287 495.631 356.353 500.775 357.889C505.919 359.426 512.164 366.617 513.528 365.956C514.8 365.172 515.746 363.957 516.191 362.532C516.908 360.973 518.281 360.011 519.258 361.816C520.235 363.62 517.64 369.128 517.64 369.128C517.64 369.128 516.009 370.366 511.89 369.547C507.772 368.729 499.684 366.402 497.164 366.484" fill="white"/>
<path d="M514.461 370.104C513.591 370.132 512.538 370.06 511.284 369.811C506.686 368.862 501.987 368.24 497.312 367.962C496.76 367.93 496.34 367.457 496.372 366.905C496.405 366.355 496.876 365.936 497.43 365.967C502.201 366.25 506.996 366.883 511.681 367.85C514.485 368.406 515.965 367.922 516.455 367.698C517.541 365.303 518.388 362.354 517.965 361.574C517.784 361.239 517.636 361.131 517.598 361.12C517.502 361.125 517.085 361.396 516.712 362.18C516.186 363.807 515.097 365.194 513.641 366.091L513.553 366.139C512.361 366.716 510.976 365.592 508.214 363.361C505.763 361.381 502.713 358.918 500.077 358.13C495.553 356.777 493.344 358.31 493.252 358.375C492.809 358.694 492.183 358.601 491.86 358.16C491.534 357.719 491.62 357.103 492.056 356.773C492.177 356.682 495.083 354.55 500.65 356.214C503.662 357.114 506.883 359.716 509.47 361.805C510.694 362.792 512.195 364.003 512.811 364.245C513.767 363.588 514.478 362.627 514.825 361.515L514.87 361.396C515.512 360.004 516.511 359.155 517.541 359.122C518.045 359.105 518.997 359.279 519.725 360.622C520.855 362.709 518.792 367.438 518.133 368.837L518.028 369.06L517.832 369.207C517.686 369.318 516.662 370.033 514.461 370.104Z" fill="#242C42"/>
<path d="M433.89 421.436L429.288 395.716L415.226 367.796L400.763 330.711L395.731 337.548L395.003 385.139L418.9 423.964C419.363 424.717 420.265 425.076 421.119 424.848L433.89 421.436Z" fill="#0561B6"/>
<path d="M420.71 425.913C419.65 425.947 418.617 425.413 418.048 424.488L394.152 385.662C394.051 385.501 394 385.313 394.003 385.123L394.731 337.534C394.734 337.326 394.803 337.123 394.925 336.956L399.958 330.118C400.174 329.824 400.526 329.672 400.894 329.72C401.255 329.768 401.563 330.008 401.696 330.347L416.158 367.433L430.181 395.267C430.225 395.353 430.255 395.444 430.272 395.54L434.874 421.26C434.965 421.772 434.65 422.269 434.147 422.402L421.377 425.814C421.156 425.874 420.932 425.906 420.71 425.913ZM396.008 384.863L419.751 423.441C419.982 423.814 420.439 423.994 420.861 423.882L432.744 420.706L428.329 396.036L414.334 368.247L400.491 332.767L396.726 337.884L396.008 384.863Z" fill="#242C42"/>
<path d="M428.639 396.811L432.914 422.788C433.049 423.607 434.065 423.915 434.632 423.308L442.371 415.014C442.592 414.778 442.684 414.45 442.621 414.134L437.693 389.717C437.537 388.947 436.594 388.649 436.024 389.191L428.937 395.924C428.697 396.152 428.585 396.485 428.639 396.811Z" fill="white"/>
<path d="M433.971 424.626C433.755 424.633 433.536 424.605 433.322 424.54C432.585 424.317 432.051 423.708 431.927 422.95L427.653 396.974C427.543 396.321 427.765 395.658 428.246 395.199L435.336 388.465C435.864 387.965 436.619 387.789 437.315 388.008C438.008 388.227 438.529 388.805 438.673 389.518L443.601 413.937C443.727 414.568 443.541 415.224 443.104 415.695L435.363 423.99C434.992 424.388 434.492 424.609 433.971 424.626ZM429.625 396.648L433.9 422.625L441.64 414.332L436.712 389.914L429.625 396.65L429.625 396.648Z" fill="#242C42"/>
<path d="M338.263 322.83L304.797 335.916C304.797 335.916 314.182 393.681 314.546 404.251C314.91 414.821 308.399 443.834 310.64 446.829C312.881 449.824 322.432 449.265 322.432 449.265L396.897 447.693C397.579 447.678 398.056 447 397.85 446.349C397.167 444.186 395.746 439.349 394.109 431.816C392.8 426 395.985 383.256 396.756 373.5C397.527 363.744 402.009 330.74 402.009 330.74C402.009 330.74 374.232 322.874 366.724 321.74C359.216 320.606 343.807 319.108 338.263 322.83Z" fill="#0561B6"/>
<path d="M320.528 450.315C317.45 450.315 311.732 449.957 309.84 447.428C308.515 445.657 309.247 439.525 311.233 425.958C312.451 417.639 313.711 409.035 313.547 404.285C313.19 393.898 303.904 336.653 303.81 336.076C303.735 335.611 303.994 335.156 304.433 334.985L337.8 321.938C344.255 317.738 361.668 319.965 366.873 320.751C374.358 321.882 401.144 329.456 402.281 329.778C402.76 329.914 403.066 330.381 403 330.875C402.955 331.205 398.514 363.962 397.753 373.579C396.34 391.469 393.964 426.617 395.085 431.596C396.705 439.053 398.111 443.851 398.804 446.048C398.998 446.663 398.894 447.32 398.516 447.847C398.141 448.37 397.559 448.679 396.919 448.693L322.453 450.265C322.214 450.279 321.504 450.315 320.528 450.315ZM305.913 336.553C307.09 343.828 315.203 394.256 315.546 404.217C315.716 409.147 314.443 417.841 313.212 426.248C312.062 434.104 310.486 444.865 311.442 446.231C312.839 448.099 318.888 448.471 322.374 448.267L396.876 446.693C396.192 444.421 394.768 439.555 393.132 432.028C391.667 425.522 395.591 375.546 395.759 373.421C396.454 364.632 400.191 336.738 400.902 331.467C396.216 330.151 373.208 323.731 366.574 322.729C356.168 321.157 343.412 320.577 338.821 323.66C338.76 323.701 338.696 323.735 338.628 323.761L305.913 336.553ZM338.263 322.83H338.273H338.263Z" fill="#242C42"/>
<path d="M319.122 443.722C318.822 443.722 318.525 443.588 318.328 443.331C317.992 442.893 318.075 442.265 318.513 441.929L351.062 416.951C351.5 416.614 352.128 416.697 352.464 417.135C352.8 417.573 352.717 418.201 352.279 418.537L319.73 443.515C319.548 443.655 319.334 443.722 319.122 443.722Z" fill="#242C42"/>
<path d="M335.099 425.257C334.823 425.257 334.55 425.144 334.352 424.922C333.985 424.509 334.021 423.877 334.434 423.51L357.408 403.066C357.82 402.698 358.453 402.736 358.82 403.148C359.187 403.561 359.15 404.194 358.738 404.561L335.763 425.004C335.573 425.174 335.335 425.257 335.099 425.257Z" fill="#242C42"/>
<path d="M343.437 313.379C343.437 313.379 336.496 315.459 335.114 316.84C333.732 318.221 332.684 325.563 331.287 329.314C329.89 333.065 325.394 339.71 326.791 340.059C328.188 340.408 339.959 334.505 339.959 334.505L353.491 349.83L366.325 333.835C366.325 333.835 376.379 341.455 377.063 340.408C377.747 339.361 372.552 326.9 372.217 321.71C371.883 316.519 364.229 314.775 359.733 314.441C355.237 314.106 343.437 313.379 343.437 313.379Z" fill="white"/>
<path d="M353.491 350.831C353.204 350.831 352.931 350.708 352.741 350.493L339.718 335.744C334.326 338.428 327.935 341.379 326.548 341.03C326.149 340.93 325.824 340.658 325.657 340.283C325.199 339.255 325.926 337.708 327.963 333.871C328.887 332.13 329.842 330.329 330.35 328.966C330.897 327.496 331.403 325.395 331.892 323.362C332.819 319.511 333.436 317.102 334.406 316.133C335.892 314.649 341.951 312.78 343.15 312.421C343.263 312.387 343.38 312.373 343.498 312.381C343.616 312.388 355.356 313.112 359.807 313.444C366.064 313.908 372.871 316.309 373.215 321.648C373.386 324.294 374.961 329.172 376.227 333.092C378.081 338.835 378.43 340.144 377.9 340.955C377.716 341.237 377.424 341.425 377.076 341.485C375.889 341.709 372.323 339.587 366.497 335.219L354.271 350.457C354.086 350.687 353.809 350.823 353.514 350.83C353.506 350.83 353.499 350.831 353.491 350.831ZM339.958 333.505C340.238 333.505 340.513 333.623 340.708 333.843L353.454 348.278L365.544 333.211C365.882 332.79 366.496 332.711 366.928 333.04C370.216 335.531 374.139 338.232 375.977 339.169C375.668 337.871 374.939 335.614 374.323 333.706C372.956 329.471 371.406 324.672 371.219 321.776C370.875 316.426 360.805 315.524 359.658 315.439C355.521 315.131 345.053 314.482 343.554 314.389C340.77 315.234 336.633 316.736 335.82 317.548C335.2 318.168 334.412 321.44 333.837 323.83C333.334 325.92 332.813 328.082 332.224 329.665C331.67 331.152 330.683 333.011 329.729 334.809C329.044 336.099 328.089 337.899 327.7 338.936C329.657 338.317 334.887 335.929 339.51 333.611C339.653 333.54 339.806 333.505 339.958 333.505ZM327.525 339.616H327.535H327.525Z" fill="#242C42"/>
<path d="M338.377 291.377V314.631L352.884 341.32L366.724 314.297V290.026L338.377 291.377Z" fill="white"/>
<path d="M352.885 342.32C352.519 342.32 352.181 342.119 352.006 341.797L337.499 315.108C337.419 314.962 337.377 314.798 337.377 314.631V291.377C337.377 290.843 337.797 290.403 338.33 290.378L366.677 289.027C366.968 289.02 367.217 289.114 367.415 289.302C367.612 289.49 367.725 289.753 367.725 290.026V314.297C367.725 314.456 367.686 314.612 367.614 314.753L353.775 341.776C353.606 342.106 353.268 342.316 352.897 342.32C352.893 342.32 352.889 342.32 352.885 342.32ZM339.377 314.376L352.858 339.178L365.725 314.055V291.075L339.377 292.33V314.376Z" fill="#242C42"/>
<path d="M322.227 283.377L323.326 283.234L323.322 283.084L322.227 283.377Z" fill="#242C42"/>
<path d="M330.121 274.859C330.121 274.859 322.606 267.174 320.104 272.664C317.603 278.154 324.089 287.704 326.561 290.088C329.033 292.471 331.703 287.532 331.703 287.532" fill="white"/>
<path d="M328.076 291.735C327.455 291.751 326.655 291.568 325.866 290.807C323.641 288.661 316.316 278.566 319.194 272.25C320.004 270.471 321.258 269.906 322.166 269.748C325.779 269.124 330.329 273.641 330.835 274.159C331.221 274.554 331.215 275.187 330.82 275.573C330.427 275.959 329.793 275.953 329.406 275.558C327.773 273.891 324.458 271.382 322.511 271.718C322.101 271.79 321.502 272.01 321.014 273.078C318.903 277.713 324.499 286.711 327.254 289.368C327.647 289.746 327.934 289.758 328.138 289.726C329.154 289.57 330.386 287.859 330.824 287.054C331.088 286.57 331.695 286.39 332.18 286.653C332.665 286.916 332.844 287.521 332.582 288.007C332.398 288.348 330.715 291.35 328.446 291.702C328.333 291.72 328.208 291.732 328.076 291.735Z" fill="#242C42"/>
<path d="M375.456 273.643C375.456 273.643 382.774 265.744 385.408 271.158C388.042 276.573 381.829 286.318 379.425 288.753C377.022 291.189 374.297 286.331 374.297 286.331" fill="white"/>
<path d="M378.033 290.435C377.871 290.439 377.72 290.428 377.583 290.411C375.328 290.108 373.613 287.156 373.425 286.82C373.155 286.339 373.325 285.731 373.806 285.46C374.286 285.189 374.896 285.36 375.169 285.84C375.613 286.628 376.853 288.295 377.852 288.428C378.049 288.453 378.33 288.437 378.713 288.051C380.866 285.869 386.882 276.475 384.509 271.595C383.999 270.546 383.397 270.344 382.99 270.284C380.785 269.959 377.257 273.171 376.19 274.322C375.814 274.728 375.183 274.752 374.777 274.377C374.372 274.002 374.348 273.369 374.723 272.963C375.217 272.43 379.658 267.77 383.281 268.305C384.191 268.44 385.455 268.969 386.308 270.72C389.313 276.899 382.22 287.343 380.136 289.455C379.398 290.202 378.639 290.42 378.033 290.435Z" fill="#242C42"/>
<path d="M377.51 268.979C377.985 288.043 367.418 314.597 353.577 314.941C339.736 315.286 327.86 289.292 327.385 270.228C326.91 251.164 337.747 235.443 351.588 235.098C365.428 234.753 377.035 249.915 377.51 268.979Z" fill="white"/>
<path d="M353.602 315.941C346.849 316.109 340.096 310.568 334.588 300.337C329.768 291.383 326.625 279.856 326.385 270.253C325.898 250.676 337.192 234.456 351.563 234.098C365.933 233.74 378.021 249.377 378.509 268.954C378.974 287.613 368.72 315.564 353.602 315.941ZM351.612 236.098C338.345 236.428 327.924 251.728 328.385 270.203C328.617 279.511 331.668 290.695 336.349 299.389C341.407 308.784 347.678 314.088 353.552 313.942C359.426 313.795 365.425 308.185 370.009 298.55C374.251 289.633 376.742 278.312 376.51 269.004C376.05 250.529 364.88 235.767 351.612 236.098Z" fill="#242C42"/>
<path d="M353.524 291.648C353.044 291.66 352.536 291.563 352.021 291.352L349.606 290.348C349.097 290.135 348.854 289.551 349.066 289.041C349.279 288.531 349.863 288.286 350.374 288.501L352.784 289.502C353.586 289.829 353.956 289.516 354.078 289.412C354.6 288.965 354.839 287.966 354.632 287.088C354.145 285.023 352.571 275.788 352.505 275.396C352.412 274.852 352.778 274.335 353.323 274.242C353.863 274.149 354.384 274.516 354.477 275.06C354.493 275.156 356.107 284.625 356.579 286.63C356.963 288.261 356.48 289.989 355.377 290.932C354.84 291.39 354.208 291.631 353.524 291.648Z" fill="#242C42"/>
<path d="M371.946 259.545C371.946 259.545 370.333 264.493 372.465 266.469C374.597 268.444 374.329 271.625 374.106 275.879C373.882 280.134 374.966 282.517 376.334 281.026C377.702 279.535 378.621 259.952 378.586 258.547C378.551 257.143 371.946 259.545 371.946 259.545Z" fill="#242C42"/>
<path d="M375.587 282.47C375.29 282.477 375.051 282.403 374.909 282.344C373.015 281.548 373.018 277.521 373.108 275.827L373.135 275.299C373.338 271.513 373.484 268.778 371.784 267.203C369.256 264.86 370.809 259.804 370.995 259.235C371.09 258.943 371.315 258.71 371.603 258.605C375.548 257.17 378.033 256.775 378.987 257.429C379.357 257.68 379.575 258.079 379.586 258.522C379.591 258.721 378.907 279.702 377.07 281.703C376.53 282.29 376.002 282.46 375.587 282.47ZM375.731 280.526L375.74 280.526L375.731 280.526ZM372.764 260.315C372.393 261.738 371.945 264.624 373.144 265.736C375.531 267.948 375.355 271.238 375.133 275.405L375.105 275.932C374.975 278.416 375.33 279.842 375.6 280.345C376.553 278.79 377.517 262.735 377.584 259.103C376.701 259.144 374.718 259.639 372.764 260.315Z" fill="#242C42"/>
<path d="M327.607 267.309L328.571 278.141C328.85 278.231 329.145 278.264 329.436 278.239C329.729 278.213 330.013 278.129 330.271 277.991C330.53 277.854 330.758 277.666 330.944 277.438C331.128 277.211 331.265 276.948 331.346 276.667C331.987 274.552 330.072 268.028 331.734 264.397C333.397 260.766 340.017 258.988 340.214 256.469C340.412 253.949 336.573 249.623 336.529 247.89C336.486 246.157 337.501 244.397 346.469 252.55C355.435 260.702 371.61 262.086 379.952 259.779C388.295 257.473 377.851 245.109 375.666 242.37C373.48 239.633 381.268 241.521 376.878 234.624C372.489 227.727 357.668 223.535 343.074 229.153C328.48 234.772 320.269 242.346 322.551 249.643C324.832 256.938 327.607 267.309 327.607 267.309Z" fill="#242C42"/>
<path d="M329.324 279.246C328.963 279.255 328.607 279.203 328.263 279.092C327.882 278.968 327.611 278.629 327.575 278.23L326.619 267.484C326.35 266.485 323.738 256.79 321.597 249.941C319.186 242.231 326.882 234.315 342.714 228.22C349.602 225.569 357.162 224.856 363.998 226.215C370.338 227.475 375.34 230.344 377.722 234.087C379.029 236.139 379.478 237.692 379.137 238.973C378.774 240.336 377.607 240.949 376.836 241.354C376.69 241.432 376.493 241.536 376.355 241.622C376.378 241.658 376.41 241.699 376.448 241.747L376.784 242.167C380.489 246.761 385.256 253.358 383.896 257.583C383.393 259.144 382.156 260.207 380.219 260.743C371.791 263.075 355.136 261.781 345.796 253.29C339.721 247.767 337.942 247.415 337.564 247.424C337.546 247.495 337.523 247.63 337.529 247.865C337.541 248.355 338.319 249.672 338.944 250.731C340.125 252.733 341.348 254.802 341.211 256.547C341.076 258.28 339.261 259.446 337.161 260.795C335.382 261.938 333.368 263.233 332.644 264.813C331.746 266.773 332.045 269.937 332.286 272.479C332.468 274.412 332.612 275.937 332.302 276.957C332.187 277.356 331.991 277.734 331.722 278.067C331.449 278.402 331.119 278.672 330.742 278.874C330.362 279.075 329.953 279.197 329.526 279.235C329.459 279.241 329.391 279.245 329.324 279.246ZM356.142 227.546C352.064 227.648 347.724 228.435 343.433 230.087C328.93 235.67 321.481 242.868 323.506 249.344C325.767 256.576 328.547 266.948 328.574 267.051C328.59 267.107 328.598 267.164 328.603 267.221L329.494 277.222C329.6 277.199 329.705 277.16 329.803 277.109C329.944 277.033 330.068 276.931 330.17 276.807C330.268 276.685 330.341 276.543 330.385 276.39C330.584 275.734 330.437 274.175 330.295 272.667C330.032 269.888 329.705 266.427 330.825 263.98C331.793 261.867 334.07 260.404 336.08 259.113C337.523 258.186 339.158 257.135 339.217 256.391C339.304 255.276 338.15 253.319 337.222 251.747C336.29 250.17 335.555 248.924 335.53 247.915C335.493 246.458 336.134 245.855 336.676 245.608C337.875 245.06 340.056 245.368 347.141 251.81C355.947 259.817 371.701 261.023 379.686 258.816C380.95 258.466 381.704 257.862 381.992 256.971C382.779 254.524 380.503 249.965 375.227 243.422L374.884 242.994C374.696 242.76 374.125 242.044 374.305 241.187C374.484 240.331 375.238 239.933 375.906 239.584C376.607 239.215 377.076 238.938 377.204 238.459C377.329 237.989 377.229 237.035 376.036 235.16C373.089 230.531 365.278 227.319 356.142 227.546Z" fill="#242C42"/>
<path d="M336.102 241.843C335.68 241.853 335.281 241.594 335.134 241.176C334.951 240.655 335.224 240.083 335.744 239.899C342.894 237.378 350.639 236.621 358.138 237.712C358.685 237.791 359.064 238.299 358.983 238.845C358.904 239.391 358.397 239.774 357.851 239.691C350.672 238.648 343.256 239.372 336.41 241.786C336.308 241.822 336.204 241.84 336.102 241.843Z" fill="white"/>
<path d="M370.364 253.856C370.335 253.857 370.304 253.856 370.274 253.854C366.217 253.593 362.302 252.569 358.639 250.813C345.991 245.238 336.858 244.737 335.828 244.697L331.152 245.593C330.854 245.653 330.55 245.57 330.319 245.375L326.647 242.275C326.225 241.919 326.173 241.289 326.529 240.867C326.885 240.445 327.517 240.39 327.939 240.748L331.244 243.539L335.56 242.713C335.627 242.699 335.696 242.695 335.765 242.695C336.164 242.702 345.709 242.929 359.475 248.997C362.935 250.655 366.601 251.614 370.402 251.858C370.954 251.894 371.372 252.369 371.337 252.921C371.302 253.442 370.875 253.843 370.364 253.856Z" fill="white"/>
<path d="M375.645 252.649C375.283 252.658 374.93 252.47 374.743 252.131C374.478 251.646 374.655 251.038 375.138 250.773C375.342 250.662 375.518 250.513 375.659 250.33C375.803 250.147 375.906 249.94 375.965 249.714C376.024 249.491 376.037 249.261 376.003 249.031C375.969 248.802 375.889 248.585 375.767 248.386C375.478 247.915 375.623 247.299 376.094 247.01C376.565 246.72 377.18 246.866 377.469 247.337C377.734 247.768 377.906 248.239 377.98 248.737C378.055 249.237 378.028 249.739 377.899 250.226C377.769 250.715 377.547 251.163 377.237 251.561C376.926 251.959 376.543 252.284 376.1 252.527C375.956 252.606 375.799 252.645 375.645 252.649Z" fill="white"/>
<path d="M339.306 274.299C339.256 274.3 339.206 274.296 339.155 274.291C338.611 274.221 338.223 273.732 338.287 273.187C338.319 272.923 339.157 266.722 348.707 266.484C349.259 266.471 349.718 266.907 349.732 267.459C349.746 268.011 349.309 268.47 348.757 268.484C341.013 268.677 340.299 273.236 340.273 273.43C340.205 273.922 339.789 274.287 339.306 274.299Z" fill="#242C42"/>
<path d="M366.604 273.623C366.117 273.635 365.681 273.291 365.595 272.798C365.557 272.596 364.609 268.089 356.875 268.282C356.322 268.295 355.864 267.859 355.85 267.307C355.836 266.755 356.272 266.296 356.825 266.282C366.376 266.044 367.521 272.195 367.566 272.457C367.658 273.001 367.29 273.518 366.745 273.609C366.698 273.618 366.651 273.622 366.604 273.623Z" fill="#242C42"/>
<path d="M345.902 277.865C344.421 277.902 342.994 277.247 341.776 275.971C341.395 275.571 341.409 274.94 341.808 274.558C342.208 274.177 342.842 274.192 343.223 274.591C344.859 276.304 346.866 276.253 348.418 274.46C348.78 274.043 349.41 273.996 349.828 274.358C350.246 274.72 350.292 275.351 349.93 275.769C348.776 277.103 347.383 277.828 345.902 277.865Z" fill="#242C42"/>
<path d="M360.922 277.491C359.442 277.528 358.015 276.873 356.795 275.598C356.413 275.198 356.428 274.566 356.827 274.184C357.225 273.804 357.859 273.817 358.24 274.216C359.881 275.929 361.883 275.881 363.438 274.086C363.8 273.669 364.431 273.623 364.849 273.985C365.266 274.347 365.311 274.978 364.949 275.395C363.794 276.729 362.401 277.454 360.922 277.491Z" fill="#242C42"/>
<path d="M351.756 299.283C347.55 299.387 345.095 297.833 344.945 297.735C344.482 297.433 344.354 296.813 344.655 296.351C344.956 295.89 345.572 295.76 346.034 296.057C346.226 296.18 350.836 299.022 358.543 295.646C359.044 295.426 359.637 295.655 359.859 296.161C360.081 296.666 359.851 297.257 359.345 297.479C356.421 298.76 353.868 299.23 351.756 299.283Z" fill="#242C42"/>
<path d="M454.304 301.311C453.173 303.177 453.76 305.575 455.625 306.705L490.555 327.887L494.796 320.891" fill="#F5F6FA"/>
<path d="M454.304 301.311C453.172 303.177 453.76 305.575 455.625 306.705L490.555 327.886L494.796 320.891L458.478 294.979L454.304 301.311Z" fill="#F5F6FA"/>
<path d="M490.534 328.888C490.36 328.884 490.188 328.834 490.037 328.743L455.107 307.561C453.976 306.876 453.182 305.797 452.87 304.523C452.558 303.249 452.763 301.925 453.449 300.794C453.456 300.783 453.462 300.773 453.47 300.762L457.644 294.428C457.794 294.202 458.028 294.047 458.295 293.996C458.561 293.946 458.837 294.007 459.06 294.165L495.378 320.078C495.805 320.381 495.924 320.964 495.652 321.411L491.411 328.406C491.273 328.632 491.052 328.796 490.794 328.858C490.709 328.879 490.621 328.89 490.534 328.888ZM455.151 301.847C454.749 302.518 454.629 303.299 454.813 304.048C454.997 304.803 455.469 305.442 456.144 305.851L490.219 326.513L493.461 321.167L458.742 296.396L455.151 301.847Z" fill="#364261"/>
<path d="M491.704 266.58C491.7 266.58 491.695 266.58 491.691 266.58C491.329 266.567 491.003 266.361 490.837 266.04L489.152 262.776L485.481 262.791C485.103 262.798 484.785 262.599 484.607 262.284C484.428 261.969 484.434 261.582 484.622 261.273L492.2 248.775C492.486 248.302 493.101 248.152 493.574 248.438C494.047 248.725 494.197 249.339 493.91 249.812L487.257 260.784L489.756 260.774C490.122 260.761 490.476 260.981 490.649 261.315L491.796 263.537L498.449 252.564C498.735 252.091 499.351 251.941 499.823 252.228C500.296 252.514 500.445 253.129 500.159 253.601L492.581 266.099C492.395 266.405 492.061 266.588 491.704 266.58Z" fill="#364261"/>
<path d="M491.423 248.303C489.418 247.088 486.795 247.73 485.58 249.735L456.51 297.675L454.303 301.312C455.519 299.308 458.142 298.665 460.147 299.881L481.646 312.917L497.78 322.702L529.057 271.125L491.423 248.303Z" fill="#F5F6FA"/>
<path d="M497.758 323.702C497.584 323.698 497.412 323.649 497.261 323.558L459.627 300.736C458.091 299.804 456.088 300.297 455.159 301.832C454.872 302.304 454.255 302.454 453.785 302.167C453.312 301.881 453.162 301.266 453.448 300.794L484.724 249.216C485.45 248.019 486.602 247.175 487.967 246.84C489.332 246.508 490.743 246.722 491.941 247.448L529.575 270.27C530.048 270.556 530.198 271.17 529.912 271.643L498.636 323.221C498.498 323.447 498.276 323.611 498.018 323.673C497.933 323.695 497.845 323.704 497.758 323.702ZM458.063 298.267C458.954 298.287 459.85 298.532 460.664 299.026L497.443 321.328L527.683 271.461L490.904 249.159C490.162 248.708 489.287 248.576 488.442 248.783C487.596 248.99 486.884 249.513 486.435 250.253L457.295 298.307C457.549 298.275 457.806 298.262 458.063 298.267Z" fill="#364261"/>
<path d="M493.698 301.786C493.528 301.783 493.357 301.736 493.202 301.642L477.347 292.026C476.874 291.74 476.723 291.125 477.009 290.653C477.295 290.18 477.911 290.03 478.384 290.316L494.239 299.932C494.712 300.218 494.862 300.833 494.576 301.305C494.383 301.622 494.044 301.794 493.698 301.786Z" fill="#364261"/>
<path d="M490.164 307.615C489.994 307.611 489.823 307.565 489.668 307.471L473.813 297.856C473.34 297.57 473.189 296.953 473.475 296.481C473.761 296.008 474.377 295.857 474.85 296.145L490.705 305.76C491.178 306.046 491.328 306.661 491.042 307.133C490.849 307.45 490.51 307.622 490.164 307.615Z" fill="#364261"/>
<path d="M509.01 297.875L524.563 272.225L510.385 263.628C513.889 270.473 514.609 278.436 512.488 285.825L509.01 297.875Z" fill="#0561B6"/>
<path d="M493.024 289.054C492.124 289.035 491.24 288.778 490.45 288.3C489.255 287.576 488.418 286.429 488.092 285.073C487.769 283.728 487.985 282.337 488.7 281.157C488.986 280.684 489.602 280.534 490.074 280.822C490.547 281.108 490.697 281.722 490.411 282.195C489.971 282.921 489.837 283.777 490.036 284.606C490.237 285.44 490.752 286.144 491.487 286.59C492.213 287.03 493.069 287.163 493.898 286.963C494.731 286.763 495.435 286.248 495.881 285.513C496.687 284.185 496.343 282.982 494.565 280.916C493.735 279.953 491.21 277.02 493.054 273.977C494.541 271.525 497.746 270.74 500.197 272.226C502.646 273.713 503.433 276.918 501.947 279.368C501.659 279.841 501.044 279.989 500.573 279.705C500.1 279.419 499.95 278.804 500.237 278.332C501.151 276.824 500.667 274.852 499.16 273.936C497.648 273.022 495.678 273.505 494.765 275.014C494.009 276.259 494.415 277.677 496.08 279.611C497.74 281.539 499.216 283.87 497.591 286.55C496.867 287.744 495.721 288.583 494.365 288.909C493.92 289.015 493.469 289.063 493.024 289.054Z" fill="#364261"/>
<path d="M499.626 274.128C499.456 274.125 499.285 274.078 499.13 273.984C498.657 273.698 498.507 273.082 498.793 272.609L500.011 270.604C500.297 270.132 500.911 269.981 501.384 270.268C501.857 270.555 502.007 271.169 501.721 271.642L500.503 273.647C500.31 273.963 499.972 274.136 499.626 274.128Z" fill="#364261"/>
<path d="M489.73 290.45C489.56 290.447 489.389 290.4 489.234 290.306C488.761 290.019 488.611 289.405 488.897 288.932L490.142 286.879C490.428 286.406 491.043 286.256 491.515 286.542C491.988 286.828 492.138 287.443 491.852 287.916L490.607 289.969C490.414 290.286 490.076 290.458 489.73 290.45Z" fill="#364261"/>
<path d="M436.728 209.876L392.912 182.505C390.023 180.701 389.069 176.869 390.924 173.9L405.513 150.548C407.317 147.659 411.148 146.705 414.118 148.56L458.013 175.982C460.902 177.787 461.856 181.618 460.001 184.587L445.362 208.02C443.477 210.859 439.696 211.732 436.728 209.876Z" fill="#F5F6FA"/>
<path d="M439.946 211.853C438.664 211.826 437.371 211.459 436.197 210.725L392.382 183.353C390.751 182.334 389.609 180.742 389.166 178.87C388.72 176.979 389.043 175.025 390.077 173.37L404.665 150.018C406.782 146.63 411.257 145.596 414.647 147.712L458.544 175.134C460.174 176.154 461.316 177.746 461.759 179.618C462.205 181.509 461.882 183.462 460.849 185.117L446.211 208.549C444.755 210.742 442.371 211.905 439.946 211.853ZM410.931 148.615C409.141 148.576 407.375 149.453 406.361 151.078L391.772 174.43C391.022 175.629 390.788 177.042 391.113 178.409C391.434 179.766 392.261 180.92 393.442 181.657L437.257 209.029C439.729 210.574 442.922 209.887 444.529 207.467L459.153 184.058C459.903 182.858 460.137 181.445 459.813 180.078C459.492 178.722 458.664 177.568 457.483 176.83L413.587 149.409C412.759 148.892 411.842 148.634 410.931 148.615Z" fill="#364261"/>
<path d="M417.23 161.438C416.026 163.364 413.549 163.936 411.623 162.733C409.697 161.53 409.125 159.052 410.328 157.127C411.531 155.201 414.008 154.629 415.935 155.832C417.86 157.035 418.432 159.512 417.23 161.438Z" fill="#53BBF5"/>
<path d="M447.896 185.392L442.52 182.034C441.476 181.382 441.145 179.948 441.797 178.904L443.702 175.855C444.353 174.811 445.787 174.48 446.83 175.132L452.207 178.491C453.25 179.143 453.58 180.576 452.929 181.619L451.076 184.589C450.373 185.712 448.939 186.044 447.896 185.392Z" fill="#0561B6"/>
<path d="M421.793 159.492C421.151 159.091 420.489 158.901 419.726 158.87C419.867 160.073 419.537 161.318 418.834 162.441C418.132 163.564 417.21 164.327 416.017 164.809C416.298 165.431 416.84 165.992 417.481 166.393C419.407 167.595 421.885 167.023 423.087 165.098C424.291 163.172 423.638 160.645 421.793 159.492Z" fill="#0561B6"/>
<path d="M399.937 173.25C400.696 173.724 400.927 174.726 400.453 175.486C399.978 176.246 398.977 176.476 398.217 176.002C397.457 175.527 397.226 174.526 397.701 173.766C398.175 173.006 399.177 172.775 399.937 173.25Z" fill="#364261"/>
<path d="M403.605 175.542C404.365 176.017 404.596 177.018 404.121 177.778C403.647 178.538 402.646 178.769 401.886 178.294C401.126 177.82 400.895 176.818 401.37 176.058C401.844 175.298 402.845 175.068 403.605 175.542Z" fill="#364261"/>
<path d="M407.274 177.834C408.034 178.308 408.264 179.309 407.79 180.069C407.315 180.829 406.314 181.06 405.554 180.585C404.794 180.111 404.564 179.11 405.038 178.35C405.513 177.59 406.514 177.359 407.274 177.834Z" fill="#364261"/>
<path d="M410.942 180.125C411.702 180.6 411.933 181.601 411.458 182.361C410.984 183.121 409.983 183.351 409.223 182.877C408.463 182.402 408.232 181.401 408.707 180.641C409.181 179.881 410.182 179.651 410.942 180.125Z" fill="#364261"/>
<path d="M415.528 182.99C416.288 183.465 416.518 184.466 416.044 185.226C415.569 185.986 414.568 186.217 413.808 185.742C413.048 185.268 412.818 184.266 413.292 183.506C413.767 182.746 414.768 182.516 415.528 182.99Z" fill="#364261"/>
<path d="M419.196 185.282C419.956 185.756 420.187 186.758 419.712 187.518C419.238 188.277 418.237 188.508 417.477 188.034C416.717 187.559 416.486 186.558 416.961 185.798C417.435 185.038 418.436 184.807 419.196 185.282Z" fill="#364261"/>
<path d="M422.865 187.573C423.625 188.048 423.855 189.049 423.381 189.809C422.907 190.569 421.905 190.799 421.145 190.325C420.385 189.85 420.155 188.849 420.629 188.089C421.104 187.329 422.105 187.099 422.865 187.573Z" fill="#364261"/>
<path d="M426.533 189.866C427.293 190.34 427.524 191.341 427.049 192.101C426.575 192.861 425.574 193.092 424.814 192.617C424.054 192.143 423.823 191.142 424.298 190.382C424.772 189.622 425.773 189.391 426.533 189.866Z" fill="#364261"/>
<path d="M431.119 192.73C431.879 193.204 432.109 194.206 431.635 194.966C431.16 195.725 430.159 195.956 429.399 195.482C428.639 195.007 428.409 194.006 428.883 193.246C429.358 192.486 430.359 192.255 431.119 192.73Z" fill="#364261"/>
<path d="M434.788 195.021C435.548 195.496 435.778 196.497 435.304 197.257C434.829 198.017 433.828 198.248 433.068 197.773C432.308 197.299 432.078 196.297 432.552 195.537C433.026 194.777 434.028 194.547 434.788 195.021Z" fill="#364261"/>
<path d="M438.456 197.314C439.216 197.788 439.447 198.789 438.972 199.549C438.498 200.309 437.496 200.54 436.736 200.065C435.977 199.591 435.746 198.59 436.22 197.83C436.695 197.07 437.696 196.839 438.456 197.314Z" fill="#364261"/>
<path d="M442.124 199.605C442.884 200.08 443.114 201.081 442.64 201.841C442.165 202.601 441.164 202.831 440.404 202.357C439.644 201.882 439.414 200.881 439.888 200.121C440.363 199.361 441.364 199.131 442.124 199.605Z" fill="#364261"/>
<path d="M435.548 216.57L384.777 196.483C381.429 195.159 379.707 191.359 381.068 187.918L391.773 160.859C393.098 157.511 396.898 155.789 400.339 157.15L451.202 177.274C454.55 178.598 456.273 182.398 454.912 185.839L444.169 212.991C442.752 216.302 438.988 217.931 435.548 216.57Z" fill="#F5F6FA"/>
<path d="M438.046 218.051C437.094 218.051 436.123 217.874 435.179 217.5L384.408 197.413C382.532 196.671 381.052 195.244 380.24 193.396C379.421 191.53 379.383 189.454 380.137 187.55L390.843 160.491C392.386 156.594 396.809 154.678 400.707 156.22L451.569 176.344C453.445 177.086 454.926 178.512 455.738 180.36C456.557 182.226 456.595 184.303 455.841 186.207L445.098 213.358C443.839 216.3 441.032 218.051 438.046 218.051ZM397.918 157.687C395.687 157.687 393.572 159.03 392.702 161.227L381.997 188.286C381.442 189.69 381.468 191.219 382.071 192.592C382.67 193.955 383.761 195.006 385.144 195.553L435.916 215.64C438.812 216.786 442.03 215.447 443.25 212.597L453.981 185.471C454.536 184.067 454.51 182.539 453.907 181.165C453.308 179.803 452.217 178.751 450.833 178.204L399.97 158.08C399.296 157.813 398.602 157.687 397.918 157.687Z" fill="#364261"/>
<path d="M406.032 169.941C405.149 172.173 402.683 173.24 400.452 172.357C398.22 171.474 397.151 169.009 398.034 166.777C398.917 164.545 401.383 163.478 403.615 164.361C405.846 165.244 406.915 167.709 406.032 169.941Z" fill="#53BBF5"/>
<path d="M442.482 188.986L436.252 186.522C435.043 186.044 434.425 184.616 434.903 183.407L436.301 179.873C436.779 178.664 438.207 178.047 439.415 178.525L445.646 180.99C446.854 181.468 447.473 182.895 446.994 184.104L445.633 187.545C445.118 188.847 443.691 189.464 442.482 188.986Z" fill="#0561B6"/>
<path d="M410.404 167.046C409.66 166.752 408.935 166.681 408.137 166.795C408.513 168.019 408.407 169.375 407.892 170.677C407.377 171.979 406.563 172.947 405.415 173.676C405.825 174.269 406.496 174.749 407.24 175.043C409.471 175.926 411.937 174.859 412.82 172.627C413.703 170.395 412.542 167.892 410.404 167.046Z" fill="#0561B6"/>
<path d="M390.311 185.522C391.191 185.87 391.622 186.867 391.274 187.747C390.926 188.627 389.929 189.058 389.049 188.71C388.169 188.362 387.738 187.365 388.086 186.485C388.434 185.605 389.431 185.174 390.311 185.522Z" fill="#364261"/>
<path d="M394.562 187.204C395.442 187.552 395.873 188.549 395.525 189.429C395.177 190.309 394.18 190.74 393.3 190.392C392.42 190.044 391.989 189.047 392.337 188.167C392.685 187.287 393.682 186.856 394.562 187.204Z" fill="#364261"/>
<path d="M398.813 188.886C399.693 189.234 400.124 190.231 399.776 191.111C399.428 191.991 398.431 192.422 397.551 192.074C396.671 191.726 396.24 190.729 396.588 189.849C396.936 188.969 397.933 188.538 398.813 188.886Z" fill="#364261"/>
<path d="M403.065 190.568C403.945 190.916 404.376 191.913 404.028 192.793C403.68 193.673 402.683 194.104 401.803 193.756C400.923 193.408 400.492 192.411 400.84 191.531C401.188 190.651 402.185 190.22 403.065 190.568Z" fill="#364261"/>
<path d="M408.378 192.67C409.258 193.018 409.689 194.015 409.341 194.895C408.993 195.775 407.996 196.206 407.116 195.858C406.236 195.51 405.805 194.513 406.153 193.633C406.501 192.753 407.498 192.322 408.378 192.67Z" fill="#364261"/>
<path d="M412.629 194.352C413.509 194.7 413.94 195.697 413.592 196.577C413.244 197.457 412.247 197.888 411.367 197.54C410.487 197.192 410.056 196.195 410.404 195.315C410.752 194.435 411.749 194.004 412.629 194.352Z" fill="#364261"/>
<path d="M416.879 196.034C417.759 196.382 418.19 197.379 417.842 198.259C417.494 199.139 416.497 199.57 415.617 199.222C414.737 198.874 414.306 197.877 414.654 196.997C415.002 196.117 415.999 195.686 416.879 196.034Z" fill="#364261"/>
<path d="M421.13 197.715C422.01 198.063 422.441 199.06 422.093 199.94C421.745 200.82 420.748 201.251 419.868 200.903C418.988 200.555 418.557 199.558 418.905 198.678C419.253 197.798 420.25 197.367 421.13 197.715Z" fill="#364261"/>
<path d="M426.443 199.818C427.323 200.166 427.754 201.163 427.406 202.043C427.058 202.923 426.061 203.354 425.181 203.006C424.301 202.658 423.87 201.661 424.218 200.781C424.566 199.901 425.563 199.47 426.443 199.818Z" fill="#364261"/>
<path d="M430.694 201.499C431.574 201.847 432.005 202.844 431.657 203.724C431.309 204.604 430.312 205.035 429.432 204.687C428.552 204.339 428.121 203.342 428.469 202.462C428.817 201.582 429.814 201.151 430.694 201.499Z" fill="#364261"/>
<path d="M434.945 203.181C435.825 203.529 436.256 204.526 435.908 205.406C435.56 206.286 434.563 206.717 433.683 206.369C432.803 206.021 432.372 205.024 432.72 204.144C433.068 203.264 434.065 202.833 434.945 203.181Z" fill="#364261"/>
<path d="M439.196 204.863C440.076 205.211 440.507 206.208 440.159 207.088C439.811 207.968 438.814 208.399 437.934 208.051C437.054 207.703 436.623 206.706 436.971 205.826C437.319 204.946 438.316 204.515 439.196 204.863Z" fill="#364261"/>
<path d="M174.381 286.341C174.015 286.333 173.669 286.125 173.5 285.773C173.262 285.274 173.473 284.678 173.971 284.439L228.144 258.536C228.642 258.296 229.238 258.508 229.477 259.007C229.715 259.505 229.504 260.103 229.006 260.341L174.834 286.243C174.687 286.313 174.532 286.344 174.381 286.341Z" fill="#364261"/>
<path d="M170.823 294.504C170.397 294.495 169.972 294.419 169.561 294.273C168.538 293.912 167.716 293.167 167.242 292.177C166.768 291.187 166.706 290.079 167.067 289.056C167.428 288.035 168.172 287.211 169.163 286.738L173.971 284.438C174.469 284.197 175.066 284.411 175.304 284.909C175.543 285.407 175.332 286.004 174.834 286.242L170.025 288.542C169.517 288.785 169.136 289.204 168.953 289.722C168.77 290.24 168.803 290.806 169.046 291.313C169.289 291.823 169.709 292.204 170.227 292.387C170.746 292.569 171.309 292.535 171.819 292.294L173.848 291.322C174.346 291.082 174.943 291.294 175.182 291.792C175.421 292.29 175.211 292.888 174.713 293.126L172.682 294.098C172.09 294.381 171.456 294.518 170.823 294.504Z" fill="#364261"/>
<path d="M233.989 264.666C233.623 264.658 233.276 264.451 233.108 264.098C232.87 263.6 233.081 263.003 233.579 262.765L235.609 261.793C236.661 261.291 237.09 260.073 236.588 259.021C236.345 258.512 235.925 258.131 235.407 257.948C234.89 257.767 234.323 257.8 233.815 258.042L229.007 260.341C228.507 260.579 227.911 260.368 227.674 259.87C227.435 259.372 227.645 258.775 228.143 258.537L232.952 256.237C233.941 255.763 235.051 255.702 236.072 256.063C237.095 256.424 237.918 257.168 238.392 258.158C239.379 260.222 238.535 262.611 236.472 263.598L234.441 264.569C234.295 264.639 234.14 264.669 233.989 264.666Z" fill="#364261"/>
<path d="M231.231 264.995L251.335 307.04L197.162 332.942L177.059 290.897" fill="#F5F6FA"/>
<path d="M197.142 333.941C196.776 333.933 196.428 333.726 196.26 333.373L176.156 291.328C176.042 291.088 176.027 290.814 176.116 290.564C176.204 290.314 176.388 290.11 176.627 289.995L230.801 264.093C231.299 263.852 231.895 264.064 232.134 264.563L252.236 306.608C252.475 307.106 252.265 307.704 251.767 307.942L197.593 333.844C197.447 333.914 197.293 333.944 197.142 333.941ZM178.392 291.367L197.633 331.608L250.002 306.569L230.761 266.328L178.392 291.367Z" fill="#364261"/>
<path d="M230.204 326.268C229.565 324.932 227.986 324.375 226.65 325.014C225.314 325.652 224.757 327.231 225.395 328.567C226.034 329.902 227.613 330.46 228.949 329.822C230.259 329.13 230.817 327.551 230.204 326.268Z" fill="#F5F6FA"/>
<path d="M227.722 331.074C226.376 331.045 225.108 330.281 224.494 328.998C223.622 327.175 224.396 324.982 226.219 324.111C227.107 323.687 228.101 323.633 229.021 323.957C229.941 324.282 230.682 324.949 231.106 325.836C231.957 327.617 231.215 329.756 229.416 330.706C228.866 330.969 228.287 331.086 227.722 331.074ZM227.842 325.749C227.583 325.744 227.324 325.799 227.082 325.915C226.24 326.318 225.896 327.294 226.298 328.136C226.702 328.978 227.676 329.322 228.518 328.919C229.314 328.499 229.682 327.494 229.302 326.699C229.108 326.294 228.772 325.99 228.355 325.843C228.189 325.784 228.015 325.753 227.842 325.749Z" fill="#364261"/>
<path d="M226.629 326.013C226.263 326.005 225.917 325.798 225.748 325.445L223.347 320.423C223.108 319.925 223.319 319.328 223.818 319.09C224.315 318.849 224.912 319.062 225.151 319.56L227.552 324.583C227.791 325.081 227.58 325.678 227.082 325.916C226.935 325.986 226.78 326.016 226.629 326.013Z" fill="#364261"/>
<path d="M195.354 298.821L191.08 300.865L200.352 320.259L204.626 318.214L195.354 298.821Z" fill="#53BBF5"/>
<path d="M211.213 302.2L206.939 304.244L211.946 314.715L216.22 312.671L211.213 302.2Z" fill="#0561B6"/>
<path d="M218.594 287.709L214.32 289.753L223.592 309.147L227.866 307.103L218.594 287.709Z" fill="#53BBF5"/>
<path d="M233.738 289.593L229.463 291.635L235.185 303.603L239.46 301.56L233.738 289.593Z" fill="#0561B6"/>
<path d="M205.684 297.17C205.622 297.169 205.559 297.162 205.496 297.149L189.637 293.77C189.097 293.655 188.752 293.123 188.867 292.583C188.983 292.044 189.512 291.699 190.054 291.814L205.161 295.032L212.194 281.226C212.385 280.851 212.794 280.633 213.209 280.688L228.352 282.571C228.899 282.639 229.29 283.138 229.221 283.686C229.153 284.234 228.66 284.631 228.105 284.555L213.657 282.759L206.596 296.625C206.419 296.971 206.062 297.178 205.684 297.17Z" fill="#364261"/>
<path d="M254.411 173.063C247.987 179.18 244.51 189.885 248.315 197.352C249.986 200.628 251.866 203.256 254.467 204.773C257.311 206.504 259.809 208.749 261.878 211.349C262.995 212.742 263.63 214.652 265.205 216.15C266.617 217.46 268.696 217.821 270.415 216.945L273.208 215.521C275.088 214.563 275.528 212.106 274.06 210.553C272.021 208.412 270.105 204.787 268.187 200.758" fill="#F5F6FA"/>
<path d="M271.523 207.11C277.988 206.251 286.236 202.047 286.397 201.965C287.955 201.171 289.431 200.35 290.8 199.585C292.009 198.901 293.52 199.079 294.526 200.123C294.825 200.444 295.178 200.737 295.477 201.059C296.481 201.968 297.858 202.146 299.04 201.544L302.638 199.709C304.573 198.723 304.985 196.214 303.463 194.688C302.43 193.591 298.724 188.576 297.079 184.949" fill="#F5F6FA"/>
<path d="M302.034 192.912C320.424 179.073 317.065 168.401 315.23 164.667C314.82 163.862 313.846 163.544 313.041 163.955L311.537 164.722C304.877 157.897 293.719 158.442 293.719 158.442C292.784 156.076 293.053 152.489 293.28 150.545C293.33 149.979 292.707 149.551 292.197 149.879C288.683 152.279 286.171 155.184 284.659 158.459C281.506 158.644 276.14 158.739 272.191 160.55" fill="#F5F6FA"/>
<path d="M254.411 173.063C247.987 179.18 244.51 189.885 248.315 197.351C249.986 200.628 251.866 203.255 254.467 204.772C257.311 206.503 259.809 208.749 261.879 211.349C262.995 212.742 263.63 214.652 265.205 216.15C266.617 217.46 268.696 217.821 270.415 216.945L273.208 215.521C275.088 214.563 275.528 212.106 274.06 210.553C273.195 209.645 272.352 208.469 271.523 207.109C277.987 206.25 286.236 202.047 286.397 201.965C287.955 201.171 289.431 200.35 290.8 199.585C292.009 198.901 293.52 199.078 294.525 200.122C294.825 200.443 295.178 200.737 295.477 201.059C296.481 201.968 297.857 202.146 299.04 201.543L302.638 199.709C304.573 198.723 304.985 196.214 303.463 194.688C303.168 194.374 302.655 193.741 302.034 192.912C320.424 179.073 317.065 168.401 315.23 164.667C314.82 163.862 313.846 163.545 313.041 163.956L311.537 164.723C304.877 157.898 293.719 158.442 293.719 158.442C292.784 156.076 293.053 152.489 293.28 150.545C293.33 149.978 292.707 149.552 292.197 149.88C288.683 152.279 286.171 155.184 284.659 158.458C281.506 158.644 276.14 158.739 272.191 160.55C265.627 162.011 257.603 169.502 254.411 173.063Z" fill="#F5F6FA"/>
<path d="M268.594 218.417C267.136 218.464 265.659 217.935 264.524 216.883C263.463 215.874 262.797 214.72 262.208 213.701C261.841 213.068 261.496 212.47 261.098 211.974C259.052 209.405 256.647 207.269 253.947 205.626C251.457 204.174 249.44 201.76 247.424 197.806C243.243 189.599 247.342 178.412 253.721 172.339C257.035 168.636 265.151 161.152 271.87 159.597C275.57 157.934 280.373 157.682 283.559 157.516L284.014 157.492C285.645 154.23 288.207 151.394 291.633 149.054C292.206 148.684 292.893 148.676 293.45 149.012C294.018 149.355 294.335 149.976 294.276 150.633C293.94 153.509 293.997 155.831 294.436 157.431C297.067 157.436 305.777 157.902 311.724 163.505L312.587 163.064C313.215 162.746 313.926 162.689 314.593 162.904C315.259 163.121 315.802 163.585 316.122 164.213C318.679 169.415 320.357 180.004 303.438 193.099C303.756 193.504 304.014 193.813 304.183 193.993C305.124 194.943 305.545 196.236 305.337 197.542C305.127 198.865 304.308 199.98 303.092 200.6L299.494 202.435C297.943 203.223 296.102 202.975 294.806 201.8C294.611 201.596 294.463 201.458 294.315 201.318C294.136 201.15 293.959 200.981 293.794 200.805C293.141 200.126 292.131 199.982 291.293 200.454C289.896 201.236 288.406 202.063 286.851 202.856C286.529 203.02 279.444 206.61 273.188 207.845C273.686 208.573 274.191 209.227 274.699 209.774C274.727 209.804 274.756 209.834 274.784 209.865C274.786 209.865 274.789 209.867 274.79 209.869C275.703 210.837 276.099 212.133 275.876 213.426C275.653 214.721 274.845 215.809 273.662 216.412L270.869 217.836C270.153 218.201 269.376 218.391 268.594 218.417ZM292.216 151.087C289.19 153.266 286.947 155.887 285.567 158.877C285.412 159.212 285.087 159.435 284.718 159.457L283.663 159.514C280.602 159.674 275.974 159.915 272.607 161.459C272.543 161.488 272.477 161.511 272.408 161.526C266.165 162.917 258.393 170.117 255.156 173.731C247.654 180.878 246.255 191.106 249.206 196.897C251.037 200.488 252.815 202.651 254.971 203.908C257.889 205.683 260.47 207.974 262.661 210.726C263.151 211.337 263.551 212.03 263.939 212.7C264.486 213.645 265.051 214.623 265.894 215.425C267.015 216.464 268.653 216.721 269.962 216.053L272.754 214.63C273.37 214.316 273.789 213.754 273.905 213.086C274.019 212.42 273.812 211.748 273.335 211.242C273.33 211.236 273.325 211.231 273.32 211.225C273.264 211.167 273.208 211.107 273.153 211.047C272.717 210.571 272.279 210.025 271.834 209.402C270.201 207.122 268.693 204.145 267.285 201.187C267.048 200.688 267.259 200.091 267.758 199.854C268.257 199.619 268.853 199.829 269.091 200.327C269.996 202.23 270.993 204.24 272.039 206.022C278.162 205.017 285.617 201.24 285.943 201.074C287.466 200.298 288.937 199.482 290.312 198.712C291.953 197.784 293.938 198.071 295.246 199.429C295.392 199.586 295.54 199.723 295.688 199.862C295.866 200.031 296.044 200.201 296.209 200.377C296.835 200.941 297.77 201.069 298.586 200.652L302.184 198.818C302.824 198.492 303.253 197.913 303.362 197.228C303.468 196.558 303.249 195.889 302.757 195.396C302.754 195.393 302.751 195.39 302.748 195.387C302.748 195.386 302.748 195.386 302.747 195.385C302.742 195.38 302.737 195.375 302.732 195.37C302.394 195.01 301.862 194.35 301.234 193.511C301.218 193.491 301.203 193.469 301.19 193.448C299.614 191.34 297.386 188.045 296.168 185.362C295.94 184.859 296.162 184.267 296.665 184.038C297.168 183.811 297.76 184.032 297.989 184.535C299.001 186.767 300.802 189.51 302.237 191.499C318.011 179.283 316.612 169.746 314.333 165.108C314.262 164.969 314.133 164.857 313.975 164.806C313.815 164.753 313.644 164.769 313.495 164.847L311.991 165.614C311.599 165.812 311.125 165.733 310.821 165.42C304.564 159.009 293.87 159.429 293.767 159.441C293.379 159.459 292.947 159.208 292.789 158.81C291.924 156.62 291.976 153.515 292.216 151.087Z" fill="#364261"/>
<path d="M274.173 165.9C274.004 164.769 273.67 163.584 273.123 162.51C270.44 157.246 263.952 155.139 258.688 157.823C253.424 160.506 251.317 166.993 254 172.257C254.876 173.976 256.127 175.368 257.617 176.301" fill="#F5F6FA"/>
<path d="M257.648 177.301C257.457 177.308 257.262 177.259 257.087 177.149C255.439 176.118 254.063 174.584 253.109 172.712C251.69 169.929 251.444 166.75 252.413 163.763C253.383 160.776 255.45 158.351 258.234 156.932C261.018 155.511 264.197 155.266 267.183 156.236C270.17 157.206 272.596 159.274 274.015 162.058C274.566 163.141 274.962 164.418 275.162 165.753C275.244 166.299 274.867 166.809 274.321 166.89C273.776 166.976 273.266 166.595 273.184 166.05C273.016 164.925 272.687 163.858 272.233 162.965C271.057 160.657 269.043 158.942 266.565 158.138C264.087 157.332 261.45 157.538 259.143 158.715C256.834 159.891 255.119 161.904 254.315 164.382C253.51 166.86 253.713 169.495 254.891 171.803C255.68 173.353 256.806 174.615 258.148 175.454C258.616 175.747 258.759 176.363 258.466 176.832C258.282 177.125 257.97 177.291 257.648 177.301Z" fill="#364261"/>
<path d="M261.333 172.039C260.331 171.534 259.462 170.758 258.914 169.685C257.627 167.16 258.601 164.025 261.18 162.711C263.705 161.424 266.84 162.397 268.153 164.976C268.537 165.728 268.706 166.589 268.712 167.398" fill="#F5F6FA"/>
<path d="M262.42 173.515C262.27 173.52 262.118 173.492 261.976 173.428L260.921 172.95C260.908 172.945 260.895 172.938 260.883 172.932C259.621 172.296 258.631 171.33 258.024 170.139C257.277 168.676 257.143 167.006 257.645 165.439C258.151 163.86 259.245 162.574 260.726 161.819C262.19 161.072 263.858 160.938 265.426 161.441C267.005 161.947 268.29 163.042 269.045 164.521C269.474 165.363 269.705 166.355 269.712 167.391C269.712 167.433 269.71 167.474 269.705 167.515L269.553 168.81C269.514 169.136 269.318 169.422 269.029 169.576C266.478 170.931 265.176 171.738 262.973 173.327C262.809 173.446 262.616 173.509 262.42 173.515ZM261.765 171.137L262.274 171.367C264.143 170.038 265.478 169.213 267.628 168.058L267.712 167.346C267.698 166.651 267.539 165.972 267.263 165.43C266.752 164.428 265.884 163.688 264.816 163.346C263.755 163.005 262.623 163.096 261.635 163.602C260.633 164.112 259.891 164.981 259.55 166.049C259.21 167.111 259.301 168.24 259.806 169.23C260.223 170.046 260.881 170.688 261.765 171.137Z" fill="#364261"/>
<path d="M301.675 167.67C302.698 167.148 303.105 165.896 302.584 164.872C302.062 163.848 300.809 163.441 299.785 163.963C298.761 164.484 298.355 165.737 298.877 166.76C299.398 167.784 300.651 168.191 301.675 167.67Z" fill="#364261"/>
<path d="M312.834 170.491C312.822 170.492 312.811 170.492 312.799 170.492C312.246 170.49 311.8 170.042 311.801 169.49C311.806 167.154 310.624 165.157 310.612 165.137C310.327 164.664 310.481 164.05 310.954 163.764C311.428 163.48 312.042 163.634 312.326 164.106C312.387 164.207 313.808 166.607 313.801 169.494C313.799 170.035 313.369 170.474 312.834 170.491Z" fill="#364261"/>
<path d="M256.03 180.63C255.85 180.636 255.666 180.593 255.498 180.496C255.02 180.22 254.855 179.609 255.132 179.13C255.396 178.672 261.794 167.865 277.386 164.945C277.925 164.845 278.452 165.201 278.554 165.744C278.655 166.287 278.298 166.81 277.755 166.911C263.058 169.664 256.924 180.026 256.864 180.13C256.685 180.441 256.364 180.619 256.03 180.63Z" fill="#364261"/>
<path d="M260.317 183.723C259.888 183.942 259.349 183.946 258.861 183.654C258.156 183.201 257.906 182.313 258.36 181.608C258.733 181.011 261.955 175.783 269.368 172.005C272.16 170.581 275.227 169.559 278.485 168.914C279.292 168.773 280.105 169.306 280.246 170.114C280.387 170.922 279.854 171.735 279.047 171.876C276.085 172.438 273.315 173.377 270.736 174.691C263.968 178.141 261.066 182.935 260.96 183.125C260.773 183.423 260.532 183.613 260.317 183.723Z" fill="#0561B6"/>
<path d="M283.621 163.862C283.586 163.863 283.55 163.862 283.513 163.86C282.963 163.819 282.549 163.339 282.589 162.789C282.77 160.338 283.668 158.119 283.706 158.026C283.915 157.516 284.497 157.269 285.009 157.479C285.52 157.687 285.766 158.272 285.559 158.783C285.55 158.803 284.742 160.811 284.585 162.936C284.547 163.451 284.125 163.846 283.621 163.862Z" fill="#364261"/>
<path d="M243.545 200.032C243.066 200.047 242.581 199.997 242.101 199.878C239.725 199.339 238.268 197.067 238.801 194.714C239.343 192.659 241.217 191.521 243.169 192.03C244.728 192.468 245.716 194.16 245.301 195.654C245.153 196.186 244.6 196.496 244.07 196.35C243.538 196.202 243.226 195.651 243.374 195.119C243.482 194.728 243.161 194.105 242.645 193.961C241.786 193.736 240.996 194.241 240.744 195.192C240.462 196.438 241.239 197.631 242.563 197.932C243.439 198.148 244.318 198.013 245.063 197.553C245.808 197.093 246.325 196.37 246.519 195.518C246.641 194.978 247.172 194.639 247.715 194.765C248.254 194.886 248.592 195.422 248.469 195.961C248.156 197.342 247.318 198.511 246.112 199.255C245.325 199.739 244.445 200.003 243.545 200.032Z" fill="#364261"/>
</g>
<defs>
<clipPath id="clip0_339_651">
<rect width="424" height="482" fill="white" transform="translate(141.437 133.865)"/>
</clipPath>
</defs>
</svg>
