<svg width="63" height="43" viewBox="0 0 63 43" fill="none" xmlns="http://www.w3.org/2000/svg">
<path d="M61.9489 5.1001H61.0479V5.27596H61.9489V5.1001Z" fill="#091517"/>
<path d="M59.2272 5.27596H57.4069V5.1001H59.2272V5.27596ZM55.5865 5.27596H53.7662V5.1001H55.5865L55.5865 5.27596ZM51.9458 5.27596H50.1255V5.1001H51.9458V5.27596ZM48.3051 5.27596H46.4848V5.1001H48.3051V5.27596ZM44.6644 5.27596H42.8441V5.1001H44.6644V5.27596ZM41.0237 5.27596H39.2034V5.1001H41.0237V5.27596ZM37.383 5.27596H35.5627V5.1001H37.383V5.27596ZM33.7423 5.27596H31.922V5.1001H33.7423V5.27596ZM30.1016 5.27596H28.2813V5.1001H30.1016V5.27596ZM26.4609 5.27596H24.6406V5.1001H26.4609V5.27596ZM22.8202 5.27596H20.9999V5.1001H22.8202V5.27596ZM19.1795 5.27596H17.3592V5.1001H19.1795V5.27596ZM15.5388 5.27596H13.7185V5.1001H15.5388V5.27596ZM11.8982 5.27596H10.0778V5.1001H11.8982V5.27596ZM8.25745 5.27596H6.43712V5.1001H8.25745V5.27596ZM4.61675 5.27596H2.79639V5.1001H4.61675V5.27596Z" fill="#091517"/>
<path d="M0.976268 5.1001H0.0751953V5.27596H0.976268V5.1001Z" fill="#091517"/>
<path d="M32.3635 21.4558H31.4624V21.6317H32.3635V21.4558Z" fill="#091517"/>
<path d="M29.6692 21.6317H27.8759V21.4558H29.6692V21.6317ZM26.0826 21.6317H24.2893V21.4558H26.0826V21.6317ZM22.496 21.6317H20.7027V21.4558H22.496V21.6317ZM18.9093 21.6317H17.116V21.4558H18.9093V21.6317ZM15.3227 21.6317H13.5294V21.4558H15.3227V21.6317ZM11.7361 21.6317H9.94277V21.4558H11.7361V21.6317ZM8.14946 21.6317H6.35615V21.4558H8.14947L8.14946 21.6317ZM4.56284 21.6317H2.76953V21.4558H4.56284V21.6317Z" fill="#091517"/>
<path d="M0.976268 21.4558H0.0751953V21.6317H0.976268V21.4558Z" fill="#091517"/>
<path d="M14.7927 29.1938H13.8916V29.3697H14.7927V29.1938Z" fill="#091517"/>
<path d="M12.0465 29.3697H10.2015V29.1938H12.0465V29.3697ZM8.35642 29.3697H6.51137V29.1938H8.35642V29.3697ZM4.66633 29.3697H2.82129V29.1938H4.66633V29.3697Z" fill="#091517"/>
<path d="M0.976268 29.1938H0.0751953V29.3697H0.976268V29.1938Z" fill="#091517"/>
<path d="M61.9745 7.03638V37.1552C61.973 38.6706 61.4583 40.1234 60.5433 41.1949C59.6283 42.2664 58.3877 42.8692 57.0937 42.8709H4.83147C4.14634 42.8715 3.46885 42.7026 2.84333 42.3752C2.21781 42.0479 1.65838 41.5696 1.20166 40.9715V40.7025C1.64134 41.3219 2.19138 41.8212 2.81323 42.1654C3.43508 42.5096 4.11368 42.6904 4.80148 42.695L13.8407 32.1096C13.9592 31.9708 14.1 31.8607 14.2548 31.7855C14.4097 31.7104 14.5757 31.6717 14.7433 31.6717C14.9109 31.6717 15.0769 31.7104 15.2318 31.7855C15.3867 31.8607 15.5274 31.9708 15.6459 32.1096L20.4501 37.7338L31.712 24.5474C31.8305 24.4086 31.9712 24.2984 32.1261 24.2233C32.281 24.1482 32.4469 24.1095 32.6146 24.1095C32.7822 24.1095 32.9482 24.1482 33.1031 24.2233C33.2579 24.2984 33.3986 24.4086 33.5172 24.5474L40.1235 32.282L61.6757 7.04517L61.8243 7.03989L61.8934 7.03813L61.9745 7.03638Z" fill="#00B4D8"/>
<path d="M57.143 42.9114H4.88081C3.58679 42.9097 2.34619 42.3069 1.43118 41.2354C0.516168 40.1639 0.00146473 38.7111 0 37.1957V5.71566C0.00146473 4.2003 0.516168 2.74749 1.43118 1.67597C2.34619 0.604449 3.58679 0.00171527 4.88081 0H57.143C58.437 0.00171481 59.6776 0.604449 60.5927 1.67597C61.5077 2.74749 62.0224 4.2003 62.0238 5.71566V37.1957C62.0224 38.7111 61.5077 40.1639 60.5927 41.2354C59.6776 42.3069 58.437 42.9097 57.143 42.9114ZM4.88081 0.175866C3.6266 0.177528 2.42417 0.761717 1.53732 1.80027C0.650458 2.83882 0.151598 4.24692 0.150179 5.71566V37.1957C0.151598 38.6645 0.650458 40.0726 1.53732 41.1111C2.42417 42.1497 3.6266 42.7339 4.88081 42.7355H57.143C58.3972 42.7339 59.5997 42.1497 60.4865 41.1111C61.3734 40.0726 61.8722 38.6645 61.8736 37.1957V5.71566C61.8722 4.24692 61.3734 2.83882 60.4865 1.80027C59.5997 0.761716 58.3972 0.177528 57.143 0.175866H4.88081Z" fill="#091517"/>
<path d="M4.93381 42.8856L4.82764 42.7613L13.8899 32.1489C14.1295 31.869 14.4541 31.7117 14.7925 31.7117C15.131 31.7117 15.4556 31.869 15.6951 32.1489L20.4993 37.7748L31.7612 24.5867C32.0007 24.3067 32.3253 24.1495 32.6638 24.1495C33.0022 24.1495 33.3268 24.3067 33.5664 24.5867L40.1727 32.323L61.8955 6.88452L62.0017 7.00886L40.1727 32.5716L33.4602 24.711C33.3556 24.5885 33.2315 24.4913 33.0948 24.4251C32.9582 24.3588 32.8117 24.3247 32.6638 24.3247C32.5159 24.3247 32.3694 24.3588 32.2328 24.4251C32.0961 24.4913 31.9719 24.5885 31.8674 24.711L20.4993 38.0235L15.5889 32.2732C15.3775 32.0263 15.0911 31.8876 14.7925 31.8876C14.4939 31.8876 14.2075 32.0263 13.9961 32.2732L4.93381 42.8856Z" fill="#091517"/>
<path d="M14.7925 30.5129C15.3731 30.5129 15.8437 29.9617 15.8437 29.2818C15.8437 28.6019 15.3731 28.0508 14.7925 28.0508C14.2119 28.0508 13.7412 28.6019 13.7412 29.2818C13.7412 29.9617 14.2119 30.5129 14.7925 30.5129Z" fill="#091517"/>
<path d="M32.3638 22.7746C32.9443 22.7746 33.415 22.2235 33.415 21.5436C33.415 20.8637 32.9443 20.3125 32.3638 20.3125C31.7832 20.3125 31.3125 20.8637 31.3125 21.5436C31.3125 22.2235 31.7832 22.7746 32.3638 22.7746Z" fill="#091517"/>
<path d="M61.9487 6.41916C62.5293 6.41916 63 5.86799 63 5.1881C63 4.5082 62.5293 3.95703 61.9487 3.95703C61.3681 3.95703 60.8975 4.5082 60.8975 5.1881C60.8975 5.86799 61.3681 6.41916 61.9487 6.41916Z" fill="#091517"/>
</svg>
