<svg width="64" height="43" viewBox="0 0 64 43" fill="none" xmlns="http://www.w3.org/2000/svg">
<path d="M62.2489 5.10013H61.3478V5.27599H62.2489V5.10013Z" fill="#E6E6E6"/>
<path d="M59.5273 5.27599H57.7069V5.10013H59.5273V5.27599ZM55.8866 5.27599H54.0663V5.10013H55.8866L55.8866 5.27599ZM52.2459 5.27599H50.4255V5.10013H52.2459V5.27599ZM48.6052 5.27599H46.7848V5.10013H48.6052V5.27599ZM44.9645 5.27599H43.1441V5.10013H44.9645V5.27599ZM41.3238 5.27599H39.5035V5.10013H41.3238V5.27599ZM37.6831 5.27599H35.8628V5.10013H37.6831V5.27599ZM34.0424 5.27599H32.2221V5.10013H34.0424V5.27599ZM30.4017 5.27599H28.5814V5.10013H30.4017V5.27599ZM26.761 5.27599H24.9407V5.10013H26.761V5.27599ZM23.1203 5.27599H21.3V5.10013H23.1203V5.27599ZM19.4796 5.27599H17.6593V5.10013H19.4796V5.27599ZM15.8389 5.27599H14.0186V5.10013H15.8389V5.27599ZM12.1982 5.27599H10.3778V5.10013H12.1982V5.27599ZM8.5575 5.27599H6.73717V5.10013H8.5575V5.27599ZM4.9168 5.27599H3.09644V5.10013H4.9168V5.27599Z" fill="#E6E6E6"/>
<path d="M1.27619 5.10013H0.375122V5.27599H1.27619V5.10013Z" fill="#E6E6E6"/>
<path d="M32.6635 21.4557H31.7625V21.6316H32.6635V21.4557Z" fill="#E6E6E6"/>
<path d="M29.9693 21.6316H28.1759V21.4557H29.9693V21.6316ZM26.3826 21.6316H24.5893V21.4557H26.3826V21.6316ZM22.796 21.6316H21.0027V21.4557H22.796V21.6316ZM19.2094 21.6316H17.4161V21.4557H19.2094V21.6316ZM15.6228 21.6316H13.8294V21.4557H15.6228V21.6316ZM12.0361 21.6316H10.2428V21.4557H12.0361V21.6316ZM8.44951 21.6316H6.6562V21.4557H8.44952L8.44951 21.6316ZM4.86289 21.6316H3.06958V21.4557H4.86289V21.6316Z" fill="#E6E6E6"/>
<path d="M1.27619 21.4557H0.375122V21.6316H1.27619V21.4557Z" fill="#E6E6E6"/>
<path d="M15.0927 29.1938H14.1917V29.3697H15.0927V29.1938Z" fill="#E6E6E6"/>
<path d="M12.3465 29.3697H10.5014V29.1938H12.3465V29.3697ZM8.65634 29.3697H6.8113V29.1938H8.65634V29.3697ZM4.96626 29.3697H3.12122V29.1938H4.96626V29.3697Z" fill="#E6E6E6"/>
<path d="M1.27619 29.1938H0.375122V29.3697H1.27619V29.1938Z" fill="#E6E6E6"/>
<path d="M62.2743 7.03641V37.1553C62.2728 38.6706 61.7581 40.1234 60.8431 41.1949C59.9281 42.2664 58.6875 42.8692 57.3935 42.8709H5.13127C4.44615 42.8715 3.76866 42.7026 3.14314 42.3753C2.51762 42.048 1.95818 41.5696 1.50146 40.9716V40.7025C1.94114 41.3219 2.49119 41.8212 3.11304 42.1654C3.73488 42.5096 4.41348 42.6904 5.10128 42.6951L14.1405 32.1097C14.259 31.9708 14.3998 31.8607 14.5546 31.7856C14.7095 31.7104 14.8755 31.6718 15.0431 31.6718C15.2107 31.6718 15.3767 31.7104 15.5316 31.7856C15.6865 31.8607 15.8272 31.9708 15.9457 32.1097L20.7499 37.7339L32.0118 24.5474C32.1303 24.4086 32.271 24.2985 32.4259 24.2233C32.5808 24.1482 32.7467 24.1095 32.9144 24.1095C33.082 24.1095 33.248 24.1482 33.4029 24.2233C33.5577 24.2985 33.6984 24.4086 33.817 24.5474L40.4233 32.282L61.9755 7.0452L62.1241 7.03992L62.1932 7.03816L62.2743 7.03641Z" fill="#00B4D8"/>
<path d="M57.4431 42.9114H5.18086C3.88684 42.9097 2.64624 42.3069 1.73123 41.2354C0.816217 40.1639 0.301514 38.7111 0.300049 37.1957V5.71566C0.301514 4.2003 0.816217 2.74749 1.73123 1.67597C2.64624 0.604449 3.88684 0.00171527 5.18086 0H57.4431C58.7371 0.00171481 59.9777 0.604449 60.8927 1.67597C61.8077 2.74749 62.3224 4.2003 62.3239 5.71566V37.1957C62.3224 38.7111 61.8077 40.1639 60.8927 41.2354C59.9777 42.307 58.7371 42.9097 57.4431 42.9114V42.9114ZM5.18086 0.175866C3.92665 0.177528 2.72422 0.761717 1.83736 1.80027C0.950507 2.83882 0.451647 4.24692 0.450228 5.71566V37.1957C0.451647 38.6645 0.950507 40.0726 1.83736 41.1111C2.72422 42.1497 3.92665 42.7339 5.18086 42.7355H57.4431C58.6973 42.7339 59.8997 42.1497 60.7866 41.1111C61.6734 40.0726 62.1723 38.6645 62.1737 37.1957V5.71566C62.1723 4.24692 61.6734 2.83882 60.7866 1.80027C59.8997 0.761717 58.6973 0.177528 57.4431 0.175866H5.18086Z" fill="white"/>
<path d="M5.23398 42.8856L5.12781 42.7613L14.1901 32.1489C14.4296 31.869 14.7543 31.7117 15.0927 31.7117C15.4311 31.7117 15.7557 31.869 15.9953 32.1489L20.7995 37.7748L32.0613 24.5867C32.3009 24.3067 32.6255 24.1495 32.964 24.1495C33.3024 24.1495 33.627 24.3067 33.8666 24.5867L40.4729 32.323L62.1957 6.88454L62.3019 7.00887L40.4729 32.5717L33.7604 24.711C33.6558 24.5885 33.5316 24.4914 33.395 24.4251C33.2583 24.3588 33.1119 24.3247 32.964 24.3247C32.816 24.3247 32.6696 24.3588 32.5329 24.4251C32.3963 24.4914 32.2721 24.5885 32.1675 24.711L20.7995 38.0235L15.8891 32.2733C15.6777 32.0263 15.3913 31.8876 15.0927 31.8876C14.7941 31.8876 14.5077 32.0263 14.2963 32.2733L5.23398 42.8856Z" fill="white"/>
<path d="M15.0926 30.5128C15.6732 30.5128 16.1439 29.9617 16.1439 29.2818C16.1439 28.6019 15.6732 28.0507 15.0926 28.0507C14.512 28.0507 14.0414 28.6019 14.0414 29.2818C14.0414 29.9617 14.512 30.5128 15.0926 30.5128Z" fill="white"/>
<path d="M32.6637 22.7747C33.2443 22.7747 33.7149 22.2235 33.7149 21.5436C33.7149 20.8637 33.2443 20.3126 32.6637 20.3126C32.0831 20.3126 31.6124 20.8637 31.6124 21.5436C31.6124 22.2235 32.0831 22.7747 32.6637 22.7747Z" fill="white"/>
<path d="M62.2488 6.41911C62.8294 6.41911 63.3 5.86795 63.3 5.18805C63.3 4.50815 62.8294 3.95699 62.2488 3.95699C61.6682 3.95699 61.1975 4.50815 61.1975 5.18805C61.1975 5.86795 61.6682 6.41911 62.2488 6.41911Z" fill="white"/>
</svg>
