<svg width="54" height="58" viewBox="0 0 54 58" fill="none" xmlns="http://www.w3.org/2000/svg">
<path d="M37.0245 50.2859C36.4475 49.4778 35.6663 48.8866 34.6842 48.6653C33.8278 48.4723 32.9472 48.5052 32.0767 48.5119L21.0694 48.5968C20.1267 48.6041 19.2229 49.4208 19.2667 50.3996C19.3101 51.3701 20.059 52.2101 21.0694 52.2023C24.2938 52.1775 27.5182 52.1526 30.7425 52.1277C31.5027 52.1219 32.2633 52.1082 33.0235 52.1107C33.1942 52.1112 33.3642 52.1202 33.5347 52.1222C33.5761 52.1226 33.6059 52.1223 33.627 52.1214C33.6322 52.123 33.6367 52.1244 33.6436 52.1263C33.7325 52.1508 33.8238 52.1676 33.9133 52.1908C33.8819 52.1917 33.9713 52.2475 34.0162 52.2664C34.0224 52.2786 34.0355 52.3001 34.0575 52.3335C34.0881 52.3909 34.1789 52.5654 34.1826 52.5599C34.3189 52.9046 34.4313 53.2582 34.5191 53.6182C34.7286 54.4123 34.7747 54.5782 34.8048 55.3232C34.843 56.2642 35.6068 57.1708 36.6076 57.126C37.5517 57.0837 38.4512 56.3325 38.4104 55.3232C38.3415 53.6225 38.043 51.7121 37.0245 50.2859Z" fill="#00B4D8"/>
<path d="M21.7166 54.354C21.5098 53.1011 21.3071 51.8474 21.0963 50.5952C20.8824 49.325 20.4457 48.1617 19.4571 47.328C19.193 47.1053 18.9191 46.8973 18.6441 46.69C18.5474 46.6171 18.4508 46.5441 18.3553 46.4696C18.3496 46.4652 18.3459 46.4624 18.341 46.4585C18.3305 46.4495 18.3179 46.4387 18.3009 46.4244C17.8889 46.0757 17.4908 45.7115 17.1116 45.3244C16.7748 44.9805 16.4528 44.6221 16.1454 44.2489C16.0686 44.1557 15.9928 44.0617 15.918 43.9668C15.9051 43.9505 15.8358 43.8609 15.7901 43.8024C15.7477 43.7439 15.6701 43.6383 15.657 43.6198C15.5696 43.4962 15.4837 43.3715 15.3994 43.2455C14.8252 42.3853 14.328 41.476 13.9136 40.5284C13.8725 40.4344 13.8324 40.3399 13.7932 40.2448C13.7827 40.2158 13.7691 40.1785 13.7511 40.1289C13.6676 39.8992 13.5842 39.6698 13.5079 39.4374C13.3456 38.9438 13.2061 38.443 13.0894 37.9348C13.0317 37.6839 12.9797 37.4317 12.9336 37.1782C12.9097 37.0479 12.8875 36.9172 12.8667 36.7864C12.8633 36.7646 12.843 36.6234 12.8311 36.5436C12.8223 36.4634 12.8059 36.3215 12.8037 36.2996C12.7905 36.1676 12.7788 36.0355 12.7686 35.9034C12.7455 35.6059 12.7299 35.3079 12.7218 35.0095C12.7079 34.4791 12.7174 33.9487 12.7503 33.4183C12.769 33.1204 12.7956 32.8231 12.8284 32.5265C12.8304 32.5083 12.8319 32.4938 12.8334 32.4807C12.8354 32.4675 12.8377 32.4524 12.8404 32.4337C12.8647 32.2697 12.8902 32.106 12.9188 31.9428C13.0269 31.3232 13.1675 30.7096 13.3401 30.1047C13.4218 29.8187 13.5105 29.5349 13.6063 29.2535C13.649 29.1285 13.693 29.0041 13.7384 28.8801C13.7355 28.8881 13.8716 28.5403 13.8735 28.5286C14.4137 27.2521 15.2974 26.0885 15.2986 24.6384C15.2994 23.6567 14.4688 22.7162 13.4958 22.7616C13.0107 22.7798 12.5516 22.9857 12.2153 23.3358C11.879 23.686 11.6918 24.153 11.6931 24.6384C11.6931 24.6605 11.6929 24.6793 11.6929 24.6975C11.6838 24.7281 11.6762 24.7536 11.6694 24.7762C11.564 25.0051 11.435 25.2227 11.3193 25.4459C11.0027 26.057 10.7324 26.6881 10.4756 27.3285C10.0553 28.3714 9.73353 29.4513 9.51459 30.5541C9.03871 32.9705 9.00178 35.4529 9.40555 37.8824C10.1045 42.1429 12.4096 46.2212 15.6142 48.9626C15.8923 49.2005 16.1771 49.4303 16.4647 49.6556C16.5837 49.7488 16.7037 49.8403 16.8243 49.9312C16.8813 49.9741 17.1174 50.1603 17.0135 50.0701C17.2369 50.2608 17.3309 50.3567 17.3883 50.4971C17.3966 50.5295 17.408 50.5734 17.4233 50.6335C17.4637 50.7919 17.5021 50.9499 17.5341 51.1104C17.813 52.5134 18.0069 53.9398 18.2399 55.3518C18.4 56.322 19.5944 56.9535 20.4575 56.6627C21.4621 56.3242 21.8882 55.3935 21.7166 54.354Z" fill="#00B4D8"/>
<path d="M37.2072 57.9926C36.4501 57.9946 35.7231 57.6962 35.1858 57.1628C34.6484 56.6295 34.3445 55.9047 34.3408 55.1476V53.0912C32.1878 53.3322 24.8151 53.2764 22.7017 52.9368V55.0654C22.6961 55.8219 22.3916 56.5455 21.8546 57.0784C21.3177 57.6113 20.5919 57.9104 19.8353 57.9104C19.0788 57.9104 18.353 57.6113 17.816 57.0784C17.2791 56.5455 16.9746 55.8219 16.9689 55.0654V50.8861C14.1065 49.296 11.7203 46.9708 10.0566 44.1506C8.39284 41.3304 7.5118 38.1173 7.50439 34.8429C7.50439 29.2284 10.0489 23.9908 14.4855 20.4733C17.3701 18.1784 20.8749 16.7983 24.5497 16.5102C25.0485 16.4711 25.5503 16.4513 26.0413 16.4513C27.7711 16.4513 35.5756 16.7185 37.5337 17.2819L41.9987 12.8514C42.0643 12.7853 42.1482 12.7404 42.2395 12.7222C42.3308 12.704 42.4254 12.7134 42.5114 12.7492C42.5979 12.7836 42.6721 12.8435 42.7241 12.9208C42.776 12.9982 42.8034 13.0894 42.8026 13.1826V13.887L43.672 13.026C43.7375 12.9599 43.8212 12.9149 43.9125 12.8966C44.0037 12.8784 44.0984 12.8878 44.1842 12.9237C44.2709 12.9581 44.3451 13.0179 44.3971 13.0953C44.4492 13.1727 44.4766 13.264 44.4758 13.3572V21.2291C46.7162 23.2489 48.4239 25.7902 49.4473 28.6278C50.4708 31.4654 50.7784 34.5116 50.343 37.4965C49.9077 40.4815 48.7427 43.3129 46.9514 45.7399C45.16 48.167 42.7977 50.1146 40.0736 51.4103V55.1476C40.0699 55.9047 39.766 56.6295 39.2287 57.1628C38.6913 57.6962 37.9643 57.9946 37.2072 57.9926ZM34.5662 52.8356V55.1476C34.5719 55.8443 34.8526 56.5106 35.3473 57.0013C35.842 57.4919 36.5105 57.7672 37.2072 57.7672C37.904 57.7672 38.5725 57.4919 39.0671 57.0013C39.5618 56.5106 39.8426 55.8443 39.8483 55.1476V51.268L39.9126 51.2375C42.9691 49.7871 45.5639 47.5179 47.4088 44.682C49.7597 41.0631 50.7374 36.7222 50.1649 32.4449C49.5925 28.1676 47.5077 24.2365 44.2879 21.3632L44.2504 21.3296V13.3572C44.2512 13.3088 44.2372 13.2613 44.2101 13.2211C44.1831 13.1809 44.1444 13.1499 44.0992 13.1324C44.0544 13.1132 44.0047 13.108 43.9568 13.1175C43.9089 13.127 43.8651 13.1508 43.8309 13.1857L42.5772 14.4274V13.1826C42.578 13.1342 42.564 13.0866 42.5369 13.0464C42.5099 13.0062 42.4712 12.9753 42.426 12.9578C42.381 12.9386 42.3313 12.9335 42.2833 12.943C42.2354 12.9526 42.1914 12.9765 42.1573 13.0115L37.5967 17.5368L37.5319 17.5165C35.7115 16.9468 27.7843 16.6766 26.0413 16.6766C25.5562 16.6766 25.0602 16.6962 24.5674 16.7349C20.9372 17.0195 17.475 18.3828 14.6255 20.6498C10.2431 24.1244 7.72972 29.2976 7.72972 34.8429C7.73721 38.0883 8.61354 41.2725 10.2677 44.0648C11.9218 46.857 14.2934 49.1554 17.1361 50.7213L17.1943 50.7535V55.0654C17.2001 55.762 17.4809 56.4282 17.9755 56.9187C18.4702 57.4093 19.1387 57.6845 19.8353 57.6845C20.532 57.6845 21.2004 57.4093 21.6951 56.9187C22.1898 56.4282 22.4706 55.762 22.4764 55.0654V52.6671L22.6099 52.6922C24.5091 53.0495 32.5062 53.1058 34.4388 52.8523L34.5662 52.8356Z" fill="#091517"/>
<path d="M29.1576 0C27.108 0.000792608 25.1391 0.799097 23.6676 2.22595C22.1962 3.65279 21.3377 5.59621 21.2739 7.64485C21.2716 7.72485 21.2705 7.80598 21.2705 7.8871C21.2705 9.44702 21.7331 10.9719 22.5997 12.2689C23.4664 13.566 24.6982 14.5769 26.1393 15.1738C27.5805 15.7708 29.1664 15.927 30.6963 15.6227C32.2263 15.3183 33.6316 14.5672 34.7346 13.4641C35.8377 12.3611 36.5888 10.9557 36.8932 9.4258C37.1975 7.89585 37.0413 6.31002 36.4443 4.86884C35.8474 3.42766 34.8365 2.19586 33.5394 1.32922C32.2424 0.462571 30.7175 0 29.1576 0ZM29.1576 15.5489C27.1262 15.5467 25.1787 14.7388 23.7423 13.3024C22.3059 11.866 21.498 9.91847 21.4959 7.8871C21.4959 7.78231 21.4981 7.67865 21.5026 7.57612C21.5636 6.0753 22.0645 4.62551 22.9428 3.40705C23.8212 2.18858 25.0384 1.25519 26.443 0.722933C27.8476 0.190676 29.3776 0.0830372 30.8429 0.413403C32.3082 0.743768 33.644 1.49756 34.6843 2.58105C35.7247 3.66454 36.4235 5.02993 36.6941 6.50743C36.9646 7.98493 36.7949 9.50936 36.2059 10.8912C35.617 12.273 34.6349 13.4512 33.3818 14.2793C32.1286 15.1074 30.6597 15.5489 29.1576 15.5489Z" fill="#091517"/>
<path d="M35.8052 7.88717C35.8052 9.65025 35.1048 11.3411 33.8581 12.5878C32.6114 13.8345 30.9205 14.5349 29.1575 14.5349C27.3944 14.5349 25.7035 13.8345 24.4568 12.5878C23.2101 11.3411 22.5098 9.65025 22.5098 7.88717C22.5098 7.67648 22.5199 7.46916 22.539 7.26409C22.6992 5.56254 23.5086 3.98805 24.7991 2.86756C26.0897 1.74706 27.7622 1.16665 29.4693 1.24683C31.1765 1.32701 32.7873 2.06163 33.9671 3.29816C35.1469 4.53468 35.8052 6.1781 35.8052 7.88717Z" fill="#E6E6E6"/>
<path d="M31.1373 8.32876C30.9762 8.1169 30.7642 7.9491 30.521 7.84088C30.2211 7.71447 29.9113 7.61273 29.5948 7.53667V5.72714C30.0813 5.80049 30.5376 6.00851 30.912 6.32769L31.2793 5.54461C31.068 5.3564 30.8255 5.20655 30.5627 5.10181C30.2713 4.98384 29.9655 4.9054 29.6534 4.86857V3.95142H28.8027V4.87759C28.4743 4.91448 28.1574 5.02088 27.8732 5.18969C27.6165 5.34164 27.4004 5.55349 27.2433 5.80714C27.0935 6.05467 27.0158 6.33918 27.0191 6.62852C27.0045 6.94208 27.0953 7.25149 27.2771 7.50737C27.4445 7.72891 27.6655 7.90418 27.9194 8.01665C28.2241 8.14679 28.5392 8.25119 28.8613 8.32876V10.0628C28.2873 10.0195 27.7403 9.80124 27.294 9.43746L26.9268 10.2217C27.1762 10.4279 27.46 10.5889 27.765 10.6971C28.0993 10.8168 28.4485 10.8896 28.8028 10.9135V11.8227H29.6534V10.8966C30.1259 10.8449 30.569 10.6418 30.9165 10.3174C31.0695 10.1707 31.1904 9.99377 31.2714 9.79788C31.3525 9.60199 31.392 9.3914 31.3875 9.17944C31.4016 8.87588 31.3135 8.57635 31.1373 8.32876ZM28.8613 7.34512C28.6541 7.28228 28.4615 7.17887 28.2946 7.04091C28.2284 6.98207 28.1762 6.90933 28.1415 6.8279C28.1068 6.74647 28.0906 6.65837 28.094 6.56994C28.0879 6.36925 28.1616 6.17433 28.2991 6.02798C28.4515 5.87443 28.6481 5.77239 28.8613 5.73615V7.34512ZM30.1289 9.7428C29.9852 9.89022 29.798 9.98774 29.5948 10.0211V8.52931C29.789 8.58142 29.9707 8.67225 30.1289 8.79635C30.1889 8.84757 30.2365 8.91165 30.2683 8.98383C30.3001 9.056 30.3152 9.13442 30.3126 9.21324C30.3204 9.40661 30.2548 9.59579 30.1289 9.7428Z" fill="#00B4D8"/>
<path d="M8.28164 29.2104C6.70959 28.9782 5.20609 28.4097 3.87364 27.5438C3.21351 27.1151 2.6024 26.6152 2.05127 26.0533C1.50731 25.4984 0.986911 24.8678 0.717475 24.1289C0.458243 23.4453 0.471604 22.6882 0.754797 22.0141C1.03413 21.3442 1.56771 20.8124 2.23856 20.5352C2.91343 20.2661 3.72879 20.2373 4.38559 20.5321C4.69857 20.6692 4.9694 20.8872 5.17028 21.1637C5.26366 21.2911 5.3328 21.4347 5.37425 21.5871C5.41272 21.7253 5.41622 21.8708 5.38443 22.0107C5.34592 22.1503 5.278 22.2801 5.18523 22.3913C5.09246 22.5025 4.97698 22.5926 4.84654 22.6555C4.55947 22.8028 4.24842 22.8976 3.92802 22.9356C3.60576 22.9796 3.14284 23.0196 2.88377 22.7609C2.83044 22.7097 2.7885 22.6479 2.76066 22.5794C2.74119 22.527 2.73453 22.4706 2.74124 22.4151C2.73746 22.4396 2.75687 22.3619 2.75576 22.365C2.75167 22.3765 2.73392 22.4045 2.75914 22.3614C2.76702 22.3473 2.7758 22.3336 2.78541 22.3205C2.77685 22.3316 2.75804 22.3501 2.79162 22.3184C2.81938 22.288 2.85505 22.266 2.89464 22.2548C2.91023 22.2503 2.92606 22.2466 2.94169 22.2424C2.98144 22.2315 2.90208 22.243 2.94274 22.2417C2.95843 22.2412 2.97431 22.2415 2.98995 22.2408C3.02984 22.239 2.9506 22.23 2.98883 22.2396C3.00367 22.2433 3.01837 22.2469 3.03299 22.2516C3.06478 22.2616 3.01049 22.2282 3.03202 22.2532C3.05726 22.2824 3.00552 22.2248 3.03421 22.253C3.04849 22.2671 3.06194 22.2819 3.07451 22.2975C3.12426 22.3466 3.19136 22.3741 3.26127 22.3741C3.33118 22.3741 3.39827 22.3466 3.44802 22.2975C3.49608 22.2472 3.52289 22.1803 3.52289 22.1107C3.52289 22.0412 3.49608 21.9743 3.44802 21.924C3.18759 21.6011 2.67316 21.6809 2.40971 21.9538C2.07372 22.3017 2.20677 22.8532 2.5336 23.1569C2.90358 23.5006 3.42759 23.5245 3.90351 23.4669C4.30572 23.4283 4.69768 23.3176 5.06057 23.1399C5.42114 22.9627 5.70314 22.658 5.85198 22.2849C5.91918 22.0857 5.94332 21.8746 5.9228 21.6654C5.90228 21.4563 5.83757 21.2538 5.73295 21.0715C5.31276 20.2816 4.44268 19.8766 3.58267 19.8064C3.13989 19.7717 2.69462 19.8252 2.27264 19.9637C1.85067 20.1022 1.46035 20.3231 1.12428 20.6135C0.476525 21.1966 0.0776494 22.0064 0.0101445 22.8754C-0.0649249 23.7763 0.284625 24.6512 0.794261 25.3783C1.32779 26.1171 1.96446 26.7755 2.68485 27.3336C4.09319 28.4579 5.74517 29.237 7.5086 29.6085C7.71835 29.6518 7.92922 29.6889 8.14123 29.7198C8.20868 29.7361 8.27984 29.7261 8.3402 29.6919C8.40055 29.6576 8.44558 29.6016 8.46611 29.5353C8.48422 29.4678 8.47502 29.3958 8.4405 29.335C8.40598 29.2742 8.34892 29.2295 8.28165 29.2104L8.28164 29.2104Z" fill="#091517"/>
<path d="M33.4512 17.7319C31.148 17.6993 28.8519 17.7578 26.5632 17.9072C25.7809 17.9583 25.104 18.2348 25.104 18.6995C25.104 19.0881 25.7755 19.5433 26.5632 19.4919C28.8508 19.3425 31.1468 19.284 33.4512 19.3165C35.3299 19.343 35.3288 17.7584 33.4512 17.7319Z" fill="#CCCCCC"/>
<path d="M30.0469 19.2379C29.798 19.2379 23.9507 19.2286 23.9507 18.4209C23.9507 17.6133 29.798 17.604 30.0469 17.604C30.2958 17.604 36.1432 17.6133 36.1432 18.4209C36.1432 19.2286 30.2958 19.2379 30.0469 19.2379ZM24.1793 18.4209C24.3393 18.6658 26.4887 19.0126 30.0469 19.0126C33.6051 19.0126 35.7545 18.6658 35.9145 18.4209C35.7545 18.1761 33.6051 17.8293 30.0469 17.8293C26.4887 17.8293 24.3393 18.1761 24.1793 18.4209V18.4209Z" fill="#091517"/>
<path d="M48.5989 40.4712C49.8934 40.4352 51.5043 40.3903 52.7454 39.4837C53.115 39.2027 53.4186 38.8442 53.6351 38.4335C53.8515 38.0227 53.9755 37.5696 53.9984 37.1059C54.0237 36.3899 53.7651 35.7649 53.27 35.3466C52.6218 34.7989 51.6752 34.6704 50.6551 34.9702L51.712 27.2467L50.9362 27.1404L49.6937 36.2203L50.3416 35.923C51.0927 35.5785 52.1238 35.4032 52.7645 35.9446C52.9218 36.0862 53.0444 36.2621 53.1227 36.4588C53.201 36.6554 53.2328 36.8674 53.2158 37.0784C53.1968 37.4235 53.1037 37.7605 52.9428 38.0664C52.782 38.3723 52.5571 38.64 52.2835 38.8512C51.3176 39.5567 50.0335 39.6477 48.5771 39.6884L48.5989 40.4712Z" fill="#091517"/>
<path d="M46.4539 27.9128H42.2363V28.6959H46.4539V27.9128Z" fill="#091517"/>
<path d="M10.9463 5.9238L18.2282 15.6616L13.3009 6.02601C13.2602 5.91358 13.1977 5.81027 13.1171 5.72198C13.0365 5.63369 12.9392 5.56215 12.8309 5.51144C12.7227 5.46074 12.6055 5.43186 12.486 5.42646C12.3666 5.42107 12.2472 5.43926 12.1348 5.47999L10.9463 5.9238Z" fill="#E6E6E6"/>
</svg>
