<svg width="55" height="58" viewBox="0 0 55 58" fill="none" xmlns="http://www.w3.org/2000/svg">
<path d="M37.3247 50.2858C36.7476 49.4778 35.9665 48.8865 34.9844 48.6652C34.128 48.4723 33.2474 48.5052 32.3769 48.5119L21.3696 48.5967C20.4269 48.604 19.523 49.4207 19.5668 50.3995C19.6103 51.37 20.3591 52.2101 21.3696 52.2023C24.594 52.1774 27.8183 52.1526 31.0427 52.1277C31.8028 52.1218 32.5634 52.1081 33.3237 52.1106C33.4944 52.1112 33.6644 52.1202 33.8349 52.1221C33.8762 52.1226 33.9061 52.1222 33.9271 52.1213C33.9324 52.1229 33.9369 52.1244 33.9437 52.1263C34.0327 52.1507 34.124 52.1675 34.2135 52.1907C34.1821 52.1917 34.2715 52.2475 34.3164 52.2664C34.3226 52.2785 34.3357 52.3001 34.3577 52.3334C34.3883 52.3909 34.479 52.5654 34.4828 52.5599C34.6191 52.9045 34.7315 53.2581 34.8193 53.6182C35.0288 54.4122 35.0749 54.5782 35.105 55.3232C35.1431 56.2642 35.9069 57.1707 36.9078 57.1259C37.8518 57.0836 38.7514 56.3324 38.7105 55.3232C38.6417 53.6225 38.3431 51.712 37.3247 50.2858Z" fill="#00B4D8"/>
<path d="M22.0166 54.3539C21.8099 53.1011 21.6071 51.8474 21.3963 50.5952C21.1825 49.3249 20.7457 48.1617 19.7572 47.328C19.4931 47.1052 19.2192 46.8973 18.9442 46.69C18.8474 46.6171 18.7509 46.5441 18.6553 46.4696C18.6496 46.4651 18.646 46.4624 18.641 46.4585C18.6305 46.4495 18.6179 46.4387 18.601 46.4244C18.1889 46.0757 17.7908 45.7115 17.4116 45.3243C17.0749 44.9805 16.7528 44.622 16.4455 44.2489C16.3687 44.1557 16.2929 44.0616 16.2181 43.9668C16.2052 43.9505 16.1359 43.8609 16.0902 43.8024C16.0477 43.7439 15.9701 43.6383 15.9571 43.6198C15.8696 43.4962 15.7838 43.3714 15.6995 43.2455C15.1253 42.3852 14.6281 41.476 14.2137 40.5283C14.1726 40.4344 14.1324 40.3398 14.0933 40.2447C14.0828 40.2157 14.0692 40.1785 14.0511 40.1288C13.9676 39.8992 13.8843 39.6698 13.8079 39.4374C13.6457 38.9438 13.5062 38.4429 13.3895 37.9348C13.3318 37.6838 13.2798 37.4317 13.2336 37.1782C13.2098 37.0478 13.1875 36.9172 13.1668 36.7863C13.1633 36.7646 13.1431 36.6234 13.1312 36.5436C13.1224 36.4634 13.106 36.3214 13.1038 36.2995C13.0906 36.1676 13.0788 36.0355 13.0686 35.9033C13.0456 35.6059 13.03 35.3079 13.0219 35.0094C13.008 34.479 13.0175 33.9486 13.0504 33.4183C13.0691 33.1203 13.0957 32.8231 13.1285 32.5265C13.1305 32.5082 13.132 32.4937 13.1334 32.4807C13.1354 32.4674 13.1377 32.4524 13.1405 32.4337C13.1647 32.2697 13.1903 32.106 13.2188 31.9428C13.3269 31.3231 13.4676 30.7096 13.6401 30.1047C13.7218 29.8186 13.8106 29.5349 13.9063 29.2534C13.949 29.1285 13.9931 29.004 14.0385 28.8801C14.0355 28.8881 14.1717 28.5403 14.1735 28.5286C14.7138 27.2521 15.5974 26.0884 15.5986 24.6384C15.5995 23.6566 14.7689 22.7162 13.7959 22.7616C13.3108 22.7798 12.8517 22.9857 12.5154 23.3358C12.1791 23.6859 11.9918 24.1529 11.9931 24.6384C11.9931 24.6604 11.993 24.6792 11.9929 24.6975C11.9839 24.7281 11.9763 24.7536 11.9695 24.7761C11.8641 25.0051 11.735 25.2226 11.6194 25.4459C11.3027 26.057 11.0324 26.6881 10.7757 27.3285C10.3553 28.3713 10.0336 29.4513 9.81464 30.5541C9.33876 32.9705 9.30182 35.4529 9.7056 37.8824C10.4046 42.1428 12.7096 46.2212 15.9142 48.9625C16.1923 49.2004 16.4772 49.4303 16.7648 49.6556C16.8838 49.7488 17.0037 49.8402 17.1243 49.9311C17.1813 49.9741 17.4175 50.1603 17.3136 50.0701C17.537 50.2607 17.631 50.3567 17.6884 50.4971C17.6967 50.5295 17.708 50.5734 17.7234 50.6335C17.7638 50.7918 17.8022 50.9498 17.8341 51.1104C18.113 52.5133 18.3069 53.9398 18.5399 55.3518C18.7001 56.322 19.8945 56.9534 20.7575 56.6627C21.7621 56.3242 22.1882 55.3935 22.0166 54.3539Z" fill="#00B4D8"/>
<path d="M37.507 57.9927C36.7499 57.9947 36.0229 57.6963 35.4856 57.1629C34.9482 56.6296 34.6443 55.9048 34.6406 55.1477V53.0913C32.4876 53.3323 25.1149 53.2765 23.0016 52.9369V55.0655C22.9959 55.822 22.6914 56.5456 22.1544 57.0785C21.6175 57.6114 20.8917 57.9105 20.1351 57.9105C19.3786 57.9105 18.6528 57.6114 18.1158 57.0785C17.5789 56.5456 17.2744 55.822 17.2687 55.0655V50.8863C14.4063 49.2961 12.0202 46.9709 10.3564 44.1507C8.69264 41.3305 7.8116 38.1174 7.8042 34.843C7.8042 29.2285 10.3487 23.9909 14.7853 20.4734C17.6699 18.1785 21.1747 16.7984 24.8495 16.5103C25.3483 16.4712 25.8501 16.4514 26.3411 16.4514C28.0709 16.4514 35.8754 16.7186 37.8335 17.282L42.2985 12.8515C42.3642 12.7855 42.448 12.7405 42.5393 12.7223C42.6306 12.7041 42.7252 12.7135 42.8112 12.7493C42.8978 12.7838 42.9719 12.8436 43.0239 12.9209C43.0758 12.9983 43.1032 13.0895 43.1024 13.1827V13.8871L43.9718 13.0261C44.0373 12.96 44.121 12.915 44.2123 12.8967C44.3035 12.8785 44.3982 12.8879 44.484 12.9238C44.5707 12.9582 44.6449 13.018 44.697 13.0954C44.749 13.1728 44.7764 13.2641 44.7756 13.3573V21.2292C47.016 23.249 48.7237 25.7903 49.7471 28.6279C50.7706 31.4655 51.0782 34.5117 50.6429 37.4967C50.2075 40.4816 49.0425 43.313 47.2512 45.7401C45.4598 48.1671 43.0975 50.1147 40.3734 51.4105V55.1477C40.3697 55.9049 40.0658 56.6296 39.5285 57.1629C38.9911 57.6963 38.2641 57.9947 37.507 57.9927V57.9927ZM34.866 52.8357V55.1477C34.8717 55.8445 35.1524 56.5107 35.6471 57.0014C36.1418 57.492 36.8103 57.7673 37.507 57.7673C38.2038 57.7673 38.8723 57.492 39.367 57.0014C39.8616 56.5107 40.1424 55.8445 40.1481 55.1477V51.2681L40.2124 51.2376C43.269 49.7872 45.8637 47.518 47.7086 44.6821C50.0595 41.0632 51.0372 36.7223 50.4647 32.445C49.8923 28.1677 47.8075 24.2366 44.5877 21.3633L44.5502 21.3297V13.3573C44.551 13.3089 44.537 13.2614 44.5099 13.2212C44.4829 13.181 44.4442 13.15 44.399 13.1325C44.3542 13.1133 44.3045 13.1081 44.2566 13.1176C44.2088 13.1271 44.1649 13.1509 44.1307 13.1858L42.877 14.4275V13.1827C42.8778 13.1343 42.8638 13.0868 42.8367 13.0466C42.8097 13.0063 42.771 12.9754 42.7258 12.9579C42.6808 12.9387 42.6311 12.9336 42.5831 12.9432C42.5352 12.9527 42.4913 12.9766 42.4571 13.0116L37.8965 17.5369L37.8317 17.5166C36.0113 16.9469 28.0841 16.6767 26.3411 16.6767C25.856 16.6767 25.36 16.6963 24.8672 16.735C21.237 17.0196 17.7748 18.3829 14.9253 20.6499C10.5429 24.1245 8.02952 29.2977 8.02952 34.843C8.03702 38.0884 8.91335 41.2726 10.5675 44.0649C12.2216 46.8571 14.5932 49.1555 17.4359 50.7214L17.4941 50.7536V55.0655C17.4999 55.7621 17.7807 56.4283 18.2753 56.9188C18.77 57.4094 19.4385 57.6846 20.1351 57.6846C20.8318 57.6846 21.5002 57.4094 21.9949 56.9188C22.4896 56.4283 22.7704 55.7621 22.7762 55.0655V52.6672L22.9097 52.6923C24.8089 53.0496 32.806 53.1059 34.7386 52.8524L34.866 52.8357Z" fill="white"/>
<path d="M29.4577 0C27.408 0.000792608 25.4391 0.799097 23.9677 2.22595C22.4962 3.65279 21.6378 5.59621 21.5739 7.64485C21.5717 7.72485 21.5706 7.80598 21.5706 7.8871C21.5706 9.44702 22.0331 10.9719 22.8998 12.2689C23.7664 13.566 24.9982 14.5769 26.4394 15.1738C27.8806 15.7708 29.4664 15.927 30.9964 15.6227C32.5263 15.3183 33.9316 14.5672 35.0347 13.4641C36.1377 12.3611 36.8889 10.9557 37.1932 9.4258C37.4975 7.89585 37.3413 6.31002 36.7444 4.86884C36.1474 3.42766 35.1365 2.19586 33.8395 1.32922C32.5425 0.462571 31.0176 0 29.4577 0V0ZM29.4577 15.5489C27.4263 15.5467 25.4787 14.7388 24.0423 13.3024C22.6059 11.866 21.798 9.91847 21.7959 7.8871C21.7959 7.78231 21.7982 7.67865 21.8027 7.57612C21.8637 6.0753 22.3645 4.62551 23.2429 3.40705C24.1213 2.18858 25.3384 1.25519 26.743 0.722933C28.1476 0.190676 29.6777 0.0830372 31.143 0.413403C32.6082 0.743768 33.9441 1.49756 34.9844 2.58105C36.0247 3.66454 36.7236 5.02993 36.9941 6.50743C37.2646 7.98493 37.0949 9.50936 36.506 10.8912C35.9171 12.273 34.935 13.4512 33.6818 14.2793C32.4287 15.1074 30.9597 15.5489 29.4577 15.5489V15.5489Z" fill="white"/>
<path d="M36.1055 7.88711C36.1055 9.65019 35.4051 11.3411 34.1584 12.5877C32.9117 13.8344 31.2208 14.5348 29.4578 14.5348C27.6947 14.5348 26.0038 13.8344 24.7571 12.5877C23.5104 11.3411 22.8101 9.65019 22.8101 7.88711C22.8101 7.67642 22.8202 7.4691 22.8393 7.26403C22.9995 5.56248 23.8089 3.98799 25.0994 2.8675C26.39 1.747 28.0624 1.16658 29.7696 1.24677C31.4768 1.32695 33.0876 2.06157 34.2674 3.2981C35.4472 4.53462 36.1054 6.17803 36.1055 7.88711V7.88711Z" fill="#E6E6E6"/>
<path d="M31.4373 8.32879C31.2762 8.11693 31.0642 7.94913 30.8211 7.84092C30.5211 7.7145 30.2114 7.61276 29.8949 7.5367V5.72717C30.3813 5.80052 30.8376 6.00854 31.212 6.32772L31.5793 5.54464C31.3681 5.35643 31.1256 5.20658 30.8627 5.10184C30.5714 4.98387 30.2656 4.90543 29.9535 4.86861V3.95145H29.1028V4.87762C28.7743 4.91451 28.4574 5.02091 28.1732 5.18972C27.9165 5.34167 27.7004 5.55352 27.5434 5.80717C27.3935 6.0547 27.3159 6.33921 27.3192 6.62855C27.3045 6.94211 27.3954 7.25152 27.5772 7.5074C27.7445 7.72894 27.9656 7.90421 28.2194 8.01668C28.5241 8.14682 28.8392 8.25122 29.1614 8.32879V10.0628C28.5873 10.0195 28.0403 9.80127 27.5941 9.43749L27.2268 10.2217C27.4763 10.428 27.76 10.5889 28.0651 10.6972C28.3994 10.8168 28.7486 10.8896 29.1028 10.9135V11.8228H29.9535V10.8966C30.426 10.845 30.8691 10.6418 31.2165 10.3175C31.3695 10.1707 31.4904 9.9938 31.5715 9.79791C31.6526 9.60202 31.6921 9.39143 31.6875 9.17947C31.7016 8.87591 31.6136 8.57638 31.4373 8.32879V8.32879ZM29.1614 7.34515C28.9542 7.28231 28.7615 7.1789 28.5946 7.04094C28.5285 6.9821 28.4762 6.90936 28.4416 6.82793C28.4069 6.7465 28.3907 6.6584 28.3941 6.56997C28.3879 6.36928 28.4617 6.17437 28.5991 6.02801C28.7515 5.87446 28.9481 5.77242 29.1614 5.73618V7.34515ZM30.429 9.74283C30.2852 9.89025 30.098 9.98777 29.8949 10.0211V8.52934C30.0891 8.58145 30.2707 8.67228 30.429 8.79638C30.4889 8.8476 30.5366 8.91168 30.5684 8.98386C30.6002 9.05603 30.6153 9.13445 30.6126 9.21327C30.6204 9.40664 30.5548 9.59582 30.429 9.74283V9.74283Z" fill="#00B4D8"/>
<path d="M8.58169 29.2105C7.00964 28.9782 5.50614 28.4098 4.17369 27.5438C3.51356 27.1151 2.90245 26.6153 2.35132 26.0533C1.80735 25.4985 1.28696 24.8679 1.01752 24.129C0.758292 23.4453 0.771653 22.6882 1.05485 22.0142C1.33418 21.3443 1.86776 20.8124 2.53861 20.5353C3.21347 20.2662 4.02884 20.2374 4.68564 20.5321C4.99861 20.6693 5.26944 20.8873 5.47033 21.1637C5.5637 21.2912 5.63285 21.4347 5.6743 21.5872C5.71277 21.7253 5.71626 21.8709 5.68448 22.0107C5.64597 22.1503 5.57805 22.2801 5.48528 22.3913C5.39251 22.5025 5.27703 22.5926 5.14659 22.6556C4.85952 22.8028 4.54847 22.8977 4.22807 22.9357C3.90581 22.9796 3.44289 23.0196 3.18382 22.7609C3.13049 22.7098 3.08854 22.6479 3.06071 22.5794C3.04124 22.527 3.03458 22.4707 3.04129 22.4152C3.03751 22.4396 3.05692 22.3619 3.05581 22.365C3.05172 22.3765 3.03397 22.4045 3.05919 22.3615C3.06707 22.3473 3.07585 22.3337 3.08546 22.3206C3.0769 22.3317 3.05809 22.3502 3.09167 22.3185C3.11942 22.2881 3.1551 22.2661 3.19469 22.2549C3.21028 22.2503 3.2261 22.2467 3.24174 22.2424C3.28149 22.2316 3.20212 22.243 3.24279 22.2417C3.25848 22.2412 3.27436 22.2416 3.29 22.2409C3.32989 22.2391 3.25065 22.23 3.28888 22.2396C3.30372 22.2434 3.31842 22.247 3.33304 22.2516C3.36483 22.2616 3.31054 22.2283 3.33207 22.2532C3.35731 22.2825 3.30557 22.2248 3.33426 22.2531C3.34854 22.2671 3.36199 22.282 3.37456 22.2975C3.42431 22.3467 3.4914 22.3742 3.56131 22.3742C3.63122 22.3742 3.69832 22.3467 3.74807 22.2975C3.79613 22.2472 3.82294 22.1804 3.82294 22.1108C3.82294 22.0412 3.79613 21.9743 3.74807 21.924C3.48764 21.6012 2.97321 21.681 2.70976 21.9538C2.37377 22.3018 2.50682 22.8533 2.83364 23.1569C3.20363 23.5007 3.72764 23.5246 4.20356 23.4669C4.60577 23.4284 4.99773 23.3176 5.36062 23.1399C5.72119 22.9628 6.00319 22.6581 6.15203 22.285C6.21923 22.0858 6.24337 21.8747 6.22285 21.6655C6.20233 21.4563 6.13762 21.2539 6.033 21.0716C5.61281 20.2816 4.74273 19.8766 3.88271 19.8065C3.43994 19.7718 2.99467 19.8252 2.57269 19.9638C2.15071 20.1023 1.7604 20.3231 1.42433 20.6135C0.776574 21.1967 0.377698 22.0065 0.310193 22.8754C0.235124 23.7764 0.584674 24.6513 1.09431 25.3784C1.62784 26.1171 2.26451 26.7756 2.9849 27.3336C4.39324 28.458 6.04522 29.2371 7.80865 29.6086C8.0184 29.6519 8.22927 29.689 8.44128 29.7198C8.50873 29.7362 8.57988 29.7262 8.64024 29.6919C8.7006 29.6577 8.74563 29.6017 8.76616 29.5354C8.78427 29.4678 8.77506 29.3959 8.74055 29.3351C8.70603 29.2743 8.64896 29.2295 8.5817 29.2105L8.58169 29.2105Z" fill="#00B4D8"/>
<path d="M33.7511 17.7318C31.4479 17.6993 29.1519 17.7577 26.8631 17.9072C26.0808 17.9582 25.4039 18.2347 25.4039 18.6995C25.4039 19.088 26.0754 19.5432 26.8631 19.4918C29.1507 19.3424 31.4467 19.284 33.7511 19.3164C35.6298 19.343 35.6287 17.7583 33.7511 17.7318Z" fill="#CCCCCC"/>
<path d="M30.3469 19.238C30.0979 19.238 24.2506 19.2287 24.2506 18.421C24.2506 17.6133 30.0979 17.604 30.3469 17.604C30.5958 17.604 36.4431 17.6133 36.4431 18.421C36.4431 19.2287 30.5958 19.238 30.3469 19.238ZM24.4793 18.421C24.6393 18.6658 26.7886 19.0126 30.3469 19.0126C33.9051 19.0126 36.0544 18.6658 36.2145 18.421C36.0544 18.1761 33.9051 17.8294 30.3469 17.8294C26.7886 17.8294 24.6393 18.1761 24.4793 18.421V18.421Z" fill="white"/>
<path d="M48.8989 40.4712C50.1933 40.4353 51.8043 40.3903 53.0453 39.4837C53.4149 39.2027 53.7186 38.8443 53.935 38.4335C54.1514 38.0228 54.2754 37.5697 54.2983 37.106C54.3237 36.39 54.065 35.765 53.5699 35.3467C52.9217 34.7989 51.9751 34.6705 50.9551 34.9702L52.0119 27.2467L51.2361 27.1404L49.9937 36.2204L50.6415 35.9231C51.3926 35.5786 52.4237 35.4033 53.0644 35.9447C53.2218 36.0863 53.3443 36.2622 53.4226 36.4588C53.5009 36.6554 53.5328 36.8675 53.5158 37.0784C53.4968 37.4236 53.4037 37.7605 53.2428 38.0665C53.0819 38.3724 52.857 38.6401 52.5834 38.8513C51.6176 39.5568 50.3335 39.6478 48.8771 39.6885L48.8989 40.4712Z" fill="#00B4D8"/>
<path d="M46.7538 27.9128H42.5363V28.6959H46.7538V27.9128Z" fill="#00B4D8"/>
<path d="M11.2462 5.92378L18.5281 15.6616L13.6008 6.02599C13.5601 5.91356 13.4976 5.81025 13.417 5.72196C13.3364 5.63367 13.2392 5.56213 13.1309 5.51143C13.0226 5.46072 12.9054 5.43185 12.7859 5.42645C12.6665 5.42105 12.5471 5.43924 12.4347 5.47998L11.2462 5.92378Z" fill="#E6E6E6"/>
</svg>
